<?xml version="1.0" standalone="no"?>
<!DOCTYPE svg PUBLIC "-//W3C//DTD SVG 20010904//EN"
 "http://www.w3.org/TR/2001/REC-SVG-20010904/DTD/svg10.dtd">
<svg version="1.0" xmlns="http://www.w3.org/2000/svg"
 width="498.000000pt" height="278.000000pt" viewBox="0 0 498.000000 278.000000"
 preserveAspectRatio="xMidYMid meet">
<metadata>
Created by potrace 1.16, written by Peter Selinger 2001-2019
</metadata>
<g transform="translate(0.000000,278.000000) scale(0.100000,-0.100000)"
fill="#000000" stroke="none">
<path d="M0 1390 l0 -1390 2490 0 2490 0 0 1390 0 1390 -2490 0 -2490 0 0
-1390z m2457 1026 c4 -3 16 -6 27 -6 12 0 30 -6 41 -14 11 -7 43 -26 70 -41
68 -38 100 -69 129 -129 21 -43 24 -60 19 -108 l-6 -58 72 -68 c58 -56 71 -74
71 -99 0 -25 -6 -34 -35 -48 -20 -9 -43 -18 -53 -20 -9 -3 -33 -8 -52 -13 -19
-5 -59 -8 -88 -7 -76 3 -82 -9 -82 -171 -1 -113 2 -136 23 -190 20 -51 104
-180 143 -221 7 -7 27 -42 44 -78 27 -55 34 -84 41 -171 5 -64 4 -115 -2 -130
-5 -14 -9 -45 -9 -69 0 -63 -39 -129 -136 -230 l-85 -88 12 -50 c6 -28 20 -65
31 -83 l19 -33 312 -3 c293 -3 314 -4 347 -24 48 -28 51 -58 8 -81 -30 -16
-68 -18 -407 -20 -206 -2 -372 -1 -369 2 3 3 171 6 374 8 341 2 371 3 397 21
35 23 34 30 -5 58 -33 23 -37 23 -338 26 -168 1 -311 2 -317 2 -22 0 -70 117
-73 176 0 6 38 51 86 100 117 122 125 140 149 327 1 15 0 27 -3 27 -4 0 -7 35
-7 78 0 69 -4 85 -36 147 -19 39 -63 106 -97 151 -36 47 -72 109 -87 150 -23
62 -26 83 -26 196 1 118 10 177 28 179 5 1 40 2 78 4 106 4 205 42 205 79 0
10 -32 50 -71 89 l-72 69 6 61 c5 51 2 68 -18 106 -13 25 -37 59 -53 74 -37
35 -121 79 -135 70 -6 -3 -7 -1 -3 5 4 7 -2 16 -16 21 -87 35 -145 36 -240 5
-143 -47 -173 -84 -184 -227 l-7 -87 -62 -53 c-35 -28 -90 -72 -124 -96 -34
-24 -61 -46 -61 -50 1 -17 22 -33 82 -60 66 -31 159 -49 233 -47 38 1 40 -1
70 -58 26 -51 30 -70 30 -137 0 -71 -2 -80 -30 -115 -55 -67 -162 -104 -302
-104 -60 0 -62 1 -94 43 -19 23 -43 53 -55 67 -12 14 -37 42 -54 63 -59 69
-100 38 -100 -76 0 -62 -2 -68 -17 -62 -34 15 -83 17 -98 5 -13 -11 -12 -18 9
-56 14 -24 20 -44 15 -44 -18 0 -49 82 -38 102 11 21 88 25 107 6 9 -9 12 4
12 60 0 78 18 112 61 112 25 0 81 -56 168 -167 32 -42 35 -43 89 -43 146 0
252 44 303 126 31 51 23 143 -19 216 -27 48 -33 53 -63 52 -65 -3 -163 17
-235 47 -106 44 -110 66 -23 129 33 25 89 69 123 98 l63 52 7 88 c8 101 34
158 81 182 81 41 181 68 238 65 32 -2 61 -6 64 -9z m50 -62 c25 -28 40 -91 25
-106 -6 -6 -22 -6 -48 1 -22 6 -56 11 -78 11 -28 0 -47 8 -73 30 -40 36 -83
39 -131 10 -18 -11 -38 -34 -44 -50 -11 -34 -48 -43 -48 -11 0 28 42 84 75
101 104 52 280 60 322 14z m-10 -183 c54 -29 58 -34 78 -111 21 -79 15 -169
-14 -232 -28 -58 -42 -195 -30 -287 5 -41 13 -79 18 -85 4 -6 11 -22 14 -36 4
-14 38 -70 76 -125 93 -132 126 -191 139 -245 23 -95 10 -268 -27 -350 -25
-56 -109 -141 -142 -142 -13 -1 -31 -7 -39 -14 -8 -6 -40 -25 -70 -40 -85 -45
-150 -41 -265 15 -49 24 -101 52 -114 62 -17 14 -28 16 -41 9 -24 -13 -91 -13
-125 0 -42 16 -105 72 -130 115 -13 22 -33 71 -44 108 -11 37 -32 82 -45 100
-14 18 -32 45 -40 62 -14 27 -14 31 6 52 19 20 20 27 10 62 -17 54 -16 58 16
73 27 13 27 15 23 91 -4 97 5 113 56 92 45 -19 139 -19 192 0 40 14 41 14 41
-8 0 -15 -11 -29 -32 -42 -78 -45 -208 -191 -193 -215 3 -5 1 -10 -4 -10 -20
0 -11 37 18 76 35 49 126 134 169 159 37 22 43 41 10 30 -51 -16 -163 -17
-201 -2 -37 16 -37 16 -43 -9 -4 -14 -4 -54 0 -89 l6 -64 -31 -16 c-25 -13
-30 -21 -24 -38 18 -57 17 -84 -4 -99 -21 -15 -21 -15 20 -73 23 -33 48 -84
55 -114 27 -103 89 -186 171 -229 26 -14 98 -16 122 -3 12 7 25 5 42 -4 95
-55 233 -115 265 -115 42 0 150 48 177 78 11 12 26 18 38 15 15 -4 34 8 71 43
62 61 86 110 98 199 22 168 7 255 -64 357 -23 35 -66 96 -94 137 -28 41 -54
88 -58 105 -3 17 -10 36 -15 42 -34 42 -26 302 12 376 26 51 35 143 19 209
-16 71 -30 92 -82 120 -36 20 -58 23 -133 24 -117 0 -135 -6 -180 -61 -33 -40
-36 -47 -23 -61 13 -13 24 -13 92 2 43 8 81 13 87 10 12 -8 12 -42 -1 -50 -5
-3 -10 -22 -10 -42 0 -38 23 -73 47 -73 9 0 13 -8 11 -22 -2 -17 -22 -32 -76
-60 -89 -44 -88 -43 -68 -63 22 -22 56 -143 56 -200 0 -67 -36 -125 -113 -180
-34 -25 -82 -62 -106 -82 -24 -21 -53 -44 -65 -52 -41 -27 -119 -107 -147
-150 -16 -25 -29 -38 -29 -30 0 31 83 128 155 181 22 16 56 44 75 61 19 18 62
50 94 71 32 22 73 60 92 84 28 38 34 53 34 96 0 65 -33 174 -59 196 -3 3 -12
15 -18 27 -10 18 -10 21 0 18 15 -6 159 66 165 83 2 6 -3 12 -12 12 -37 0 -64
108 -35 137 21 21 1 30 -51 22 -28 -4 -60 -11 -71 -14 -26 -8 -78 12 -75 30 1
7 20 34 42 60 47 56 78 65 204 61 64 -3 96 -9 127 -25z m-356 -139 c26 -14
113 -13 135 0 7 5 11 -12 13 -49 1 -30 9 -66 17 -78 13 -20 13 -24 -1 -39 -9
-9 -22 -16 -30 -16 -7 0 -35 -9 -62 -21 -37 -16 -68 -21 -133 -21 -74 1 -96 5
-155 32 l-69 31 44 39 c25 22 50 39 57 40 6 0 18 8 25 18 16 21 88 77 108 84
8 3 17 2 20 -1 3 -3 17 -12 31 -19z m-521 -846 c41 -11 43 -13 57 -65 7 -30
11 -62 7 -70 -4 -9 -6 -19 -6 -23 1 -5 -3 -7 -9 -5 -24 5 -18 -21 21 -81 22
-34 52 -94 66 -134 36 -101 57 -138 96 -174 59 -55 100 -74 162 -74 l57 0 35
-73 c19 -41 37 -90 40 -109 6 -33 4 -36 -43 -65 -27 -17 -68 -34 -91 -38 -46
-7 -53 -23 -22 -43 17 -10 23 -10 35 1 8 8 12 17 10 21 -3 3 -2 4 1 2 3 -2 33
12 66 31 55 32 61 34 76 19 9 -9 11 -16 5 -16 -6 0 -13 5 -15 11 -2 7 -24 -2
-53 -21 -28 -18 -42 -30 -32 -27 9 4 17 1 17 -5 0 -13 77 -3 96 13 8 6 12 30
11 59 -1 26 1 46 6 43 12 -7 8 -100 -5 -111 -21 -16 -92 -24 -122 -12 -24 9
-32 7 -48 -7 -18 -17 -19 -18 -1 -24 28 -12 142 -10 166 2 21 10 21 10 3 -5
-13 -11 -41 -16 -81 -16 -96 0 -165 30 -165 72 0 19 -7 20 -160 15 -125 -4
-166 -9 -185 -21 -32 -21 -31 -29 3 -52 38 -25 194 -34 582 -34 172 1 312 -2
309 -4 -9 -9 -609 -7 -744 2 -144 10 -189 26 -183 66 6 41 49 50 259 52 l196
2 51 32 c29 17 52 39 52 47 0 8 -18 53 -39 99 l-40 84 -53 0 c-105 0 -190 69
-238 194 -18 45 -36 92 -41 105 -6 13 -25 47 -43 75 -46 70 -50 88 -26 119 19
23 19 30 8 73 -13 47 -24 56 -80 68 -29 6 -88 52 -88 67 0 6 17 -4 39 -22 21
-18 58 -38 81 -43z"/>
<path d="M2280 2361 c-36 -10 -75 -23 -87 -29 -25 -14 -73 -73 -73 -90 0 -24
20 -11 34 22 29 69 130 88 189 36 24 -21 45 -30 68 -30 19 0 50 -4 69 -10 21
-6 38 -6 43 -1 14 14 0 56 -26 85 -31 34 -127 42 -217 17z"/>
<path d="M2059 2022 c-15 -16 -30 -29 -127 -107 -24 -19 -49 -35 -55 -36 -10
0 24 -19 43 -23 3 -1 21 -9 40 -18 66 -31 185 -28 263 5 18 8 45 19 61 26 27
11 27 13 12 30 -10 11 -16 35 -16 64 0 52 2 51 -77 47 -34 -1 -60 4 -75 14
-28 20 -48 19 -69 -2z"/>
</g>
</svg>
