<?xml version="1.0" standalone="no"?>
<!DOCTYPE svg PUBLIC "-//W3C//DTD SVG 20010904//EN"
 "http://www.w3.org/TR/2001/REC-SVG-20010904/DTD/svg10.dtd">
<svg version="1.0" xmlns="http://www.w3.org/2000/svg"
 width="498.000000pt" height="278.000000pt" viewBox="0 0 498.000000 278.000000"
 preserveAspectRatio="xMidYMid meet">
<metadata>
Created by potrace 1.16, written by Peter Selinger 2001-2019
</metadata>
<g transform="translate(0.000000,278.000000) scale(0.100000,-0.100000)"
fill="#000000" stroke="none">
<path d="M0 1390 l0 -1390 2490 0 2490 0 0 1390 0 1390 -2490 0 -2490 0 0
-1390z m2531 1004 c106 -31 182 -90 220 -171 14 -30 17 -48 10 -65 -9 -23 -14
-73 -12 -110 1 -9 22 -44 48 -78 26 -35 48 -72 48 -83 3 -38 -127 -107 -201
-107 -13 0 -28 -9 -34 -21 -39 -72 -66 -247 -49 -316 23 -89 142 -183 234
-183 44 0 95 36 95 68 0 28 54 107 91 134 79 57 128 62 162 17 21 -29 30 -85
17 -110 -10 -18 4 -47 14 -30 11 17 71 13 89 -6 30 -34 31 -69 3 -120 -24 -41
-25 -48 -11 -56 27 -15 38 -57 21 -82 -14 -21 -102 -78 -148 -97 -37 -15 -16
2 51 42 38 23 77 50 86 60 16 18 17 21 1 45 -9 14 -21 25 -26 25 -17 0 -11 29
15 70 30 48 31 60 4 94 -22 27 -66 35 -86 15 -8 -8 -14 -6 -22 9 -6 10 -8 22
-5 25 17 17 13 66 -9 98 -29 43 -48 47 -104 18 -56 -29 -109 -89 -130 -150
-29 -80 -91 -98 -198 -57 -74 28 -136 96 -153 166 -15 65 -1 194 31 282 l24
65 52 7 c76 11 171 64 171 95 0 8 -20 42 -45 75 -25 33 -45 70 -46 81 -2 43 3
91 12 114 20 53 -63 153 -168 205 -61 30 -76 33 -153 32 -154 -1 -282 -64
-308 -152 -7 -22 -12 -66 -12 -99 0 -47 4 -64 20 -78 11 -10 20 -29 20 -43 0
-31 -90 -136 -133 -157 -60 -27 -191 -75 -195 -70 -5 5 14 13 118 51 65 23 84
36 138 92 34 37 62 74 62 83 0 9 -9 24 -20 34 -16 14 -20 31 -20 81 0 145 42
203 172 242 119 36 179 39 259 16z m7 -58 c16 -14 22 -31 22 -59 0 -38 -1 -39
-27 -33 -16 4 -50 9 -76 13 -40 5 -50 11 -63 34 -11 23 -21 29 -47 29 -65 0
-139 -37 -156 -78 -16 -37 -41 -38 -41 -1 0 59 104 113 242 126 96 9 101 8
146 -31z m81 -20 c15 -8 44 -35 64 -60 29 -35 37 -53 37 -85 0 -47 -16 -53
-46 -20 -10 12 -36 32 -56 45 -36 23 -38 27 -38 79 0 30 2 55 5 55 4 0 18 -6
34 -14z m-130 -87 c51 -17 141 -62 141 -71 0 -4 6 -8 14 -8 8 0 26 -14 41 -32
23 -27 25 -33 11 -46 -13 -13 -19 -11 -54 17 -22 17 -45 31 -51 31 -6 0 -11 4
-11 8 0 11 -69 41 -128 55 -37 9 -48 17 -50 35 -3 18 1 22 24 22 15 0 44 -5
63 -11z m31 -93 c55 -27 78 -69 84 -152 4 -54 1 -88 -15 -140 -76 -260 -80
-278 -75 -347 11 -145 117 -254 265 -274 25 -3 52 -11 60 -17 7 -6 32 -16 55
-23 l41 -12 -45 5 c-25 3 -50 12 -56 20 -6 8 -23 14 -37 14 -49 0 -153 40
-193 74 -56 48 -94 127 -100 212 -6 71 -7 64 81 369 20 69 12 169 -18 212 -32
47 -99 73 -189 73 -74 0 -74 0 -115 -42 -36 -38 -83 -120 -83 -146 0 -12 49
-22 105 -22 68 0 75 -6 75 -59 0 -26 7 -56 16 -69 8 -12 14 -32 12 -44 -3 -25
-59 -67 -101 -75 -15 -3 -29 -9 -31 -12 -3 -4 4 -31 14 -61 11 -30 19 -72 20
-92 0 -54 -37 -160 -72 -202 -27 -33 -180 -146 -198 -146 -18 0 -117 -110
-145 -160 -27 -51 -29 -63 -30 -160 0 -124 12 -172 59 -227 35 -40 129 -93
166 -93 28 0 71 -20 101 -48 41 -37 190 -62 369 -63 161 -1 189 6 249 60 18
17 41 31 50 31 23 0 118 63 169 113 31 30 42 49 42 71 0 31 34 111 57 134 13
13 19 92 7 92 -3 0 -17 -9 -31 -20 -61 -48 -74 -11 -23 64 23 34 37 64 34 74
-3 9 -8 22 -10 29 -2 9 -12 9 -39 -2 l-35 -15 0 30 c0 17 5 51 11 76 10 38 9
48 -3 60 -23 24 -79 32 -113 18 l-30 -12 28 -11 c15 -6 27 -15 27 -20 0 -12
-48 11 -54 26 -3 7 8 20 25 28 17 9 27 21 24 28 -4 7 -1 5 7 -4 7 -9 29 -19
49 -23 57 -10 63 -24 48 -101 -13 -66 -9 -85 13 -68 26 19 53 9 59 -22 7 -38
-4 -68 -42 -116 -33 -42 -25 -59 14 -29 14 11 33 20 42 20 15 0 17 -8 13 -56
-3 -31 -9 -59 -14 -62 -19 -15 -54 -91 -54 -121 0 -20 -11 -43 -32 -66 -37
-43 -129 -107 -175 -123 -18 -6 -48 -25 -65 -42 -46 -43 -93 -52 -253 -51
-186 0 -332 28 -381 71 -19 16 -47 32 -62 35 -89 19 -139 42 -183 85 -39 39
-48 56 -64 119 -25 105 -16 233 22 304 26 48 126 157 143 157 16 0 169 111
194 141 36 43 67 116 73 174 4 38 -1 67 -20 120 l-24 71 24 2 c30 2 95 35 113
57 12 14 11 21 -3 48 -9 18 -18 52 -19 77 -3 44 -4 45 -38 47 -109 8 -139 15
-142 31 -6 29 49 127 93 167 l42 37 91 -4 c58 -3 104 -11 126 -22z m150 -109
c0 8 6 8 23 0 29 -13 121 -137 110 -147 -22 -23 -115 -60 -147 -60 l-36 0 6
83 c6 92 22 146 35 125 6 -8 9 -9 9 -1z m-412 -123 c27 -4 46 -13 49 -23 3 -9
14 -34 24 -57 11 -23 17 -48 14 -57 -4 -8 -40 -27 -81 -42 -64 -23 -90 -27
-191 -28 -138 -1 -213 19 -213 57 0 17 13 26 63 44 90 34 124 53 160 90 34 35
34 35 175 16z m-410 -187 c8 -9 45 -26 82 -37 55 -16 84 -19 173 -14 l107 6
17 -38 c20 -45 24 -173 7 -195 -6 -8 -17 -30 -23 -50 -14 -45 -45 -73 -146
-134 -98 -60 -195 -157 -232 -233 -26 -53 -28 -65 -27 -172 2 -173 29 -230
142 -303 74 -48 121 -67 163 -67 29 0 69 -39 69 -68 0 -19 -40 -84 -59 -97
-33 -21 -107 -45 -139 -45 -42 0 -38 -18 9 -43 28 -14 50 -16 118 -12 106 7
131 13 131 34 0 14 2 14 10 1 15 -24 -1 -30 -102 -42 -121 -14 -181 -1 -205
45 l-15 30 -145 -6 c-108 -5 -152 -11 -170 -22 -31 -21 -26 -34 21 -58 35 -19
62 -20 461 -21 381 -1 425 1 437 15 7 9 26 20 42 23 16 4 41 16 54 27 14 10
27 17 30 14 10 -9 -32 -35 -75 -47 -24 -7 -43 -18 -43 -26 0 -11 66 -12 368
-10 327 3 371 5 401 21 35 18 52 18 29 0 -39 -30 -115 -33 -785 -32 -776 2
-905 7 -946 34 -36 23 -32 55 8 75 23 11 75 14 225 15 179 1 199 2 240 23 33
15 52 34 70 66 l24 45 -24 26 c-13 14 -32 25 -43 25 -64 0 -216 83 -257 140
-66 92 -76 319 -20 434 31 65 126 158 220 216 116 73 135 93 166 171 29 75 30
124 0 193 l-16 38 -101 -6 c-82 -5 -113 -2 -171 14 -85 23 -108 42 -107 84 2
27 2 28 6 6 3 -14 12 -33 21 -43z m1259 -253 c27 -25 25 -77 -6 -141 -17 -35
-32 -63 -35 -63 -3 0 -28 9 -56 20 -28 11 -60 20 -71 20 -16 0 -19 4 -14 23
14 44 51 90 100 122 53 35 62 37 82 19z m63 -562 c0 -37 -4 -72 -9 -78 -23
-24 -53 -91 -56 -126 -6 -60 -95 -151 -205 -208 -30 -15 -64 -36 -75 -47 -24
-21 -56 -37 -108 -53 -21 -7 -41 -19 -44 -29 -3 -9 -13 -24 -21 -33 -12 -15
-12 -20 -2 -33 7 -9 19 -14 26 -11 17 7 186 8 419 4 159 -3 184 -5 214 -23 19
-11 36 -26 39 -34 3 -8 -12 -1 -33 15 l-38 29 -181 3 c-241 4 -403 2 -421 -5
-18 -6 -45 13 -45 33 0 15 42 83 52 84 4 0 32 9 63 21 41 15 55 25 51 35 -3 9
-1 12 5 9 6 -4 18 0 27 8 9 8 37 25 62 37 59 30 150 103 189 153 7 9 15 35 17
56 3 35 32 101 55 125 14 15 11 123 -3 129 -8 3 -6 6 5 6 15 1 17 -9 17 -67z
m-719 -512 c78 0 95 -17 57 -57 -44 -47 -234 -81 -246 -44 -2 7 2 32 10 58 15
51 37 65 83 52 16 -5 60 -9 96 -9z"/>
<path d="M2340 2350 c-72 -12 -169 -54 -155 -68 2 -3 -3 -10 -12 -17 -8 -6
-13 -18 -11 -26 4 -9 11 -4 24 18 34 58 181 98 214 58 7 -8 9 -15 5 -15 -4 0
-2 -6 4 -14 6 -7 30 -16 54 -19 23 -3 52 -9 65 -13 19 -6 22 -3 22 24 0 21 -9
38 -31 56 -33 28 -80 32 -179 16z"/>
<path d="M2658 2008 c-11 -9 -17 -38 -21 -95 l-6 -83 26 0 c27 0 128 43 138
59 3 6 0 13 -7 18 -7 4 -25 24 -40 45 -53 70 -63 77 -90 56z"/>
<path d="M2114 1898 c-19 -29 -76 -67 -131 -88 -94 -34 -113 -44 -113 -58 0
-7 8 -15 18 -18 9 -3 27 -11 40 -17 13 -6 73 -11 142 -10 104 1 129 5 190 28
75 29 87 39 72 58 -6 7 -15 31 -22 54 -12 41 -13 41 -69 48 -31 3 -70 8 -87
11 -21 4 -35 1 -40 -8z"/>
<path d="M3027 1432 c-21 -15 -51 -47 -68 -71 l-29 -45 53 -16 c30 -9 59 -20
65 -24 18 -11 75 111 67 143 -12 48 -34 51 -88 13z"/>
<path d="M2307 387 c-13 -11 -37 -68 -37 -88 0 -18 81 -20 137 -4 57 16 117
60 107 77 -3 4 -33 8 -67 8 -34 0 -76 4 -94 9 -22 6 -36 6 -46 -2z"/>
</g>
</svg>
