<?xml version="1.0" standalone="no"?>
<!DOCTYPE svg PUBLIC "-//W3C//DTD SVG 20010904//EN"
 "http://www.w3.org/TR/2001/REC-SVG-20010904/DTD/svg10.dtd">
<svg version="1.0" xmlns="http://www.w3.org/2000/svg"
 width="498.000000pt" height="278.000000pt" viewBox="0 0 498.000000 278.000000"
 preserveAspectRatio="xMidYMid meet">
<metadata>
Created by potrace 1.16, written by Peter Selinger 2001-2019
</metadata>
<g transform="translate(0.000000,278.000000) scale(0.100000,-0.100000)"
fill="#000000" stroke="none">
<path d="M0 1390 l0 -1390 2490 0 2490 0 0 1390 0 1390 -2490 0 -2490 0 0
-1390z m2595 1175 c99 -55 113 -67 180 -150 38 -48 40 -51 41 -130 1 -44 7
-93 14 -110 30 -71 47 -143 38 -158 -9 -18 -83 -42 -160 -53 -63 -8 -72 -21
-63 -89 9 -79 -13 -143 -86 -250 -52 -75 -62 -97 -61 -129 2 -66 50 -120 117
-131 22 -4 55 -14 74 -21 33 -14 36 -13 60 10 31 29 107 65 139 66 23 0 68
-37 58 -48 -4 -3 -13 4 -22 16 -8 12 -24 22 -35 22 -27 0 -98 -37 -132 -68
-25 -24 -30 -25 -60 -13 -17 7 -54 18 -82 25 -67 17 -91 33 -111 78 -31 69
-23 103 49 211 75 110 91 156 82 232 -8 61 5 95 38 95 42 1 145 26 170 43 24
16 25 18 12 59 -7 24 -21 61 -30 83 -13 27 -19 66 -19 121 -1 79 -2 82 -41
130 -69 85 -88 100 -198 157 l-65 35 -69 -15 c-176 -39 -338 -113 -349 -159
-3 -13 -7 -66 -8 -116 l-1 -92 50 -38 c27 -21 51 -42 53 -47 2 -6 -13 -44 -34
-86 -37 -75 -77 -117 -135 -142 -58 -25 -33 -115 45 -161 20 -12 41 -34 47
-49 6 -15 20 -47 30 -71 22 -49 24 -113 7 -192 -15 -65 -66 -121 -150 -165
-70 -37 -185 -123 -225 -168 -39 -45 -48 -83 -48 -212 l0 -100 49 -73 c57 -83
123 -133 223 -166 68 -22 66 -20 117 -124 36 -75 34 -99 -9 -118 -49 -20 -89
-24 -276 -28 -165 -3 -217 -13 -226 -43 -3 -6 11 -20 29 -30 57 -31 141 -34
1088 -30 520 2 568 3 593 20 32 21 44 22 28 3 -27 -32 -110 -36 -779 -37 -367
0 -674 0 -682 1 -8 1 -58 4 -110 6 -107 6 -180 31 -180 63 0 42 41 52 240 57
85 1 174 5 198 8 56 8 102 32 102 54 0 25 -73 164 -90 172 -8 4 -40 16 -70 25
-89 29 -151 76 -206 157 l-49 73 0 100 c0 149 9 189 56 240 21 23 58 55 82 71
23 15 51 36 62 45 11 9 44 29 73 44 77 40 134 100 150 158 18 69 15 132 -8
177 -11 22 -20 48 -20 58 0 19 -26 47 -72 75 -71 44 -85 164 -21 173 34 5 92
68 127 136 37 71 37 73 18 88 -11 8 -37 28 -57 44 l-38 29 6 101 c7 117 14
142 47 161 121 69 355 140 410 125 14 -4 48 -20 75 -35z m58 -86 c39 -27 96
-89 115 -124 14 -28 10 -138 -6 -157 -48 -58 -522 -85 -522 -30 0 30 43 156
66 192 31 50 104 131 125 138 10 4 55 7 101 7 73 0 87 -3 121 -26z m159 -349
c20 -41 23 -96 6 -107 -15 -9 -88 -21 -178 -29 -36 -4 -73 -10 -82 -15 -26
-14 -103 -11 -155 7 -48 16 -133 87 -133 110 0 9 43 13 162 16 103 2 163 7
165 14 2 6 16 9 31 7 15 -2 52 5 82 15 71 26 82 24 102 -18z m-552 -65 c66
-88 125 -115 250 -115 101 0 100 1 100 -91 0 -75 -12 -104 -94 -225 -36 -53
-66 -107 -66 -119 0 -34 29 -110 51 -134 12 -12 18 -29 15 -37 -7 -18 -102
-64 -133 -64 -26 0 -31 -15 -9 -23 19 -8 86 3 86 14 0 4 10 11 23 15 12 4 33
15 46 25 26 21 66 25 76 8 26 -41 -11 -144 -73 -204 -23 -22 -42 -46 -42 -53
0 -19 36 -45 88 -64 26 -9 38 -17 27 -17 -25 -1 -107 36 -117 52 -16 26 -6 54
33 92 61 59 93 131 78 173 -9 23 -43 30 -54 12 -9 -15 -85 -53 -120 -62 -42
-10 -75 0 -75 23 0 14 7 19 25 19 27 0 90 26 117 48 16 13 16 15 -1 33 -20 21
-51 113 -51 150 0 14 33 74 75 138 41 62 77 122 81 135 3 12 4 49 2 81 l-3 60
-100 6 c-135 8 -182 31 -256 127 l-25 33 -42 -88 c-23 -48 -45 -106 -50 -128
-10 -44 6 -140 31 -197 36 -79 44 -123 36 -182 -17 -128 -27 -151 -89 -210
-32 -31 -65 -56 -72 -56 -13 0 -116 -67 -197 -127 -54 -42 -81 -112 -81 -217
l0 -90 45 -67 c46 -66 145 -149 179 -149 9 0 24 -4 34 -9 9 -5 55 -21 102 -35
109 -34 182 -34 242 -2 105 56 338 239 338 266 0 4 -6 11 -12 13 -8 3 -6 6 5
6 31 2 18 -34 -29 -81 -44 -44 -195 -157 -277 -207 -27 -17 -60 -25 -107 -29
-68 -5 -77 -3 -290 65 -71 22 -144 78 -191 146 -43 61 -44 63 -47 157 -3 78 0
105 17 151 12 31 31 65 44 76 38 35 181 130 207 138 13 4 50 33 82 63 62 59
71 79 86 192 8 55 6 71 -15 129 -73 200 -72 237 9 414 17 37 36 67 43 67 6 0
26 -20 45 -45z m758 -779 c2 -36 -3 -62 -22 -101 -14 -28 -26 -57 -26 -63 0
-13 3 -14 60 -18 22 -1 45 -3 50 -3 6 -1 10 -14 10 -30 0 -21 -14 -46 -50 -87
-27 -31 -50 -61 -50 -66 0 -15 30 -8 47 11 19 22 43 17 43 -10 0 -22 -153
-173 -231 -227 -115 -80 -296 -162 -359 -162 -41 0 -64 26 -32 37 22 8 200
144 229 175 26 27 54 100 45 115 -4 5 -29 10 -55 10 -66 0 -76 13 -49 62 12
21 22 45 22 52 0 21 -32 49 -57 49 -31 0 -63 17 -63 34 0 7 12 23 26 37 48 45
94 136 94 187 0 27 6 27 55 1 49 -25 134 -20 190 11 19 11 44 20 55 20 10 0
22 5 25 11 4 5 14 9 23 7 13 -2 18 -16 20 -52z m-302 -868 c18 -37 30 -75 28
-85 -7 -27 -103 -55 -147 -42 -21 6 -33 6 -35 -1 -2 -6 -59 -10 -143 -10
l-140 0 3 -27 c4 -40 -41 -53 -169 -48 -101 4 -163 22 -163 46 0 6 12 2 28 -9
38 -27 215 -39 266 -18 l34 14 -18 59 c-19 62 -31 171 -20 178 4 3 8 -21 9
-52 0 -30 6 -73 11 -95 l11 -39 142 3 c135 3 142 4 142 23 1 12 11 31 23 43
12 12 22 27 22 33 0 5 -19 30 -42 54 -42 43 -45 44 -108 46 -36 1 -84 -4 -108
-10 -24 -7 -53 -10 -65 -8 -18 4 -18 5 5 6 15 0 39 6 55 12 15 6 64 11 108 10
l80 -1 43 -45 c46 -48 52 -75 22 -105 -27 -27 -25 -36 10 -49 23 -8 41 -6 78
7 26 9 50 21 54 27 4 5 -4 30 -16 55 -53 104 -63 129 -58 135 4 4 11 -4 16
-17 5 -13 24 -53 42 -90z m-549 76 c23 -6 28 -21 38 -114 3 -25 8 -61 11 -82
5 -30 2 -38 -14 -47 -11 -6 -35 -9 -54 -7 -18 2 -39 4 -45 5 -26 2 -12 31 20
39 46 12 48 54 8 139 -17 35 -31 66 -31 68 0 7 41 6 67 -1z"/>
<path d="M2393 2444 c-28 -29 -63 -70 -77 -92 -24 -38 -66 -152 -66 -178 0
-51 445 -23 500 31 10 11 15 35 15 79 0 59 -2 65 -43 111 -74 84 -105 100
-197 100 l-80 1 -52 -52z"/>
<path d="M2725 2142 c-67 -25 -133 -34 -295 -41 l-154 -6 42 -41 c23 -24 62
-49 89 -58 51 -18 133 -21 149 -7 5 5 38 12 74 15 68 6 129 14 168 22 27 5 29
43 4 93 -20 41 -26 43 -77 23z"/>
<path d="M2965 1316 c-16 -6 -45 -19 -64 -28 -18 -10 -61 -21 -95 -24 -51 -5
-70 -3 -104 14 -37 18 -42 18 -42 4 0 -18 -18 -76 -34 -111 -6 -13 -28 -43
-49 -67 -36 -41 -37 -43 -18 -53 11 -6 28 -11 38 -11 29 0 63 -29 63 -53 0
-13 -9 -40 -19 -60 l-19 -38 23 -9 c13 -5 39 -6 58 -3 28 4 35 2 39 -14 7 -27
-19 -103 -45 -131 -31 -33 -213 -172 -226 -172 -6 0 -11 -4 -11 -10 0 -18 68
-10 122 15 29 14 58 25 65 25 14 0 90 45 183 107 105 71 283 251 228 230 -7
-2 -12 -9 -11 -14 1 -5 -13 -9 -30 -8 -48 0 -44 24 13 89 64 73 65 99 3 101
-24 1 -50 3 -58 3 -22 3 -19 49 7 85 22 31 38 130 22 139 -5 2 -22 0 -39 -6z"/>
</g>
</svg>
