<?xml version="1.0" standalone="no"?>
<!DOCTYPE svg PUBLIC "-//W3C//DTD SVG 20010904//EN"
 "http://www.w3.org/TR/2001/REC-SVG-20010904/DTD/svg10.dtd">
<svg version="1.0" xmlns="http://www.w3.org/2000/svg"
 width="498.000000pt" height="278.000000pt" viewBox="0 0 498.000000 278.000000"
 preserveAspectRatio="xMidYMid meet">
<metadata>
Created by potrace 1.16, written by Peter Selinger 2001-2019
</metadata>
<g transform="translate(0.000000,278.000000) scale(0.100000,-0.100000)"
fill="#000000" stroke="none">
<path d="M0 1390 l0 -1390 2490 0 2490 0 0 1390 0 1390 -2490 0 -2490 0 0
-1390z m2595 1226 c19 -8 74 -53 123 -100 106 -102 120 -137 102 -251 -9 -57
-8 -73 5 -102 24 -51 36 -139 23 -169 -17 -36 -128 -87 -203 -92 -33 -2 -64
-8 -70 -13 -12 -12 -34 -96 -35 -133 0 -55 145 -213 249 -270 l53 -28 67 25
c76 30 136 42 144 30 3 -4 -15 -9 -38 -10 -24 -1 -61 -11 -82 -21 -69 -35 -96
-36 -155 -5 -96 51 -248 218 -248 274 0 42 28 142 42 151 7 4 36 8 63 8 59 1
144 35 186 74 26 25 28 32 23 74 -4 26 -15 67 -26 92 -17 39 -18 52 -8 116 17
109 5 137 -100 238 -120 115 -126 118 -268 114 -133 -4 -242 -31 -295 -71 -40
-30 -68 -111 -71 -201 -2 -76 -8 -86 -52 -86 -47 0 -77 -30 -64 -64 21 -56 51
-106 70 -116 23 -12 45 -52 53 -97 3 -17 15 -51 25 -75 38 -85 42 -100 42
-139 0 -22 -6 -52 -14 -67 -16 -30 -77 -90 -116 -114 -34 -21 -160 -140 -160
-151 0 -4 -13 -28 -30 -51 -37 -54 -60 -119 -60 -171 0 -21 15 -82 33 -135 30
-89 37 -100 110 -175 94 -96 105 -122 114 -291 l6 -121 -31 -11 c-17 -6 -60
-10 -94 -8 -102 4 -116 -10 -40 -41 80 -34 134 -44 212 -41 74 3 75 3 71 28
-8 57 -5 300 4 308 6 6 35 2 79 -11 l68 -21 17 23 c11 14 25 22 36 19 30 -5
88 -91 108 -156 22 -73 22 -71 -8 -102 -24 -25 -25 -27 -8 -42 36 -32 127 -26
171 10 l34 28 -41 41 c-39 41 -46 58 -56 148 -6 54 14 81 90 116 54 25 72 28
117 23 50 -5 59 -2 163 52 61 31 142 76 180 99 39 23 91 53 116 68 63 36 70
47 74 121 1 35 6 69 9 74 11 19 -21 33 -58 26 -28 -5 -36 -3 -36 9 0 14 79
179 80 166 0 -17 -32 -93 -50 -119 -30 -42 -26 -51 19 -44 33 5 41 3 50 -14 6
-10 8 -22 6 -24 -3 -3 -7 -38 -10 -78 -5 -82 -10 -91 -74 -127 -25 -15 -78
-46 -117 -69 -39 -24 -118 -67 -175 -96 -95 -48 -110 -53 -174 -54 -73 -1
-135 -24 -182 -66 -19 -18 -21 -28 -16 -77 7 -73 17 -96 47 -116 23 -15 39
-43 41 -70 0 -5 -15 -20 -33 -33 -62 -42 -202 -27 -202 22 0 5 12 22 26 37
l27 28 -17 52 c-18 53 -61 124 -91 149 -13 11 -19 10 -36 -8 -23 -26 -47 -27
-96 -7 -50 21 -72 19 -78 -8 -6 -21 -1 -188 7 -277 l3 -35 -80 -3 c-83 -3
-134 6 -222 40 -38 15 -53 26 -53 39 0 21 5 22 98 21 35 0 75 5 89 11 l26 12
-6 115 c-4 64 -13 134 -21 156 -9 23 -46 72 -93 119 -75 78 -79 85 -110 181
-18 55 -33 117 -33 138 0 51 27 132 62 183 15 23 28 46 28 50 0 13 128 132
171 158 20 13 54 44 77 70 54 61 55 99 8 216 -18 46 -37 99 -41 117 -4 19 -19
42 -37 55 -55 40 -100 159 -71 188 6 6 29 13 52 16 23 3 44 10 48 16 3 6 7 37
9 69 4 83 39 184 71 206 14 9 65 29 112 43 70 22 107 27 199 28 77 1 123 -4
147 -13z m62 -172 c78 -55 123 -115 123 -163 0 -68 -8 -74 -191 -117 -41 -10
-207 -17 -243 -10 -50 10 -69 31 -60 70 11 52 49 128 98 198 l47 68 84 -3 c81
-2 87 -4 142 -43z m-541 -231 c-13 -33 -7 -199 8 -234 8 -19 24 -55 35 -80 41
-95 37 -188 -11 -259 -13 -18 -56 -56 -97 -84 -76 -52 -172 -160 -211 -237
-30 -57 -27 -159 6 -247 35 -96 139 -201 257 -259 136 -67 181 -77 192 -42 6
17 12 20 38 15 78 -15 179 -25 195 -19 17 6 163 101 195 126 25 20 22 25 -24
38 -63 19 -66 44 -12 104 l45 49 -54 14 c-97 24 -103 27 -104 47 0 11 14 36
31 55 41 44 89 149 72 155 -7 2 -50 6 -97 8 -113 5 -140 14 -140 43 0 13 18
15 125 11 149 -5 181 -18 169 -70 -13 -61 -47 -141 -70 -164 l-23 -23 27 -6
c15 -3 37 -7 48 -10 12 -2 31 -12 43 -21 29 -24 20 -70 -21 -112 -27 -28 -28
-31 -12 -37 75 -23 91 -60 48 -105 l-28 -29 31 0 c31 0 159 61 323 154 119 68
150 89 150 104 0 8 -12 4 -33 -12 -41 -31 -85 -48 -107 -41 -30 10 -18 34 25
51 24 9 62 36 86 60 l43 44 -51 0 c-82 0 -96 14 -57 60 22 27 66 112 60 117
-3 3 -22 -2 -43 -12 -26 -13 -69 -20 -138 -23 l-100 -4 -110 65 c-137 81 -239
168 -295 249 -41 62 -42 64 -36 128 3 36 9 76 12 90 5 24 2 26 -55 37 -33 6
-74 21 -91 33 -28 20 -120 150 -120 169 0 5 -26 35 -57 66 -32 31 -53 55 -46
53 16 -4 113 -97 113 -108 0 -5 21 -41 46 -80 54 -84 101 -118 173 -127 l53
-6 -6 -36 c-4 -20 -10 -61 -13 -92 -5 -55 -4 -59 40 -120 55 -78 155 -168 234
-210 32 -18 83 -48 113 -67 54 -34 54 -34 152 -30 67 3 105 10 122 21 32 22
66 22 66 1 0 -16 -43 -97 -68 -126 -22 -26 -6 -38 54 -38 37 0 54 -4 54 -13 0
-20 -81 -94 -123 -111 -21 -9 -36 -20 -32 -26 10 -16 19 -13 75 25 61 41 81
45 72 13 -5 -22 -26 -42 -67 -64 -65 -34 -143 -79 -165 -94 -69 -46 -198 -102
-248 -107 -61 -7 -66 5 -19 45 31 28 34 42 10 63 -20 16 -27 19 -47 19 -27 0
-27 32 0 59 15 14 31 37 36 51 13 35 -28 70 -81 70 -45 0 -63 25 -33 46 19 13
65 107 76 156 11 46 -26 61 -160 65 -63 3 -114 2 -114 -1 0 -18 65 -34 145
-35 50 -1 93 -7 96 -13 11 -17 -41 -130 -78 -171 -27 -31 -32 -41 -22 -53 6
-8 19 -14 27 -14 36 0 122 -25 122 -36 0 -6 -18 -32 -40 -57 -22 -25 -40 -52
-40 -60 0 -9 18 -19 45 -27 30 -8 45 -18 45 -29 -1 -16 -78 -81 -97 -81 -5 0
-18 -9 -28 -20 -10 -11 -24 -20 -30 -20 -7 0 -18 -6 -24 -14 -6 -7 -24 -16
-39 -19 -27 -5 -145 6 -194 18 -21 6 -27 3 -33 -14 -5 -16 -15 -21 -40 -21
-19 0 -36 4 -39 9 -3 4 -20 11 -38 14 -59 10 -185 89 -257 161 -84 83 -113
149 -119 271 -3 63 0 90 16 125 27 63 130 189 183 225 96 64 122 90 147 143
20 45 23 63 18 108 -3 30 -15 73 -25 96 -51 116 -52 121 -52 213 0 85 6 125
18 125 3 0 2 -8 -1 -17z m664 -55 c21 -23 25 -34 34 -101 4 -29 0 -43 -15 -58
-10 -10 -24 -19 -31 -19 -6 0 -19 -6 -27 -13 -52 -43 -220 -52 -311 -18 -30
12 -56 21 -58 21 -1 0 -15 20 -31 45 -15 24 -31 41 -35 37 -4 -4 -6 -2 -5 3 2
6 -2 19 -8 31 -15 26 -13 67 2 54 15 -12 312 -13 320 0 3 5 18 10 33 10 15 1
41 7 57 15 42 19 51 18 75 -7z m310 -1871 c152 -2 180 -5 215 -22 46 -23 58
-57 27 -74 -51 -27 -134 -31 -784 -31 -713 0 -883 6 -936 34 -34 17 -42 45
-18 65 25 21 98 24 676 28 316 2 580 5 585 7 6 2 21 2 35 0 14 -3 104 -6 200
-7z"/>
<path d="M2395 2413 c-59 -85 -94 -154 -97 -194 -4 -51 24 -61 157 -56 61 3
123 8 138 11 151 35 177 50 177 102 0 44 -50 107 -127 160 -60 41 -66 43 -133
42 l-70 0 -45 -65z"/>
<path d="M2726 2161 c-4 -5 -25 -12 -49 -16 -23 -4 -47 -11 -53 -16 -6 -5 -83
-10 -172 -11 l-162 -3 35 -52 c19 -29 35 -57 35 -62 0 -12 57 -41 80 -41 9 0
21 -5 27 -11 16 -16 178 -12 223 4 19 7 52 23 73 36 35 22 37 26 37 73 0 69
-51 137 -74 99z"/>
<path d="M2855 284 c-5 -2 -269 -5 -585 -7 -589 -4 -640 -6 -665 -27 -21 -17
-19 -25 13 -46 46 -30 340 -40 1037 -34 574 5 622 6 653 23 39 21 37 35 -9 62
-30 18 -54 20 -209 22 -96 1 -186 4 -200 7 -14 2 -29 2 -35 0z"/>
</g>
</svg>
