<?xml version="1.0" standalone="no"?>
<!DOCTYPE svg PUBLIC "-//W3C//DTD SVG 20010904//EN"
 "http://www.w3.org/TR/2001/REC-SVG-20010904/DTD/svg10.dtd">
<svg version="1.0" xmlns="http://www.w3.org/2000/svg"
 width="498.000000pt" height="278.000000pt" viewBox="0 0 498.000000 278.000000"
 preserveAspectRatio="xMidYMid meet">
<metadata>
Created by potrace 1.16, written by Peter Selinger 2001-2019
</metadata>
<g transform="translate(0.000000,278.000000) scale(0.100000,-0.100000)"
fill="#000000" stroke="none">
<path d="M0 1390 l0 -1390 2490 0 2490 0 0 1390 0 1390 -2490 0 -2490 0 0
-1390z m2433 1029 c51 -8 90 -22 133 -48 34 -20 75 -43 91 -52 16 -9 41 -39
57 -70 23 -45 28 -66 27 -121 l-1 -66 71 -71 c62 -62 70 -74 67 -103 -3 -30
-8 -34 -68 -56 -40 -14 -94 -25 -140 -27 -100 -4 -102 -8 -102 -172 0 -158 16
-203 121 -348 40 -55 85 -125 99 -155 26 -53 27 -61 26 -220 -1 -158 -2 -167
-28 -223 -19 -39 -56 -86 -113 -144 l-85 -85 12 -47 c15 -64 37 -109 59 -121
10 -5 20 -7 23 -5 7 8 508 7 564 0 30 -4 63 -17 80 -30 25 -20 27 -26 17 -47
-19 -42 -59 -46 -440 -47 -196 -1 -354 1 -351 4 3 3 158 6 344 6 348 0 409 5
431 36 19 26 -20 58 -82 67 -54 9 -552 9 -565 1 -15 -9 -41 7 -56 37 -21 40
-38 23 -22 -20 9 -23 9 -35 1 -43 -9 -9 -80 -15 -135 -10 -30 2 -9 29 37 47
34 13 45 22 48 43 4 23 4 23 6 -6 1 -28 -3 -33 -41 -45 -56 -19 -50 -33 13
-32 65 2 79 15 56 53 -20 35 -21 42 -4 39 13 -3 15 34 3 92 -7 35 -5 39 78
124 47 48 98 111 112 139 24 47 27 66 31 200 5 137 4 151 -18 204 -12 31 -58
105 -101 165 -89 124 -123 202 -131 303 -6 81 6 222 21 237 5 5 45 11 88 13
54 2 98 11 139 27 85 34 85 50 -4 139 l-71 71 2 68 c1 58 -3 74 -29 121 -25
45 -41 60 -99 92 -37 21 -75 44 -84 51 -8 8 -49 19 -90 25 -66 9 -83 8 -145
-11 -100 -29 -141 -53 -172 -99 -23 -35 -26 -49 -25 -112 3 -85 -8 -113 -53
-147 -115 -86 -175 -132 -175 -135 0 -2 4 -6 9 -9 9 -6 42 19 140 102 57 49
87 59 110 38 20 -18 79 -21 128 -7 37 11 43 2 43 -61 0 -25 8 -51 22 -71 12
-17 17 -27 10 -23 -7 4 -12 3 -12 -2 0 -6 -12 -13 -27 -17 -46 -11 -123 -47
-118 -54 8 -13 -139 8 -214 31 -56 17 -75 28 -82 45 -9 25 -24 30 -34 12 -24
-37 146 -109 270 -114 38 -2 73 -4 76 -4 12 -2 53 -89 65 -137 18 -79 3 -136
-51 -190 -26 -26 -58 -46 -82 -52 -102 -26 -138 -32 -197 -32 l-64 0 -50 63
c-27 34 -67 82 -90 107 -40 44 -41 45 -69 30 -26 -15 -28 -20 -31 -90 -2 -41
-8 -79 -14 -85 -7 -7 -9 -6 -5 1 14 25 -74 32 -94 8 -11 -13 -9 -23 10 -60 13
-24 28 -44 33 -44 5 0 6 -4 3 -10 -3 -5 -14 -10 -23 -9 -9 0 -12 3 -5 5 8 4 2
19 -16 46 -45 66 -22 105 54 95 l45 -7 0 63 c0 72 12 94 56 103 27 5 35 0 85
-58 30 -34 70 -83 89 -106 l33 -44 76 5 c113 8 165 21 210 50 99 66 119 159
60 275 l-34 66 -71 2 c-39 1 -89 7 -110 14 -109 36 -131 45 -151 63 -13 11
-23 28 -23 37 0 9 30 38 68 65 62 45 114 87 170 137 20 18 22 29 21 104 -2 75
1 88 24 123 29 44 61 62 170 96 88 28 74 27 160 14z m74 -65 c25 -28 40 -91
25 -106 -6 -6 -22 -6 -48 1 -22 6 -55 11 -75 11 -25 0 -48 9 -74 30 -21 17
-50 30 -65 30 -43 0 -90 -29 -108 -66 -9 -20 -23 -34 -34 -34 -41 0 -6 79 50
113 31 19 72 32 166 51 4 1 38 0 75 -2 55 -3 70 -8 88 -28z m-10 -183 c56 -30
60 -36 83 -127 22 -85 20 -109 -20 -219 -39 -106 -45 -290 -11 -370 34 -82 86
-166 147 -240 9 -11 33 -54 53 -95 32 -67 36 -84 37 -160 2 -111 -10 -205 -33
-256 -10 -23 -44 -69 -74 -102 -45 -48 -59 -58 -73 -50 -12 7 -22 6 -34 -5
-31 -27 -122 -67 -167 -74 -27 -3 -57 -1 -77 7 -74 30 -197 90 -203 100 -5 7
-30 9 -74 4 -81 -8 -118 6 -178 64 -23 23 -45 37 -47 33 -8 -13 31 -58 79 -91
35 -24 54 -30 97 -30 29 0 58 -4 65 -8 17 -11 73 -133 80 -174 5 -33 3 -37
-47 -67 -56 -35 -125 -52 -157 -40 -30 11 -175 10 -257 -2 -79 -11 -107 -28
-87 -53 23 -27 75 -35 252 -38 98 -2 175 -7 172 -11 -3 -4 19 -5 49 -2 67 7
448 8 455 1 3 -3 -86 -5 -198 -6 -112 0 -229 -1 -259 -2 -112 -3 -405 15 -439
27 -67 23 -67 71 0 88 19 5 117 10 219 11 l185 2 53 33 c28 18 52 40 52 48 0
8 -18 53 -39 99 l-40 84 -58 0 c-104 0 -187 72 -238 205 -34 90 -49 120 -86
177 -35 54 -41 102 -14 122 16 11 16 17 4 52 -17 51 -37 74 -64 74 -24 0 -105
54 -105 70 0 5 21 -6 46 -25 25 -19 53 -35 63 -35 28 0 52 -24 67 -66 18 -53
17 -67 -6 -87 -23 -20 -17 -44 31 -115 17 -25 42 -77 56 -116 36 -99 53 -130
65 -118 6 6 3 23 -10 48 -11 22 -27 64 -36 95 -9 31 -23 62 -32 70 -8 7 -27
35 -41 63 l-25 49 23 18 c22 16 23 21 12 59 -6 24 -7 38 -1 32 5 -5 12 -28 15
-50 4 -33 2 -42 -15 -51 l-21 -11 21 -38 c12 -20 30 -47 40 -58 11 -12 25 -43
32 -70 23 -82 56 -144 99 -186 64 -62 88 -71 172 -63 52 5 75 3 80 -5 4 -7 55
-35 114 -62 87 -41 113 -49 147 -45 47 5 144 49 169 77 14 15 22 17 37 9 16
-8 27 -1 71 47 29 31 60 73 70 93 23 45 35 140 33 251 -1 75 -5 93 -35 152
-18 36 -40 75 -49 85 -10 10 -30 38 -47 63 -16 25 -40 58 -52 73 -12 15 -28
47 -34 70 -7 23 -16 47 -20 52 -3 6 -12 40 -18 77 -13 77 1 227 26 288 38 90
44 138 28 208 -9 37 -22 76 -30 88 -37 58 -178 90 -283 64 -41 -9 -58 -20 -88
-57 -33 -40 -35 -46 -21 -60 13 -13 23 -14 59 -5 39 11 85 16 115 13 7 -1 10
-10 6 -23 -21 -86 -13 -121 32 -138 42 -16 24 -40 -61 -81 l-83 -39 19 -33
c28 -49 50 -134 50 -197 0 -72 -32 -118 -133 -191 -139 -101 -266 -214 -298
-266 -25 -40 -59 -45 -59 -8 0 30 125 166 189 205 44 27 54 46 19 36 -60 -17
-157 -18 -197 -3 -27 11 -42 13 -47 6 -3 -6 -5 -47 -3 -92 4 -81 4 -82 -24
-95 -16 -8 -31 -12 -34 -9 -2 3 8 11 24 19 l28 13 -4 88 c-4 99 4 110 60 81
26 -13 48 -15 104 -10 38 3 82 9 96 12 21 5 27 2 32 -16 6 -22 7 -22 59 16
101 73 125 93 153 133 26 38 27 46 23 111 -4 52 -14 87 -38 136 -17 36 -29 68
-26 71 3 3 38 22 78 42 67 33 97 61 67 61 -29 0 -49 33 -49 81 0 26 4 50 10
54 5 3 7 12 4 19 -5 13 -71 8 -125 -9 -26 -8 -78 12 -75 30 1 7 20 34 41 59
30 35 49 48 75 52 19 3 37 8 40 11 3 3 43 3 90 0 61 -3 97 -11 127 -26z m-213
-1702 c28 -16 49 -20 116 -18 69 2 83 -1 95 -17 20 -25 39 -89 33 -106 -10
-25 -127 -56 -200 -53 -37 2 -72 6 -78 10 -5 3 -10 23 -10 44 0 20 -5 42 -10
47 -6 6 -13 34 -17 62 -5 48 -4 52 15 52 11 0 37 -9 56 -21z"/>
<path d="M2041 2006 c-22 -18 -47 -40 -55 -47 -8 -8 -35 -30 -60 -48 -25 -19
-43 -38 -40 -42 8 -13 127 -48 187 -55 50 -5 68 -3 125 21 37 15 78 31 91 36
21 9 22 11 8 27 -9 9 -17 40 -19 67 l-3 50 -68 -4 c-50 -2 -74 1 -92 13 -13 9
-26 16 -29 16 -2 0 -22 -15 -45 -34z"/>
<path d="M2335 2372 c-54 -8 -113 -28 -146 -48 -35 -21 -69 -63 -69 -84 0 -21
16 -9 34 25 38 70 130 87 189 35 26 -23 44 -30 75 -30 22 0 53 -5 68 -10 34
-13 49 -1 40 34 -13 51 -46 74 -111 78 -33 2 -69 2 -80 0z"/>
<path d="M2220 456 c0 -14 5 -37 11 -53 7 -15 15 -46 18 -68 l6 -40 75 -7 c62
-5 82 -3 119 13 24 10 50 19 57 19 21 0 17 41 -10 84 l-23 39 -79 -2 c-63 -1
-87 2 -119 19 -50 26 -55 25 -55 -4z"/>
</g>
</svg>
