<?xml version="1.0" standalone="no"?>
<!DOCTYPE svg PUBLIC "-//W3C//DTD SVG 20010904//EN"
 "http://www.w3.org/TR/2001/REC-SVG-20010904/DTD/svg10.dtd">
<svg version="1.0" xmlns="http://www.w3.org/2000/svg"
 width="498.000000pt" height="278.000000pt" viewBox="0 0 498.000000 278.000000"
 preserveAspectRatio="xMidYMid meet">
<metadata>
Created by potrace 1.16, written by Peter Selinger 2001-2019
</metadata>
<g transform="translate(0.000000,278.000000) scale(0.100000,-0.100000)"
fill="#000000" stroke="none">
<path d="M0 1390 l0 -1390 2490 0 2490 0 0 1390 0 1390 -2490 0 -2490 0 0
-1390z m2493 1153 c57 -18 87 -35 131 -73 93 -80 116 -126 116 -230 0 -73 1
-77 33 -109 47 -45 80 -114 72 -150 -5 -24 -17 -34 -66 -55 -33 -14 -71 -26
-84 -26 -13 0 -27 -4 -30 -10 -3 -5 -17 -10 -31 -10 -33 0 -44 -32 -44 -128 0
-107 48 -239 139 -379 81 -126 112 -229 112 -380 0 -81 -4 -110 -20 -146 -27
-59 -114 -162 -151 -179 -47 -20 -64 -63 -57 -144 11 -130 25 -207 40 -222 12
-12 45 -15 166 -14 82 0 154 2 158 5 20 12 301 -11 333 -28 58 -30 52 -68 -14
-90 -35 -12 -232 -19 -451 -16 -22 0 -98 1 -169 1 -70 1 -126 3 -123 6 4 5
108 5 292 3 185 -3 407 4 438 13 58 17 67 36 33 63 -43 35 -136 41 -509 34
-118 -2 -151 1 -163 12 -18 18 -39 159 -39 263 0 78 0 79 35 105 58 43 135
130 164 183 25 46 27 60 27 152 0 149 -29 239 -124 391 -41 65 -86 166 -115
256 -15 45 -15 176 -1 218 9 25 16 31 39 31 16 0 32 5 35 10 3 6 17 10 30 10
40 0 135 52 141 77 7 26 -23 81 -74 135 -34 36 -35 39 -33 112 2 58 -2 83 -18
113 -42 81 -144 163 -239 193 -36 11 -57 11 -120 1 -86 -15 -137 -37 -200 -88
-61 -50 -76 -83 -69 -160 4 -35 2 -74 -3 -86 -5 -12 -58 -58 -118 -102 -60
-44 -114 -88 -121 -98 -19 -29 11 -54 93 -78 70 -21 124 -22 222 -3 30 6 33 3
45 -33 8 -22 14 -81 14 -143 -1 -134 -20 -180 -111 -271 l-65 -64 -58 0 c-42
0 -64 5 -78 18 -25 22 -71 22 -95 0 -11 -9 -18 -30 -18 -50 0 -19 -9 -46 -19
-59 -16 -20 -17 -30 -9 -63 8 -30 6 -45 -6 -69 -15 -29 -15 -37 3 -110 10 -44
33 -106 50 -138 17 -33 42 -85 55 -116 30 -69 109 -158 141 -158 28 0 46 -28
67 -100 20 -68 38 -119 49 -142 5 -10 9 -33 9 -52 0 -40 -30 -69 -91 -88 -54
-16 -67 -33 -43 -59 15 -17 29 -20 87 -18 38 1 86 8 106 15 20 7 43 13 51 13
45 -1 -99 -36 -154 -38 -77 -2 -100 8 -115 49 l-10 31 -163 -5 c-121 -5 -168
-10 -186 -22 -28 -19 -25 -33 14 -56 37 -21 213 -29 599 -28 154 1 277 -1 275
-4 -9 -8 -609 -8 -735 1 -136 10 -180 25 -180 63 0 43 37 52 240 55 101 2 194
6 207 10 46 14 88 54 88 85 0 16 -4 32 -10 35 -5 3 -10 19 -10 34 0 15 -4 31
-9 37 -5 5 -16 36 -26 68 -20 72 -41 106 -66 106 -31 0 -106 77 -139 143 -16
33 -30 66 -30 73 0 7 -13 34 -29 61 -17 26 -39 87 -51 135 -19 81 -19 90 -5
124 11 26 13 46 7 68 -9 33 -1 69 17 81 6 3 11 22 11 42 0 20 7 45 17 55 22
25 87 24 120 -2 16 -12 41 -20 65 -20 35 0 47 7 105 63 36 34 77 85 91 112 24
45 27 61 27 155 0 130 -15 175 -54 166 -83 -19 -143 -18 -221 4 -144 41 -142
75 7 185 150 110 144 102 137 182 -8 86 8 127 67 175 59 48 97 66 172 82 85
19 120 19 180 -1z m9 -51 c20 -17 43 -80 33 -90 -3 -4 -41 -5 -83 -3 -65 2
-85 7 -126 33 -43 26 -52 28 -77 17 -33 -13 -84 -67 -94 -98 -10 -32 -45 -27
-45 6 0 33 86 117 138 134 90 30 221 30 254 1z m23 -120 c-2 -3 24 -22 58 -44
34 -22 74 -52 90 -66 27 -26 36 -52 17 -52 -5 0 -9 3 -9 8 3 18 -2 24 -14 13
-11 -8 -26 -1 -68 30 -29 22 -65 42 -79 45 -14 3 -33 9 -42 15 -10 5 -36 9
-57 9 -42 0 -57 11 -47 36 5 12 21 15 81 13 41 -2 72 -5 70 -7z m-55 -80 c110
-22 130 -50 130 -183 0 -85 -6 -123 -31 -205 -17 -58 -23 -208 -9 -265 15 -62
71 -185 112 -246 15 -23 28 -44 28 -47 0 -2 13 -26 29 -53 45 -74 74 -191 75
-303 1 -87 -1 -99 -28 -145 -38 -66 -76 -106 -161 -169 -125 -92 -143 -98
-248 -94 -88 3 -95 5 -161 46 -39 23 -80 42 -93 42 -14 0 -46 7 -73 16 -54 18
-120 80 -144 136 -8 18 -21 49 -30 70 -9 20 -16 39 -16 42 0 4 -9 20 -21 35
-27 37 -34 119 -12 143 11 13 14 28 10 56 -5 27 -2 45 9 61 12 17 15 35 10 67
-5 38 -3 46 17 58 12 7 46 17 75 20 43 6 52 4 52 -9 0 -9 -10 -26 -21 -38 -30
-31 -93 -167 -82 -178 5 -5 27 27 52 77 33 68 64 109 143 193 110 116 158 188
158 238 0 17 4 42 9 55 8 22 1 94 -18 181 -6 25 -5 35 1 29 9 -9 31 -145 30
-182 -2 -56 -24 -147 -45 -183 -14 -23 -75 -95 -136 -161 -61 -65 -111 -123
-111 -129 0 -5 -15 -39 -32 -74 -34 -66 -65 -82 -61 -32 2 33 56 148 82 176
29 31 27 34 -21 27 -70 -10 -87 -26 -81 -73 4 -28 1 -48 -10 -64 -10 -16 -14
-37 -10 -64 4 -28 0 -48 -12 -67 -21 -31 -14 -81 15 -119 11 -14 20 -30 20
-36 0 -30 73 -160 109 -195 40 -39 96 -66 137 -66 29 0 83 -23 141 -60 43 -27
54 -30 132 -30 70 0 91 4 111 20 14 11 28 20 33 20 15 0 153 108 188 147 20
22 48 65 64 97 26 53 27 63 22 139 -8 103 -38 207 -77 270 -16 27 -30 50 -30
53 0 3 -16 28 -35 57 -19 28 -35 56 -35 60 0 5 -13 37 -29 71 -16 33 -34 85
-41 115 -16 69 -7 204 20 306 26 98 28 250 2 281 -40 47 -103 67 -222 68 -47
1 -80 -5 -120 -22 -61 -26 -104 -70 -90 -92 7 -11 22 -11 88 5 110 25 113 23
94 -59 -15 -62 -15 -66 3 -86 10 -11 24 -20 30 -20 12 0 30 -29 23 -36 -9 -8
-126 -44 -143 -43 -11 1 -4 5 15 9 19 5 55 17 79 27 l44 19 -36 22 c-41 24
-43 33 -26 112 6 28 9 54 6 56 -3 3 -44 -2 -91 -12 -47 -10 -87 -16 -89 -13
-3 2 -7 13 -10 24 -10 33 38 77 112 102 69 24 128 26 231 5z m244 -148 c53
-58 96 -124 96 -149 0 -24 -99 -65 -157 -65 l-33 0 0 58 c0 120 12 212 28 212
8 0 37 -25 66 -56z m-144 -1556 c3 -115 18 -246 31 -270 15 -28 3 -65 -23 -72
-13 -3 -44 -6 -70 -6 -58 0 -62 16 -13 48 19 12 35 30 36 40 4 77 -5 130 -34
190 -9 19 -6 27 18 52 30 31 55 39 55 18z m-188 -43 l78 0 14 -35 c8 -20 17
-58 21 -85 3 -28 9 -62 11 -78 5 -25 1 -29 -39 -47 -50 -22 -200 -33 -217 -16
-5 5 -10 30 -10 56 0 25 -7 76 -15 115 -16 74 -19 118 -9 128 3 3 25 -4 47
-16 33 -17 59 -22 119 -22z"/>
<path d="M2334 2500 c-27 -4 -70 -16 -95 -27 -46 -21 -119 -93 -119 -118 0
-26 19 -16 33 18 15 34 66 79 104 91 22 7 72 -12 103 -40 15 -12 155 -23 165
-12 9 8 -11 52 -31 69 -24 21 -94 29 -160 19z"/>
<path d="M2637 2123 c-4 -38 -7 -94 -7 -125 0 -57 0 -58 28 -58 16 0 32 3 36
7 3 4 16 8 27 10 21 3 79 31 79 37 0 2 -10 23 -22 46 -19 35 -119 150 -131
150 -2 0 -7 -30 -10 -67z"/>
<path d="M2528 565 l-27 -23 19 -49 c16 -43 24 -103 21 -170 -1 -14 -15 -32
-38 -48 l-38 -25 51 0 c27 0 58 6 68 13 16 12 17 18 7 49 -14 42 -19 81 -26
189 -2 45 -6 83 -7 85 -2 1 -15 -8 -30 -21z"/>
<path d="M2220 554 c0 -16 7 -61 15 -99 8 -39 15 -89 15 -112 0 -23 6 -45 12
-49 26 -16 156 -5 197 16 44 22 44 20 20 147 -12 63 -29 78 -81 74 -50 -3
-137 17 -160 37 -17 14 -18 13 -18 -14z"/>
</g>
</svg>
