<?xml version="1.0" standalone="no"?>
<!DOCTYPE svg PUBLIC "-//W3C//DTD SVG 20010904//EN"
 "http://www.w3.org/TR/2001/REC-SVG-20010904/DTD/svg10.dtd">
<svg version="1.0" xmlns="http://www.w3.org/2000/svg"
 width="498.000000pt" height="278.000000pt" viewBox="0 0 498.000000 278.000000"
 preserveAspectRatio="xMidYMid meet">
<metadata>
Created by potrace 1.16, written by Peter Selinger 2001-2019
</metadata>
<g transform="translate(0.000000,278.000000) scale(0.100000,-0.100000)"
fill="#000000" stroke="none">
<path d="M0 1390 l0 -1390 2490 0 2490 0 0 1390 0 1390 -2490 0 -2490 0 0
-1390z m2587 1248 c58 -25 93 -48 139 -93 58 -56 63 -65 69 -117 8 -60 -1
-134 -16 -144 -6 -3 24 -43 66 -89 68 -75 75 -87 75 -124 0 -31 -5 -43 -21
-51 -29 -16 -104 13 -159 62 -25 21 -52 37 -60 36 -13 -3 -48 -58 -80 -128
-20 -43 -41 -162 -35 -194 12 -57 45 -138 71 -172 15 -19 50 -51 78 -71 28
-21 53 -40 56 -44 22 -28 190 -89 248 -89 28 0 82 -17 117 -37 11 -6 97 -14
195 -18 96 -3 178 -9 182 -11 13 -8 9 -48 -8 -72 -18 -26 -65 -52 -91 -51 -11
0 -6 5 12 11 57 20 106 84 77 102 -5 3 -85 8 -178 11 -149 6 -175 10 -222 31
-29 13 -66 24 -82 24 -56 0 -240 63 -260 89 -3 4 -28 23 -56 44 -67 48 -98 89
-125 168 -40 113 -25 223 49 359 38 71 61 75 122 21 57 -51 123 -79 145 -61
33 28 18 67 -60 155 -41 47 -75 86 -75 89 0 2 7 17 15 32 8 16 15 45 15 65 0
77 -12 102 -75 165 -80 79 -192 129 -264 120 -25 -4 -82 -10 -126 -14 -156
-16 -242 -93 -252 -226 -3 -35 -1 -78 5 -94 10 -30 10 -30 -51 -54 -74 -30
-120 -44 -168 -52 -41 -7 -89 -40 -89 -61 0 -22 39 -53 99 -81 54 -24 83 -31
153 -33 33 -1 39 -6 67 -55 17 -29 31 -60 31 -67 0 -8 7 -27 16 -44 11 -19 17
-56 18 -100 1 -107 -40 -193 -155 -320 -49 -55 -98 -116 -109 -136 -92 -175
-79 -343 35 -452 25 -24 45 -53 45 -64 0 -11 7 -26 15 -33 8 -7 15 -22 15 -34
1 -11 7 -32 15 -46 8 -14 14 -33 15 -42 0 -19 -33 -58 -50 -58 -5 0 -10 -6
-10 -13 0 -9 19 -13 68 -12 l67 0 3 -32 c2 -18 7 -33 12 -33 4 0 32 47 60 104
40 80 55 103 69 99 25 -6 102 -150 108 -204 5 -38 2 -49 -16 -66 -24 -22 -101
-56 -101 -44 0 4 15 12 33 19 56 20 80 49 74 91 -6 42 -87 192 -102 188 -5 -1
-31 -45 -58 -97 -33 -66 -53 -96 -67 -98 -16 -3 -20 2 -20 27 0 36 -26 47 -88
38 -20 -3 -46 -1 -57 3 -11 5 -14 9 -7 9 7 1 10 6 7 11 -3 6 2 13 11 17 22 8
54 40 54 53 0 10 -25 69 -46 112 -8 14 -14 32 -14 38 0 7 -22 34 -49 61 -27
27 -52 59 -56 71 -4 13 -13 38 -22 56 -11 25 -14 58 -11 125 6 136 41 212 160
342 98 108 157 212 166 293 5 50 -25 150 -70 230 -25 45 -34 52 -61 53 -67 2
-102 10 -142 29 -23 11 -46 20 -51 20 -18 1 -53 38 -60 64 -9 36 15 61 74 75
99 25 129 35 175 56 l49 22 2 95 c1 87 4 99 32 144 42 68 118 106 231 114 45
3 85 8 89 13 18 17 98 6 171 -25z m-132 -252 c78 -20 131 -40 143 -54 8 -10
12 -51 12 -115 0 -103 -1 -106 -68 -257 -38 -86 -22 -238 34 -327 49 -77 239
-210 323 -227 9 -2 23 -5 31 -8 8 -3 42 -11 75 -18 94 -18 95 -19 95 -49 0
-35 -23 -55 -82 -71 -27 -7 -48 -18 -48 -26 0 -17 45 -40 112 -58 29 -8 44
-15 33 -15 -28 -1 -109 25 -138 44 -37 24 -25 49 31 64 53 14 82 36 82 62 0
19 -27 29 -126 48 -105 21 -196 63 -294 139 -85 65 -125 122 -145 208 -29 122
-20 187 49 336 23 49 26 70 26 157 0 118 0 118 -120 149 -93 24 -221 23 -266
-1 -55 -28 -94 -130 -101 -259 -4 -73 -3 -80 29 -135 37 -65 53 -108 63 -170
7 -43 -15 -119 -67 -230 -16 -34 -163 -217 -189 -233 -4 -3 -24 -41 -44 -84
-31 -67 -36 -90 -37 -150 0 -95 24 -148 101 -224 59 -57 92 -75 186 -100 55
-15 224 -34 235 -27 5 3 42 8 82 12 41 3 110 18 158 35 143 50 197 61 228 49
15 -5 41 -11 57 -13 28 -3 30 -1 28 27 -1 17 0 23 3 15 4 -8 13 -20 20 -26 8
-6 12 -19 8 -28 -7 -18 -29 -21 -39 -6 -3 5 -17 10 -31 10 -14 0 -35 5 -46 11
-16 9 -35 8 -77 -1 -31 -8 -60 -16 -66 -20 -26 -18 -187 -60 -248 -64 -37 -3
-72 -8 -77 -11 -22 -14 -220 19 -324 54 -57 19 -172 126 -182 169 -4 15 -11
32 -16 39 -12 15 -12 180 0 196 5 7 19 38 32 70 13 32 29 65 37 73 60 59 178
206 193 239 57 124 71 174 64 222 -6 43 -38 120 -80 193 -10 18 -13 48 -11
105 7 141 47 245 106 274 38 18 184 22 246 7z m339 -195 c29 -24 73 -94 78
-124 4 -20 2 -25 -5 -18 -6 6 -18 11 -27 11 -20 0 -133 97 -138 117 -2 8 7 29
19 48 l23 33 16 -26 c9 -15 25 -33 34 -41z m-725 -3 c-4 -17 -11 -33 -13 -36
-3 -2 -1 -13 5 -24 6 -10 7 -28 4 -39 -6 -17 -13 -19 -75 -14 -41 3 -90 15
-124 30 -48 21 -57 29 -54 48 2 18 13 24 63 35 33 8 67 16 75 19 94 37 105 39
117 25 7 -9 8 -23 2 -44z m1408 -872 c3 -3 -69 -3 -160 0 l-165 5 -17 -35
c-11 -23 -29 -39 -52 -49 l-36 -14 59 -14 c56 -13 59 -16 62 -47 4 -39 -13
-62 -75 -102 l-42 -27 28 -24 c28 -24 28 -24 67 -7 24 11 64 18 107 18 37 0
67 3 67 7 0 4 -11 19 -25 33 -38 40 -25 64 31 55 41 -6 105 14 104 33 -1 4
-24 18 -53 32 -41 20 -52 30 -52 48 0 21 10 27 74 48 40 14 75 23 78 20 3 -2
-17 -11 -44 -19 -120 -37 -127 -52 -40 -93 28 -12 52 -30 53 -38 3 -22 -71
-49 -117 -41 -51 9 -56 -7 -14 -44 20 -17 30 -31 23 -31 -9 0 -9 -3 2 -10 10
-7 -11 -10 -68 -10 -59 0 -92 -5 -115 -17 -46 -24 -54 -24 -87 5 -36 32 -38
45 -6 60 44 20 96 73 96 98 0 27 -19 39 -77 49 -51 8 -55 26 -10 43 20 7 39
25 51 47 l20 36 164 -5 c90 -2 166 -7 169 -10z m-17 -119 c63 -31 64 -56 6
-96 -24 -17 -54 -31 -65 -31 -27 0 -27 -26 -1 -42 11 -7 20 -23 20 -35 0 -30
-30 -37 -110 -24 -44 7 -76 7 -107 0 -47 -12 -49 -15 -28 -43 19 -25 19 -50 0
-66 -14 -12 -31 -14 -119 -19 -22 -1 -26 -4 -17 -14 8 -10 7 -18 -2 -31 -11
-15 -24 -17 -73 -13 -32 2 -78 10 -102 16 -39 10 -53 8 -166 -29 -67 -22 -132
-40 -143 -40 -11 0 -35 -5 -53 -11 l-32 -12 4 -86 c3 -47 13 -106 23 -131 9
-25 24 -80 33 -122 l17 -78 55 -2 c30 -1 64 -1 75 0 89 5 527 3 555 -2 68 -14
100 -28 110 -47 9 -16 6 -16 -25 5 -56 39 -97 41 -610 35 -130 -1 -153 -4
-174 -20 -34 -27 -50 -24 -93 18 -35 35 -40 36 -68 26 -17 -6 -30 -8 -30 -3 0
10 26 20 53 20 12 0 38 -17 59 -37 33 -32 40 -35 61 -26 23 11 24 14 15 68 -5
32 -20 89 -34 129 -18 49 -28 100 -31 167 l-5 95 39 12 c22 7 49 12 61 12 11
0 64 16 118 35 115 41 166 48 213 29 44 -18 125 -18 140 0 9 11 8 15 -5 20
-33 12 3 29 66 30 77 3 102 22 77 60 -27 40 -21 52 32 64 35 8 67 8 111 1 91
-14 124 2 81 39 -30 26 -31 56 -1 60 32 5 112 61 108 75 -2 7 -29 24 -59 39
-29 15 -47 27 -39 27 8 0 35 -10 60 -22z m-1036 -499 c3 -13 6 -42 6 -65 0
-66 22 -158 51 -215 5 -10 9 -36 9 -58 0 -45 -9 -49 -62 -26 -18 8 -45 17 -60
21 -36 7 -36 34 -2 66 23 21 25 30 21 69 -5 40 -63 170 -87 194 -21 21 3 36
60 36 51 0 58 -2 64 -22z m-156 -338 c13 0 20 -4 17 -10 -3 -5 0 -10 7 -10 7
0 -7 -13 -32 -30 -50 -32 -51 -32 -345 -31 -228 1 -325 -14 -325 -50 0 -43
162 -59 605 -59 870 0 1078 4 1114 23 35 18 52 18 29 0 -37 -29 -119 -33 -665
-34 -698 0 -702 0 -853 7 -132 6 -206 18 -227 36 -17 14 -17 43 0 57 23 19
148 30 323 30 267 -1 285 0 321 22 38 24 42 36 11 41 -12 2 -23 10 -26 18 -4
12 -2 13 9 3 7 -7 24 -13 37 -13z"/>
<path d="M2005 2217 c-27 -10 -79 -26 -114 -36 -36 -9 -66 -21 -68 -28 -13
-37 219 -94 233 -58 4 8 1 22 -6 30 -10 12 -10 21 -2 38 32 67 22 79 -43 54z"/>
<path d="M2310 696 c0 -8 4 -17 9 -21 20 -12 72 -136 78 -184 5 -47 3 -55 -22
-81 -31 -32 -26 -50 14 -50 15 0 31 -4 37 -9 5 -5 19 -12 32 -16 20 -6 22 -3
22 28 0 19 -7 48 -16 66 -20 40 -44 153 -44 208 0 66 -6 73 -61 73 -36 0 -49
-4 -49 -14z"/>
</g>
</svg>
