<?xml version="1.0" standalone="no"?>
<!DOCTYPE svg PUBLIC "-//W3C//DTD SVG 20010904//EN"
 "http://www.w3.org/TR/2001/REC-SVG-20010904/DTD/svg10.dtd">
<svg version="1.0" xmlns="http://www.w3.org/2000/svg"
 width="498.000000pt" height="278.000000pt" viewBox="0 0 498.000000 278.000000"
 preserveAspectRatio="xMidYMid meet">
<metadata>
Created by potrace 1.16, written by Peter Selinger 2001-2019
</metadata>
<g transform="translate(0.000000,278.000000) scale(0.100000,-0.100000)"
fill="#000000" stroke="none">
<path d="M0 1390 l0 -1390 2490 0 2490 0 0 1390 0 1390 -2490 0 -2490 0 0
-1390z m2532 1036 c24 -8 60 -17 80 -20 27 -5 54 -23 98 -64 l60 -58 0 -102 0
-102 38 -43 c85 -94 100 -133 60 -161 -28 -20 -83 -20 -138 -1 -44 16 -60 13
-60 -10 0 -8 -16 -46 -36 -85 -38 -77 -64 -152 -64 -188 0 -13 18 -54 39 -90
55 -94 120 -152 170 -152 26 0 171 62 209 89 42 29 72 27 102 -9 24 -29 27
-30 65 -19 22 6 70 26 107 45 66 33 67 33 90 15 29 -24 29 -83 -1 -141 l-21
-41 41 3 c25 1 43 -3 49 -12 11 -18 -15 -89 -45 -120 -26 -27 -23 -40 13 -59
58 -31 -11 -110 -171 -195 -37 -20 -74 -36 -83 -36 -8 0 20 18 62 41 143 75
219 144 194 175 -7 8 -18 14 -25 14 -7 0 -18 6 -24 14 -10 11 -6 21 19 49 16
19 37 51 45 70 18 43 9 52 -47 48 -41 -3 -51 15 -24 42 12 11 36 77 36 98 0 4
-9 18 -20 32 l-20 25 -52 -28 c-29 -16 -80 -36 -112 -45 l-60 -17 -25 31 c-31
37 -43 38 -82 10 -39 -28 -188 -89 -217 -89 -39 0 -86 25 -124 68 -42 47 -98
151 -98 183 0 35 29 124 65 198 19 39 37 82 41 95 l6 25 49 -20 c63 -24 110
-24 140 0 29 24 22 43 -50 124 l-51 58 0 104 0 103 -62 56 c-34 31 -74 59 -88
62 -14 3 -49 12 -79 21 -87 26 -193 14 -286 -32 -42 -21 -97 -58 -124 -84 -48
-46 -48 -46 -54 -126 -3 -44 -2 -97 2 -117 9 -37 8 -38 -40 -68 -52 -31 -146
-73 -191 -84 -34 -8 -46 -41 -23 -66 38 -42 79 -52 190 -44 l104 7 31 -64 c29
-61 53 -157 52 -211 -2 -61 -83 -183 -143 -214 -55 -28 -172 -156 -208 -226
-79 -157 -40 -343 92 -439 26 -19 34 -29 23 -29 -10 0 -41 24 -71 54 -60 59
-83 115 -92 224 -12 132 61 278 188 378 130 102 201 193 201 257 0 50 -22 139
-50 194 l-28 58 -115 0 c-88 0 -121 4 -145 17 -45 25 -57 43 -49 77 5 23 13
31 37 36 41 9 112 41 176 79 53 31 54 31 48 71 -3 23 -1 78 3 124 10 93 19
108 107 166 46 31 127 66 179 78 44 10 147 6 187 -7z m8 -295 c62 -21 88 -35
97 -52 27 -52 8 -193 -36 -273 -33 -57 -60 -135 -67 -189 -6 -40 -2 -57 24
-110 40 -82 127 -170 184 -189 50 -16 83 -6 222 63 43 21 82 36 87 33 16 -10
9 -108 -10 -149 -20 -42 -111 -148 -111 -129 0 6 18 30 40 55 56 60 80 110 80
162 0 55 -6 61 -39 37 -15 -10 -71 -36 -125 -58 -97 -38 -98 -38 -144 -24 -26
9 -57 23 -69 32 -46 35 -114 126 -134 179 -19 49 -20 64 -11 116 5 34 27 97
47 140 49 102 64 156 65 226 0 74 -15 91 -113 123 -61 20 -98 26 -170 26 -127
0 -137 -8 -137 -104 0 -64 -2 -74 -19 -79 -23 -6 -31 10 -31 59 0 19 -4 34
-10 34 -6 0 -10 -47 -10 -122 0 -110 3 -129 25 -177 14 -29 34 -90 46 -134
l20 -81 -21 -66 c-26 -81 -82 -157 -137 -188 -65 -36 -166 -144 -203 -218 -54
-106 -51 -240 8 -324 52 -73 161 -140 228 -140 32 0 119 -34 215 -85 38 -21
61 -25 125 -25 75 1 84 3 164 47 47 25 127 67 179 94 52 27 101 55 110 62 9 8
32 20 51 27 39 15 130 78 130 90 0 4 -17 12 -37 18 -127 36 -138 51 -71 92 56
35 108 104 108 146 l0 33 -76 0 c-42 0 -78 2 -81 5 -3 3 33 5 81 5 l86 0 0
-43 c0 -52 -45 -117 -108 -156 -41 -25 -53 -40 -31 -40 6 0 25 -6 42 -14 18
-8 49 -20 69 -26 32 -10 36 -14 29 -29 -13 -22 -75 -66 -126 -87 -22 -9 -47
-22 -55 -29 -14 -12 -85 -51 -298 -162 -79 -41 -89 -43 -166 -43 -87 0 -80 -2
-269 91 -22 10 -54 19 -73 19 -70 0 -186 67 -233 136 -27 38 -51 130 -51 193
0 56 27 141 63 198 33 53 133 151 177 173 59 31 117 108 145 196 15 48 15 55
-4 132 -12 45 -31 98 -44 119 -19 32 -23 56 -26 156 -3 128 4 200 20 176 7
-12 9 -12 10 1 1 8 5 -9 8 -39 9 -86 30 -76 33 16 3 71 5 78 28 90 15 8 64 13
120 13 78 0 110 -5 180 -29z m242 -118 c39 -42 58 -73 58 -97 0 -23 -71 -21
-117 4 -40 21 -52 53 -30 79 8 9 17 24 20 34 10 26 30 21 69 -20z m-672 -84
c0 -87 -1 -90 -26 -99 -14 -6 -31 -9 -38 -8 -6 1 -31 -1 -56 -5 -86 -14 -200
50 -121 68 71 15 221 108 221 136 0 6 5 7 10 4 6 -3 10 -47 10 -96z m1200
-594 c-12 -19 -35 -44 -51 -56 -16 -11 -27 -25 -24 -30 4 -5 31 -9 61 -9 31 0
54 -4 54 -11 0 -5 5 -7 11 -3 17 10 -17 -49 -40 -70 -28 -26 -26 -50 5 -73 23
-17 25 -23 15 -41 -25 -47 -223 -153 -281 -151 l-35 2 40 6 c59 11 230 104
264 144 10 13 8 18 -13 32 -35 23 -33 59 4 102 17 19 28 38 25 44 -4 5 -30 9
-60 9 -67 0 -78 19 -34 60 42 38 69 80 69 108 0 27 1 27 -52 3 -24 -11 -61
-24 -83 -30 -22 -6 -49 -13 -61 -16 -16 -4 -24 -19 -33 -61 -12 -54 -68 -134
-93 -134 -6 0 8 20 30 44 37 40 62 95 62 138 0 11 10 20 28 23 52 11 107 29
157 52 l50 23 3 -35 c2 -23 -4 -48 -18 -70z m-162 -509 c2 -15 -2 -34 -8 -42
-31 -36 -148 -105 -327 -192 -34 -16 -75 -39 -90 -49 -57 -40 -150 -81 -196
-88 -26 -4 -50 -11 -53 -16 -9 -16 -23 -117 -18 -136 5 -17 20 -18 275 -16
148 0 275 3 282 6 27 10 264 -11 293 -26 48 -25 57 -41 37 -65 -33 -37 -93
-42 -500 -40 l-388 2 410 6 c226 3 419 9 430 14 11 5 28 16 38 24 16 14 15 17
-19 40 -32 21 -52 25 -163 32 -69 4 -130 5 -135 2 -5 -2 -129 -4 -277 -4
l-268 2 -6 -33 c-3 -17 -7 -41 -9 -52 -2 -14 -11 -21 -32 -22 l-29 -2 30 9
c17 4 24 8 16 9 -10 1 -11 4 -2 15 7 8 12 30 12 48 -2 105 0 146 7 173 7 26
14 31 58 38 47 7 139 49 197 90 15 10 56 33 90 49 180 87 256 131 315 182 22
20 30 56 12 56 -5 0 -10 5 -10 11 0 23 25 1 28 -25z m-922 -292 c78 -38 85
-49 87 -143 2 -62 -2 -84 -14 -96 -14 -14 -57 -17 -335 -18 -287 -2 -323 -4
-347 -20 -15 -9 -27 -22 -27 -27 0 -23 62 -47 128 -50 37 -1 141 -6 232 -10
160 -8 159 -8 -50 -4 -232 5 -245 6 -287 26 -39 19 -38 58 2 78 24 12 89 15
344 17 368 2 347 -5 344 105 -2 82 -11 95 -89 133 l-54 26 -27 -19 c-34 -24
-160 -156 -189 -197 -20 -28 -22 -28 -55 -16 -19 7 -76 34 -126 59 -83 41 -93
49 -92 71 2 22 2 23 6 5 3 -16 35 -37 121 -79 l116 -58 20 29 c37 53 204 214
221 214 10 0 42 -12 71 -26z"/>
<path d="M2087 1993 c-8 -22 -155 -104 -211 -117 -21 -5 -26 -10 -18 -18 22
-22 87 -38 126 -32 21 3 51 7 67 8 44 3 50 16 47 102 -2 53 -6 72 -11 57z"/>
</g>
</svg>
