<?xml version="1.0" standalone="no"?>
<!DOCTYPE svg PUBLIC "-//W3C//DTD SVG 20010904//EN"
 "http://www.w3.org/TR/2001/REC-SVG-20010904/DTD/svg10.dtd">
<svg version="1.0" xmlns="http://www.w3.org/2000/svg"
 width="498.000000pt" height="278.000000pt" viewBox="0 0 498.000000 278.000000"
 preserveAspectRatio="xMidYMid meet">
<metadata>
Created by potrace 1.16, written by Peter Selinger 2001-2019
</metadata>
<g transform="translate(0.000000,278.000000) scale(0.100000,-0.100000)"
fill="#000000" stroke="none">
<path d="M0 1390 l0 -1390 2490 0 2490 0 0 1390 0 1390 -2490 0 -2490 0 0
-1390z m2613 1214 c68 -27 112 -62 149 -118 25 -37 28 -50 28 -126 l0 -85 60
-62 c63 -67 92 -130 74 -161 -31 -51 -172 -79 -234 -47 -26 13 -30 13 -44 -1
-9 -8 -16 -24 -16 -35 0 -11 -4 -27 -9 -37 -31 -61 -39 -180 -17 -234 22 -52
89 -133 138 -166 84 -56 180 -84 315 -89 109 -5 127 -3 166 15 23 11 57 22 74
25 30 5 34 2 54 -39 25 -53 20 -96 -17 -155 -30 -48 -30 -49 4 -49 71 0 91
-25 77 -97 -7 -40 -74 -113 -103 -113 -10 0 -6 -8 12 -25 70 -65 -17 -164
-163 -185 -41 -6 -77 -12 -79 -15 -3 -2 -13 0 -22 5 -14 7 -44 -3 -124 -40
-58 -28 -120 -53 -136 -57 -35 -7 -38 -23 -15 -109 21 -83 52 -141 88 -166 57
-40 107 -92 107 -111 0 -20 -18 -20 -92 -2 -37 10 -64 -1 -49 -18 14 -18 80
-23 201 -16 84 5 238 -9 269 -25 71 -37 56 -77 -36 -94 -71 -14 -1322 -16
-1507 -2 -140 9 -189 27 -184 63 6 43 46 51 293 54 127 2 234 8 239 13 13 13
-22 50 -48 50 -12 0 -36 -9 -54 -20 -39 -24 -58 -25 -66 -5 -6 17 26 55 47 55
18 0 48 34 86 96 24 39 32 66 36 121 8 100 -10 141 -74 170 -69 31 -106 66
-147 136 -65 110 -78 177 -54 277 20 87 68 169 146 248 98 99 140 164 165 252
17 58 20 92 16 150 -5 71 -32 180 -46 180 -109 8 -150 14 -180 29 -20 10 -52
24 -72 30 -44 14 -69 39 -65 66 2 15 31 32 107 67 57 25 111 47 120 47 30 2
52 37 45 74 -4 20 2 61 14 107 12 41 22 81 23 87 2 7 14 24 27 38 72 77 336
104 473 49z"/>
<path d="M2355 2620 c-107 -8 -194 -46 -222 -98 -30 -53 -54 -160 -46 -205 6
-39 -15 -77 -43 -77 -25 0 -222 -91 -228 -105 -7 -19 24 -43 85 -66 30 -12 59
-25 64 -29 9 -7 88 -17 161 -20 21 0 49 -122 49 -215 0 -154 -48 -261 -171
-377 -100 -94 -168 -232 -166 -336 1 -46 18 -107 37 -132 7 -8 24 -36 38 -61
31 -55 68 -88 133 -121 69 -34 79 -55 78 -164 -1 -88 -3 -95 -39 -153 -20 -34
-48 -68 -61 -76 -13 -8 -36 -22 -50 -31 -42 -26 -14 -39 30 -15 51 29 91 27
113 -5 33 -51 21 -54 -238 -57 -204 -2 -239 -5 -262 -20 -62 -40 -14 -66 147
-77 174 -13 1449 -11 1506 1 24 6 53 17 62 26 17 15 16 17 -16 40 -27 18 -55
25 -128 30 -51 4 -118 6 -148 4 -132 -8 -199 -2 -209 18 -20 40 16 52 90 29
22 -6 42 -8 46 -4 4 4 -15 27 -42 52 -117 104 -108 89 -156 248 -5 16 -9 44
-9 62 0 28 4 34 21 34 11 0 74 25 140 55 93 44 123 53 138 46 10 -6 20 -8 23
-6 2 3 35 9 73 14 95 14 185 77 185 131 0 5 -11 21 -25 36 -27 29 -32 44 -14
44 18 0 80 52 95 81 32 63 9 109 -56 109 -21 0 -40 5 -42 12 -3 7 9 33 26 58
40 59 43 118 6 154 l-25 25 -60 -25 c-56 -23 -69 -25 -185 -21 -113 4 -134 8
-218 40 -108 41 -148 69 -201 140 -76 102 -79 170 -19 366 15 50 35 58 79 35
71 -36 219 8 219 66 0 22 -52 102 -82 126 -48 39 -58 63 -58 150 0 72 -3 85
-27 121 -79 116 -193 157 -398 143z m102 -45 c8 -40 6 -96 -4 -106 -5 -5 -59
-8 -124 -7 l-114 3 -3 42 c-2 33 1 44 20 57 12 9 36 16 53 17 16 0 39 4 50 9
11 5 42 8 69 7 40 -2 50 -6 53 -22z m158 -20 c39 -18 82 -46 96 -62 31 -33 55
-94 46 -117 -8 -21 -37 -32 -46 -19 -12 20 -155 83 -188 83 l-33 0 0 81 0 81
28 -6 c15 -4 59 -22 97 -41z m-85 -195 c36 -11 80 -29 98 -40 27 -17 32 -26
32 -57 0 -21 -10 -72 -21 -113 -60 -220 -70 -260 -78 -319 -11 -73 -2 -148 22
-184 46 -71 130 -146 200 -180 102 -49 141 -57 275 -60 65 -2 123 -6 130 -11
24 -14 13 -54 -22 -81 -39 -29 -38 -55 0 -55 31 0 39 -20 24 -64 -12 -37 -64
-90 -99 -101 -34 -11 -24 -22 25 -30 64 -9 74 -14 74 -37 0 -25 -62 -111 -100
-138 -15 -11 -51 -26 -80 -33 -29 -8 -60 -23 -69 -34 -9 -12 -47 -33 -85 -48
-86 -34 -225 -40 -290 -12 -44 19 -67 21 -110 8 -94 -29 -136 -33 -213 -21
-167 25 -248 68 -307 162 -71 114 -81 201 -36 319 27 71 63 122 148 206 80 80
133 175 152 273 13 66 4 211 -16 259 -20 47 -12 61 34 61 29 0 45 7 65 28 15
15 27 32 27 37 0 5 -14 21 -32 35 -25 21 -32 35 -32 63 0 21 6 43 12 49 10 10
10 6 1 -20 -9 -26 -8 -37 5 -57 9 -13 25 -29 36 -35 50 -27 -4 -110 -71 -110
-21 0 -40 -4 -43 -9 -3 -5 1 -26 10 -47 25 -59 25 -242 0 -314 -34 -99 -67
-152 -139 -224 -127 -126 -171 -209 -171 -327 -1 -73 1 -78 47 -155 73 -120
140 -159 312 -183 66 -10 97 -10 118 -2 16 6 41 11 57 11 16 0 32 5 35 10 10
16 83 12 118 -7 42 -22 198 -23 248 -1 19 9 48 21 65 28 18 6 41 22 53 36 11
13 31 24 43 24 44 0 109 42 154 99 24 31 44 61 44 68 0 13 -60 33 -97 33 -34
0 -30 35 6 50 36 15 76 56 90 93 13 33 7 47 -19 47 -10 0 -26 10 -34 21 -14
21 -13 24 25 51 21 15 39 35 39 43 0 22 -48 38 -100 32 -61 -7 -198 9 -246 29
-107 44 -147 70 -205 133 -33 36 -68 82 -76 101 -22 51 -19 179 6 270 98 355
98 352 36 387 -87 49 -241 73 -342 53 -72 -14 -100 -27 -106 -51 -6 -23 6 -31
47 -34 18 -1 41 -7 51 -14 18 -11 18 -12 -5 -6 -14 4 -40 9 -59 10 -18 2 -37
9 -41 15 -11 17 0 53 19 65 58 37 245 39 361 5z m-337 -119 c19 -8 25 -18 29
-54 3 -24 12 -58 20 -74 25 -50 18 -53 -129 -53 -126 0 -139 2 -194 27 -32 15
-59 32 -59 38 0 12 127 75 152 75 7 1 33 12 58 25 48 26 84 30 123 16z m629
-58 c51 -50 73 -98 55 -121 -15 -19 -75 -42 -110 -42 -42 0 -116 45 -112 67 2
10 4 21 4 24 1 3 12 18 26 33 13 14 26 36 27 49 9 60 42 57 110 -10z m-283
-1438 c32 -16 74 -63 97 -108 32 -61 55 -166 48 -220 -6 -54 -43 -120 -72
-132 -15 -6 -69 -7 -232 -4 -30 0 -61 -1 -69 -3 -16 -3 -47 49 -75 127 -18 49
-18 53 3 150 37 174 28 159 102 166 65 7 136 23 146 33 10 9 22 7 52 -9z
m-300 -30 c2 -3 -1 -22 -7 -44 -7 -21 -12 -56 -12 -78 0 -21 -5 -44 -11 -50
-7 -7 -12 -45 -13 -86 -1 -56 -5 -78 -18 -91 -10 -10 -18 -14 -18 -9 0 5 -16
15 -35 22 -40 14 -43 30 -14 70 28 38 53 163 45 230 l-6 54 42 -7 c23 -4 44
-9 47 -11z"/>
<path d="M2335 2580 c-11 -5 -34 -9 -51 -9 -39 -1 -66 -30 -62 -68 l3 -28 108
-3 c106 -3 107 -2 117 22 5 15 5 38 -1 60 -9 34 -12 36 -52 35 -23 0 -51 -4
-62 -9z"/>
<path d="M2500 2521 l0 -71 32 0 c30 0 175 -64 189 -83 3 -4 11 -1 18 7 10 12
11 23 2 48 -13 38 -78 108 -100 108 -8 0 -22 6 -30 14 -9 7 -29 18 -46 24 -16
5 -38 13 -47 17 -16 6 -18 0 -18 -64z"/>
<path d="M2084 2221 c-16 -10 -41 -22 -55 -26 -13 -4 -55 -21 -92 -38 l-69
-31 58 -28 c54 -26 66 -28 187 -28 119 0 129 1 122 18 -4 9 -8 25 -10 34 -2 9
-8 25 -13 35 -5 10 -8 28 -6 40 7 43 -65 57 -122 24z"/>
<path d="M2724 2193 c-4 -16 -18 -42 -31 -59 -29 -39 -29 -54 3 -78 36 -26 92
-30 134 -9 54 28 52 58 -9 121 -57 59 -87 67 -97 25z"/>
<path d="M2475 741 c-53 -22 -95 -31 -138 -31 -56 0 -55 2 -87 -148 -22 -107
-19 -136 21 -214 7 -13 15 -30 19 -38 5 -10 24 -16 56 -17 27 0 76 -2 109 -3
135 -4 143 -3 179 36 26 29 35 49 40 90 12 102 -48 248 -127 308 -36 28 -41
29 -72 17z"/>
<path d="M2164 648 c0 -95 -15 -168 -42 -206 -12 -16 -22 -32 -22 -35 0 -10
61 -29 75 -23 12 4 14 14 10 38 -3 18 -1 56 5 83 6 28 15 75 19 105 5 31 11
65 15 77 5 16 1 22 -16 27 -41 11 -43 8 -44 -66z"/>
</g>
</svg>
