<?xml version="1.0" standalone="no"?>
<!DOCTYPE svg PUBLIC "-//W3C//DTD SVG 20010904//EN"
 "http://www.w3.org/TR/2001/REC-SVG-20010904/DTD/svg10.dtd">
<svg version="1.0" xmlns="http://www.w3.org/2000/svg"
 width="498.000000pt" height="278.000000pt" viewBox="0 0 498.000000 278.000000"
 preserveAspectRatio="xMidYMid meet">
<metadata>
Created by potrace 1.16, written by Peter Selinger 2001-2019
</metadata>
<g transform="translate(0.000000,278.000000) scale(0.100000,-0.100000)"
fill="#000000" stroke="none">
<path d="M0 1390 l0 -1390 2490 0 2490 0 0 1390 0 1390 -2490 0 -2490 0 0
-1390z m2565 1152 c22 -9 68 -37 102 -64 52 -40 70 -48 104 -48 112 0 215
-154 166 -249 -12 -24 -62 -41 -172 -57 -89 -13 -124 -45 -110 -101 14 -57 16
-70 22 -179 l6 -111 -36 -74 c-19 -41 -46 -90 -59 -109 -40 -60 -49 -92 -49
-163 0 -82 13 -106 79 -148 70 -44 90 -40 175 39 40 37 89 78 109 92 29 19 41
38 58 90 35 108 93 154 157 123 58 -27 79 -111 52 -206 -11 -42 -6 -58 13 -39
20 20 58 13 83 -14 34 -36 41 -83 20 -128 -16 -34 -16 -36 4 -62 42 -53 28
-100 -61 -204 -35 -41 -72 -97 -83 -125 -29 -79 -146 -182 -238 -211 -12 -4
-46 -29 -75 -55 -50 -46 -162 -119 -182 -119 -16 0 -40 -44 -40 -71 0 -61 -16
-59 313 -58 326 0 383 -7 423 -53 l19 -22 -37 23 c-21 12 -52 27 -70 32 -18 5
-171 10 -340 9 l-307 0 -6 31 c-4 17 -4 46 -1 64 6 29 17 40 84 78 43 25 100
65 127 89 28 24 79 59 115 77 114 58 199 145 217 221 3 14 18 39 33 55 119
130 140 177 100 228 -24 31 -25 47 -3 84 19 35 13 66 -21 108 -23 29 -25 29
-61 16 -20 -7 -39 -10 -42 -7 -3 3 0 25 6 50 14 58 14 118 -1 151 -16 36 -72
69 -95 56 -45 -24 -98 -108 -106 -168 -2 -13 -24 -38 -53 -59 -27 -20 -74 -61
-105 -91 -68 -66 -106 -76 -172 -44 -65 31 -88 61 -96 123 -11 86 3 140 61
241 76 132 82 154 74 272 -3 55 -7 107 -9 115 -2 8 -7 30 -11 48 -9 38 7 87
32 97 10 4 40 11 67 15 164 28 195 44 195 101 0 47 -25 95 -75 144 -42 41 -52
45 -94 45 -42 0 -57 6 -115 50 -90 68 -128 83 -206 83 -82 0 -151 -21 -237
-71 -103 -60 -107 -67 -119 -225 -5 -67 -5 -68 32 -102 20 -19 40 -35 44 -35
10 0 5 -30 -16 -90 -14 -39 -34 -69 -74 -107 -30 -29 -64 -56 -75 -59 -11 -3
-55 -22 -97 -42 -53 -24 -78 -41 -78 -53 0 -31 15 -37 145 -54 22 -3 70 -13
107 -22 79 -19 88 -33 88 -128 0 -68 -4 -82 -53 -183 -31 -64 -70 -103 -167
-169 -63 -42 -132 -112 -124 -124 3 -6 21 5 43 26 20 21 56 51 81 68 131 89
198 166 231 268 20 62 21 95 7 231 -3 22 6 33 52 65 66 46 72 67 32 102 -17
14 -32 37 -34 51 -2 20 -10 26 -38 30 -32 5 -35 8 -33 35 0 17 11 51 23 78 22
50 36 56 87 36 39 -15 123 -28 218 -35 44 -3 84 -8 88 -11 21 -13 45 -97 52
-179 8 -107 -3 -160 -45 -208 -33 -37 -84 -159 -95 -224 -9 -59 11 -136 45
-170 33 -34 140 -92 168 -92 11 0 56 34 103 80 116 112 173 143 223 124 23 -9
21 -72 -4 -129 -23 -55 -20 -66 19 -59 22 5 32 0 50 -21 26 -34 26 -55 2 -104
-20 -38 -89 -107 -98 -97 -3 2 13 20 34 40 22 19 48 54 58 76 18 40 18 41 -2
68 -16 21 -28 26 -52 24 -42 -3 -47 15 -22 74 47 105 14 151 -71 101 -24 -14
-81 -62 -127 -106 -96 -94 -107 -96 -199 -50 -88 44 -116 75 -132 148 -11 53
-10 70 4 131 20 82 59 172 83 192 9 7 25 33 36 57 16 38 18 56 12 142 -4 55
-11 102 -16 105 -5 3 -9 13 -9 23 0 33 -32 49 -110 55 -92 7 -176 21 -213 35
-16 6 -34 11 -42 11 -15 0 -53 -72 -57 -110 -3 -21 2 -25 32 -30 28 -4 36 -10
38 -30 2 -14 17 -37 34 -51 46 -40 37 -74 -32 -122 -37 -26 -54 -44 -51 -55 9
-40 5 -220 -5 -233 -6 -8 -14 -27 -18 -44 -15 -62 -99 -153 -216 -232 -97 -66
-147 -134 -176 -238 -26 -96 -12 -148 71 -251 68 -87 87 -107 121 -130 48 -34
156 -87 194 -95 131 -27 153 -30 181 -20 16 5 86 13 155 17 124 7 126 7 187
47 78 50 107 76 107 98 0 12 14 20 47 28 150 38 290 188 257 275 -10 26 -43
40 -60 25 -10 -8 -18 -9 -25 -2 -10 10 1 13 50 14 69 2 67 -92 -4 -194 -26
-38 -122 -99 -185 -118 -55 -16 -68 -24 -77 -49 -7 -19 -36 -45 -86 -78 l-75
-49 -130 -7 c-72 -4 -144 -11 -161 -17 -21 -7 -46 -7 -88 1 -32 7 -76 16 -98
20 -68 13 -211 92 -252 139 -132 154 -164 223 -146 320 6 32 22 83 36 112 23
51 26 76 7 64 -18 -11 -58 -103 -70 -162 -18 -87 -2 -144 66 -239 59 -82 62
-93 38 -128 -18 -28 -32 -26 -128 18 -69 32 -100 29 -64 -6 30 -29 54 -69 53
-88 0 -8 -10 -19 -22 -25 -31 -13 -29 -22 7 -30 31 -7 38 -23 18 -43 -8 -8 -8
-15 -3 -21 6 -5 40 9 85 35 123 71 192 103 209 97 9 -4 27 -14 41 -23 68 -46
202 -74 314 -67 42 3 78 2 80 -1 2 -4 1 -25 -3 -47 -6 -36 -11 -41 -51 -57
-25 -9 -55 -17 -68 -17 -17 -1 -23 -6 -20 -18 5 -25 48 -43 110 -48 230 -18
208 -19 208 9 0 14 4 27 9 30 4 3 5 -9 2 -27 l-7 -32 -100 4 c-178 6 -239 22
-239 61 0 22 -605 22 -649 0 -39 -20 -42 -35 -11 -56 42 -28 253 -34 985 -32
620 3 678 4 709 20 41 22 47 22 32 4 -28 -34 -112 -37 -891 -33 -807 4 -836 6
-864 50 -15 23 2 48 40 60 16 6 181 12 368 13 305 4 342 6 381 23 34 15 43 25
47 50 2 17 0 32 -6 35 -6 2 -40 1 -76 -1 -89 -7 -219 20 -295 62 l-61 32 -59
-33 c-148 -82 -211 -111 -227 -105 -16 6 -16 9 -3 34 14 27 13 28 -15 34 -21
4 -30 11 -30 24 0 11 7 19 15 19 37 0 25 53 -21 97 -24 22 -23 53 1 53 7 0 45
-13 83 -30 85 -36 95 -37 111 -7 11 21 8 31 -42 99 -72 101 -86 163 -63 268
27 116 92 205 204 282 109 73 141 107 182 193 33 69 40 93 40 144 0 90 -11
107 -84 125 -33 9 -79 18 -101 21 -77 9 -136 22 -145 31 -4 5 -10 20 -12 33
-3 23 6 29 98 70 55 25 122 64 148 86 45 39 96 123 96 161 0 10 -18 35 -41 56
l-40 38 6 77 c7 100 19 159 35 178 7 9 43 33 79 54 134 77 259 95 366 53z m73
-96 c37 -33 93 -141 88 -168 -20 -100 -51 -114 -84 -38 -12 28 -47 76 -77 107
-69 72 -72 112 -10 125 30 6 57 -2 83 -26z m-277 -22 c29 -26 23 -52 -21 -100
-22 -23 -49 -63 -61 -88 -23 -50 -47 -59 -87 -30 -17 12 -22 25 -22 63 0 26
-7 56 -15 67 -21 28 -18 57 8 81 29 28 50 33 120 28 38 -2 65 -10 78 -21z
m466 -50 c48 -36 73 -81 73 -131 0 -47 -6 -52 -70 -71 -94 -26 -110 -27 -110
-4 0 11 5 24 10 27 6 3 10 17 10 30 0 13 5 27 10 30 15 9 12 85 -5 101 -8 8
-12 21 -9 29 9 23 54 18 91 -11z m-276 -52 c30 -32 60 -75 67 -96 13 -36 13
-39 -14 -67 -27 -28 -30 -29 -130 -29 -58 0 -106 4 -109 10 -3 6 -22 10 -41
10 -20 0 -37 6 -40 14 -8 21 33 94 90 158 44 51 55 58 87 58 32 0 44 -8 90
-58z m-341 -438 c6 -15 22 -35 35 -46 30 -23 21 -50 -22 -67 -16 -6 -43 -22
-60 -35 -36 -26 -72 -26 -151 0 -23 8 -65 13 -92 12 -64 -3 -84 14 -42 36 17
9 44 16 61 16 20 0 49 16 98 55 60 48 73 54 116 55 42 0 49 -3 57 -26z m1050
-634 c0 -22 -17 -55 -54 -103 -30 -39 -29 -60 2 -41 11 7 26 8 41 3 21 -8 22
-13 16 -46 -7 -36 -41 -88 -84 -127 -12 -11 -21 -15 -21 -10 0 5 -5 2 -10 -6
-8 -13 -10 -13 -10 1 0 9 -9 24 -19 33 -16 14 -18 23 -10 49 5 17 13 35 19 41
15 15 12 83 -4 114 -8 15 -27 34 -43 42 -15 8 -29 15 -31 16 -1 1 0 8 3 16 4
9 15 13 29 11 16 -3 33 5 56 26 18 16 45 32 59 33 29 4 61 -23 61 -52z"/>
<path d="M2548 2456 c-37 -19 -32 -38 26 -98 30 -31 65 -79 77 -107 12 -28 25
-51 29 -51 7 0 18 25 34 73 12 37 -80 178 -123 190 -11 2 -30 -1 -43 -7z"/>
<path d="M2205 2431 c-11 -5 -28 -18 -39 -30 -17 -19 -18 -22 -2 -55 9 -19 16
-52 16 -74 0 -31 5 -45 22 -56 34 -24 44 -20 67 30 12 25 40 65 63 90 46 49
45 67 -3 91 -27 14 -94 16 -124 4z"/>
<path d="M2745 2380 c-3 -6 1 -13 9 -16 12 -5 16 -20 16 -59 0 -30 -4 -57 -10
-60 -5 -3 -10 -16 -10 -29 0 -12 -5 -27 -12 -34 -22 -22 1 -25 59 -8 86 25 88
27 87 82 0 44 -4 51 -48 91 -47 42 -78 53 -91 33z"/>
<path d="M2380 2313 c-55 -62 -95 -127 -85 -143 3 -6 21 -10 40 -10 19 0 37
-4 40 -10 3 -6 48 -10 99 -10 88 0 93 1 119 28 l27 28 -24 49 c-37 71 -93 125
-132 125 -26 0 -41 -11 -84 -57z"/>
<path d="M2055 1850 c-36 -29 -74 -52 -95 -55 -43 -8 -92 -26 -86 -32 2 -3 36
-6 75 -8 39 -1 76 -7 83 -13 7 -5 31 -11 54 -13 40 -3 44 -1 150 68 18 12 18
13 -3 32 -13 10 -27 31 -33 45 -8 22 -16 26 -47 26 -30 -1 -50 -11 -98 -50z"/>
<path d="M3152 1260 c-22 -20 -44 -30 -65 -30 l-32 0 33 -17 c18 -9 40 -29 48
-46 18 -34 15 -104 -7 -155 -12 -30 -12 -34 10 -55 l22 -22 41 45 c74 82 75
123 4 114 -38 -6 -44 -4 -43 11 1 10 15 32 30 49 43 48 61 90 47 115 -15 30
-50 26 -88 -9z"/>
</g>
</svg>
