<?xml version="1.0" standalone="no"?>
<!DOCTYPE svg PUBLIC "-//W3C//DTD SVG 20010904//EN"
 "http://www.w3.org/TR/2001/REC-SVG-20010904/DTD/svg10.dtd">
<svg version="1.0" xmlns="http://www.w3.org/2000/svg"
 width="498.000000pt" height="278.000000pt" viewBox="0 0 498.000000 278.000000"
 preserveAspectRatio="xMidYMid meet">
<metadata>
Created by potrace 1.16, written by Peter Selinger 2001-2019
</metadata>
<g transform="translate(0.000000,278.000000) scale(0.100000,-0.100000)"
fill="#000000" stroke="none">
<path d="M0 1390 l0 -1390 2490 0 2490 0 0 1390 0 1390 -2490 0 -2490 0 0
-1390z m2598 1135 c38 -13 65 -31 100 -70 52 -57 72 -106 72 -179 0 -39 5 -51
26 -69 103 -85 118 -107 115 -162 -2 -34 -152 -125 -207 -125 -14 0 -26 -6
-28 -12 -2 -7 -8 -34 -15 -61 -6 -26 -19 -66 -30 -90 -34 -78 -41 -102 -46
-167 -11 -150 65 -293 182 -339 39 -16 50 -10 103 58 24 30 58 67 75 83 18 15
36 39 39 52 7 29 101 116 126 116 10 0 28 -9 41 -19 21 -17 24 -29 28 -105 l3
-85 30 15 c32 16 77 12 90 -9 23 -37 -14 -154 -52 -164 -9 -3 -11 -1 -4 4 23
18 54 82 54 111 0 54 -43 78 -84 47 -39 -30 -46 -20 -46 64 0 64 -4 83 -21
105 -11 14 -26 26 -34 26 -20 0 -114 -89 -121 -115 -3 -12 -25 -41 -50 -65
-24 -23 -58 -61 -75 -85 -38 -53 -66 -62 -122 -37 -89 40 -127 92 -161 217
-24 91 -14 178 34 297 22 54 40 107 40 117 0 34 12 51 35 51 33 0 92 27 152
69 88 61 83 78 -61 198 -22 18 -26 29 -26 77 0 36 -7 72 -21 101 -24 50 -109
135 -137 135 -10 0 -24 6 -31 13 -8 8 -46 12 -119 11 -138 -1 -195 -22 -284
-103 l-63 -58 -3 -117 -4 -117 37 -34 c20 -19 31 -35 25 -35 -6 0 -8 -4 -5
-10 3 -5 -2 -24 -11 -41 -9 -19 -14 -43 -10 -60 7 -36 5 -38 -123 -102 -58
-28 -111 -62 -118 -73 -12 -19 -11 -25 9 -48 20 -23 33 -27 96 -32 40 -3 85
-9 98 -14 14 -6 37 -10 52 -10 41 -1 61 -22 77 -84 20 -76 19 -97 -7 -175 -27
-79 -73 -128 -202 -215 -167 -114 -236 -227 -236 -386 0 -82 16 -124 64 -174
56 -57 103 -80 194 -97 56 -9 77 -18 88 -35 17 -26 29 -112 20 -148 -10 -39
-68 -77 -128 -85 -44 -5 -54 -10 -56 -28 -5 -37 29 -47 137 -39 150 12 161 13
176 26 20 17 19 5 -2 -20 -11 -12 -21 -16 -28 -10 -7 5 -36 5 -75 0 -91 -13
-171 -12 -200 3 -20 10 -24 19 -22 41 l4 29 -157 -6 c-119 -4 -162 -9 -180
-21 -33 -22 -32 -30 13 -58 l37 -23 805 0 c699 0 809 2 835 15 72 36 11 76
-137 90 -60 6 -131 7 -165 2 -33 -5 -69 -5 -79 -2 -12 5 0 8 31 8 27 1 61 4
75 7 39 9 234 -12 275 -29 63 -27 59 -68 -10 -92 -33 -11 -176 -13 -835 -11
-786 2 -795 2 -835 23 -30 16 -40 27 -40 45 0 44 40 52 259 56 214 4 235 9
276 60 19 24 21 37 17 86 -7 76 -23 92 -105 107 -94 17 -144 41 -196 94 -54
56 -71 116 -63 220 10 138 74 249 188 329 123 86 198 148 217 179 27 44 52
116 52 151 0 53 -29 133 -53 144 -35 17 -116 33 -192 38 -78 6 -107 25 -107
69 0 38 14 51 120 101 54 26 104 50 112 55 9 4 14 18 12 35 -2 14 3 43 10 63
17 51 16 54 -12 79 -24 21 -25 25 -25 153 l0 132 59 55 c92 85 176 114 316
109 41 -2 99 -11 128 -21z m-101 -370 c126 -63 170 -227 100 -375 -38 -82 -57
-152 -57 -212 0 -86 56 -243 101 -285 41 -38 118 -73 158 -73 40 0 45 4 134
115 23 27 36 35 62 35 56 0 68 -22 62 -110 -3 -47 -13 -91 -27 -118 -12 -24
-19 -46 -16 -49 3 -3 25 4 49 16 24 11 53 21 65 21 20 0 22 -5 22 -48 0 -35
-9 -66 -35 -117 -19 -37 -33 -70 -31 -72 2 -3 13 0 24 6 12 6 37 11 56 11 42
0 47 -18 18 -61 -30 -45 -140 -129 -210 -160 -37 -17 -75 -35 -85 -40 -9 -5
-37 -12 -62 -16 -35 -4 -55 -16 -98 -57 -56 -53 -143 -102 -234 -131 -126 -41
-279 1 -344 94 -18 25 -34 48 -36 50 -2 3 -25 4 -51 2 -59 -2 -122 19 -172 59
-85 67 -103 180 -53 324 24 68 36 86 88 135 34 31 97 82 140 113 94 66 133
105 169 172 35 63 42 125 23 205 -18 75 -16 82 21 99 41 18 117 87 141 127
l21 36 -29 16 c-15 9 -37 35 -47 57 l-19 41 -55 -2 c-30 0 -70 -4 -87 -8 -32
-7 -33 -6 -33 26 1 39 22 82 66 131 62 70 170 88 261 43z m-177 -215 c4 0 13
-13 20 -29 6 -16 20 -37 31 -47 10 -9 19 -26 19 -37 0 -22 -36 -67 -54 -67 -5
0 -22 -12 -37 -26 -26 -25 -34 -27 -109 -25 -50 1 -91 7 -103 16 -15 9 -43 12
-83 9 -69 -4 -98 12 -78 44 15 24 276 152 310 152 10 0 26 5 34 10 8 5 21 8
28 5 8 -3 17 -5 22 -5z m816 -574 c-6 -109 -5 -118 8 -95 17 29 99 75 116 64
19 -12 2 -72 -37 -131 -30 -46 -40 -54 -67 -54 -17 0 -41 -3 -53 -6 -21 -6
-23 -3 -23 30 0 23 7 43 20 56 19 19 21 35 23 155 1 82 5 127 11 118 4 -9 6
-70 2 -137z m161 -191 c17 -12 21 -24 19 -62 -2 -50 -13 -75 -57 -131 -21 -26
-25 -41 -20 -61 3 -14 6 -33 6 -41 -4 -73 -175 -216 -317 -264 -26 -8 -22 -26
13 -69 30 -36 30 -37 89 -30 46 4 65 2 85 -11 34 -22 32 -42 -7 -55 -44 -15
-68 -40 -68 -68 0 -45 -16 -60 -72 -67 -29 -4 -61 -14 -70 -23 -15 -13 -59
-15 -315 -15 l-298 1 -3 22 c-2 12 -1 36 2 54 l6 32 98 6 c56 3 114 12 137 21
71 30 146 70 162 88 9 10 26 18 39 18 47 0 149 -193 113 -215 -14 -9 -11 -25
5 -25 7 0 24 8 37 19 13 10 47 21 74 26 62 9 75 19 75 60 0 36 21 59 70 76
l33 12 -24 20 c-20 16 -33 18 -86 13 l-61 -6 -31 37 c-49 59 -43 72 57 120
141 68 269 201 243 252 -11 22 -6 47 16 78 31 44 63 107 63 126 0 33 -20 57
-48 57 -21 0 -24 2 -12 10 20 13 22 13 47 -5z"/>
<path d="M2312 2154 c-56 -25 -132 -123 -132 -170 0 -24 3 -26 28 -19 15 4 53
9 84 12 l57 5 23 -46 c12 -25 30 -48 40 -52 36 -11 41 -40 13 -84 -26 -41
-113 -116 -153 -131 -13 -5 -22 -15 -19 -22 15 -41 28 -137 23 -175 -7 -55
-48 -137 -89 -181 -18 -18 -68 -59 -112 -90 -44 -31 -108 -83 -143 -116 -52
-50 -66 -72 -87 -130 -34 -95 -34 -183 0 -240 46 -79 131 -127 220 -124 31 1
57 0 58 -2 2 -2 18 -25 36 -50 47 -67 131 -109 220 -109 112 0 248 60 342 150
39 38 58 48 92 52 63 7 206 78 279 138 58 49 98 94 98 113 0 11 -68 9 -75 -3
-10 -15 -45 -12 -45 5 0 8 16 43 35 78 24 44 35 77 35 105 0 49 -15 54 -68 22
-39 -24 -72 -26 -72 -5 0 9 10 35 21 58 27 51 38 169 19 192 -23 27 -65 18
-97 -21 -75 -95 -99 -114 -141 -114 -85 0 -178 61 -213 138 -76 169 -75 280 5
467 58 137 17 273 -103 338 -56 31 -124 35 -179 11z"/>
<path d="M2225 1916 c-33 -12 -69 -27 -80 -33 -11 -6 -51 -26 -90 -44 -93 -43
-125 -66 -119 -84 5 -11 21 -14 67 -11 39 2 72 -1 88 -10 14 -7 58 -14 98 -15
65 -2 74 0 99 24 16 15 33 27 38 27 13 0 54 43 54 56 0 6 -11 21 -25 34 -13
12 -22 26 -20 30 5 8 -32 50 -43 49 -4 -1 -34 -11 -67 -23z"/>
<path d="M2705 500 c-11 -18 -77 -55 -150 -84 -53 -22 -93 -30 -163 -34 -86
-4 -93 -6 -98 -27 -3 -13 -4 -33 -2 -45 3 -21 8 -22 81 -22 42 1 160 1 260 1
l184 1 11 25 c14 31 10 43 -45 128 -41 64 -64 80 -78 57z"/>
</g>
</svg>
