<?xml version="1.0" standalone="no"?>
<!DOCTYPE svg PUBLIC "-//W3C//DTD SVG 20010904//EN"
 "http://www.w3.org/TR/2001/REC-SVG-20010904/DTD/svg10.dtd">
<svg version="1.0" xmlns="http://www.w3.org/2000/svg"
 width="498.000000pt" height="278.000000pt" viewBox="0 0 498.000000 278.000000"
 preserveAspectRatio="xMidYMid meet">
<metadata>
Created by potrace 1.16, written by Peter Selinger 2001-2019
</metadata>
<g transform="translate(0.000000,278.000000) scale(0.100000,-0.100000)"
fill="#000000" stroke="none">
<path d="M0 1390 l0 -1390 2490 0 2490 0 0 1390 0 1390 -2490 0 -2490 0 0
-1390z m2531 1004 c74 -22 149 -66 182 -109 33 -42 60 -102 52 -115 -4 -6 -10
-34 -15 -63 -9 -59 -6 -68 53 -145 23 -30 41 -62 42 -73 3 -39 -86 -90 -177
-103 -25 -4 -51 -12 -56 -19 -19 -24 -52 -154 -55 -217 -7 -132 34 -209 139
-260 103 -50 167 -36 193 42 18 55 66 116 118 148 59 38 104 39 131 5 25 -32
36 -89 22 -115 -13 -25 -3 -47 13 -31 17 17 62 13 88 -8 30 -24 29 -77 -1
-128 -19 -33 -20 -37 -5 -46 24 -13 37 -55 25 -78 -12 -21 -74 -64 -127 -85
-52 -22 -39 -9 30 29 34 20 71 45 81 56 18 19 18 22 2 46 -9 14 -21 25 -26 25
-16 0 -12 19 16 77 l27 54 -20 27 c-22 30 -66 40 -89 21 -13 -10 -17 -10 -25
2 -5 8 -6 21 -2 29 23 51 -11 132 -59 138 -56 7 -180 -113 -195 -189 -18 -93
-220 -64 -299 44 -58 78 -64 205 -16 349 l27 83 60 11 c88 16 165 59 165 92 0
8 -18 38 -39 66 -22 28 -44 62 -49 76 -9 24 -1 118 13 140 3 5 -2 24 -11 42
-35 67 -76 106 -152 145 -71 36 -81 38 -161 37 -132 -1 -271 -57 -301 -122 -7
-15 -15 -63 -17 -107 -5 -72 -3 -82 16 -99 37 -33 27 -66 -41 -138 -43 -44
-76 -69 -103 -77 -22 -7 -54 -19 -72 -27 -17 -8 -36 -14 -41 -14 -17 0 -42
-30 -42 -51 0 -28 46 -67 94 -80 23 -7 96 -11 164 -10 l123 1 16 -37 c10 -22
17 -66 17 -103 1 -61 -10 -100 -52 -180 -5 -8 -51 -44 -104 -80 -139 -94 -162
-114 -211 -178 -63 -83 -71 -110 -71 -237 0 -171 30 -236 146 -310 46 -31 92
-51 129 -59 59 -12 99 -38 99 -64 0 -27 -42 -100 -64 -111 -39 -20 -108 -41
-136 -41 -16 0 -31 -6 -33 -12 -3 -8 -6 -5 -6 6 -1 18 -9 18 -152 13 -115 -5
-157 -10 -176 -22 -30 -20 -26 -34 16 -59 29 -17 64 -19 444 -23 227 -2 417
-6 422 -9 6 -2 -179 -2 -410 0 -351 3 -426 7 -456 20 -57 24 -62 67 -10 88 15
7 108 12 222 13 177 1 200 4 240 23 32 15 51 34 69 66 l24 45 -22 24 c-14 15
-43 27 -82 35 -76 16 -191 88 -224 140 -36 59 -51 128 -51 237 0 122 15 171
72 247 49 64 73 84 212 178 86 58 99 71 126 125 35 71 40 156 13 218 l-17 37
-113 -2 c-129 -2 -206 13 -242 47 -26 24 -34 68 -18 91 4 5 48 26 97 44 79 30
98 43 153 99 34 35 62 72 62 81 0 9 -10 25 -21 36 -20 17 -21 27 -16 109 2 50
10 102 17 117 15 32 69 70 125 88 22 7 45 16 50 19 6 4 28 9 50 10 22 2 42 5
44 7 10 10 92 3 142 -12z m87 -80 c18 -8 48 -35 67 -58 28 -34 35 -52 35 -85
0 -47 -16 -54 -46 -20 -10 12 -36 32 -56 45 -36 23 -38 27 -38 79 0 30 2 55 3
55 2 0 18 -7 35 -16z m-129 -86 c70 -22 137 -58 181 -97 41 -36 44 -41 29 -56
-14 -14 -22 -11 -99 40 -46 30 -95 58 -109 61 -82 19 -86 21 -89 42 -3 18 2
22 24 22 15 0 44 -5 63 -12z m34 -95 c76 -39 102 -138 72 -273 -10 -41 -21
-79 -26 -84 -5 -6 -9 -20 -9 -32 0 -13 -4 -25 -8 -28 -5 -3 -17 -49 -27 -102
-15 -78 -16 -107 -8 -153 11 -57 50 -126 95 -168 33 -31 110 -63 169 -70 28
-3 57 -12 65 -20 7 -8 33 -18 56 -23 l43 -9 -50 4 c-29 3 -53 11 -58 20 -4 8
-20 15 -35 15 -36 0 -119 23 -157 43 -68 35 -129 132 -140 221 -7 53 13 193
34 241 58 132 73 293 33 357 -31 50 -100 78 -191 78 -68 0 -73 -2 -112 -37
-36 -32 -89 -123 -89 -151 0 -14 36 -22 97 -22 76 0 83 -5 83 -59 0 -25 7 -55
15 -65 34 -46 15 -78 -70 -117 -27 -12 -51 -23 -52 -24 -2 -1 6 -25 17 -53 26
-68 25 -122 -2 -200 -30 -86 -67 -125 -202 -215 -164 -110 -214 -183 -223
-328 -8 -117 21 -215 81 -270 29 -28 120 -69 151 -69 29 0 58 -15 96 -48 41
-36 192 -62 370 -63 160 -1 183 4 248 61 18 17 40 30 47 30 21 0 145 84 180
121 22 24 33 48 37 78 3 24 19 66 36 93 19 30 31 63 31 84 0 40 -3 41 -37 14
-58 -46 -75 -10 -27 57 22 30 34 60 34 80 0 33 -14 51 -25 33 -3 -5 -15 -10
-25 -10 -10 0 -21 -6 -23 -12 -11 -26 -7 65 5 109 10 43 10 47 -12 65 -24 19
-94 25 -120 8 -11 -7 -9 -11 13 -19 15 -6 27 -15 27 -21 0 -11 -40 8 -52 25
-20 28 53 48 114 31 46 -13 52 -28 37 -101 -7 -35 -10 -68 -6 -71 4 -4 17 -3
29 3 36 16 48 5 48 -41 0 -34 -8 -53 -35 -89 -38 -49 -33 -69 8 -37 42 33 57
26 57 -24 0 -32 -9 -59 -35 -102 -22 -37 -35 -71 -35 -93 0 -29 -9 -43 -52
-85 -29 -28 -84 -67 -123 -86 -38 -19 -72 -37 -75 -40 -3 -3 -22 -19 -42 -34
-30 -22 -52 -29 -115 -35 -88 -9 -310 3 -363 19 -19 5 -47 10 -61 10 -16 0
-44 14 -69 35 -23 19 -54 38 -69 40 -50 11 -126 39 -157 58 -70 46 -109 160
-101 292 10 160 55 229 224 342 128 86 164 122 198 203 30 68 31 133 5 200
-11 28 -20 54 -20 58 0 4 20 15 45 25 85 35 116 77 80 107 -8 7 -15 34 -17 63
l-3 52 -83 6 c-45 4 -84 8 -86 10 -31 31 61 187 124 213 33 13 185 -1 223 -21z
m187 -118 c20 -12 97 -123 92 -131 -7 -10 -37 -28 -94 -54 -27 -13 -75 -17
-85 -7 -5 5 13 166 22 194 4 11 47 9 65 -2z m-505 -106 c45 -8 76 -14 98 -18
4 0 7 -9 7 -18 0 -10 9 -33 20 -51 12 -19 18 -42 15 -51 -3 -10 -35 -29 -76
-45 -64 -25 -84 -28 -198 -29 -105 0 -134 3 -169 19 -65 30 -55 51 46 93 47
19 101 51 125 72 45 41 55 43 132 28z m920 -491 c5 -18 -3 -46 -26 -94 -18
-38 -34 -63 -36 -56 -3 6 -9 10 -13 7 -5 -3 -36 2 -69 12 -52 16 -60 21 -55
38 13 44 64 101 114 128 51 26 53 27 66 9 7 -10 16 -30 19 -44z m45 -508 c0
-46 -7 -70 -35 -125 -20 -37 -35 -72 -34 -79 5 -41 -6 -62 -63 -116 -35 -33
-92 -75 -128 -94 -36 -20 -77 -46 -92 -59 -15 -13 -52 -32 -84 -43 -31 -10
-59 -26 -62 -34 -3 -8 -12 -23 -21 -33 -14 -17 -14 -20 3 -33 10 -7 23 -11 27
-8 13 8 499 7 554 -1 50 -8 99 -27 109 -44 15 -23 -13 -56 -56 -69 -61 -18
-761 -13 -779 5 -10 10 -6 11 22 3 19 -6 181 -10 373 -10 351 0 408 5 427 41
13 25 -32 54 -96 64 -77 11 -549 8 -553 -4 -5 -14 -52 18 -52 34 0 21 44 84
58 85 7 0 36 10 63 21 34 15 48 26 45 36 -3 8 -1 11 4 8 6 -4 22 3 36 14 15
12 31 21 36 21 33 0 217 154 219 182 2 52 10 80 38 130 23 42 31 69 31 107 0
28 -4 51 -10 51 -5 0 -10 4 -10 10 0 5 7 7 15 4 11 -5 15 -22 15 -64z m-737
-518 c67 -3 90 -8 94 -20 11 -26 -48 -67 -123 -86 -38 -10 -77 -22 -86 -27
-14 -7 -18 -5 -18 6 0 17 -12 19 -26 5 -7 -7 -11 -7 -11 2 0 7 -2 18 -4 23 -5
17 22 89 39 103 9 7 23 9 32 6 8 -4 55 -9 103 -12z"/>
<path d="M2663 2012 c-5 -4 -16 -45 -22 -91 -10 -67 -10 -85 0 -92 13 -8 96
21 136 47 21 13 21 16 8 32 -9 9 -29 34 -47 55 -35 43 -59 59 -75 49z"/>
<path d="M2082 1870 c-24 -22 -69 -48 -100 -60 -64 -23 -105 -44 -109 -57 -2
-5 16 -18 39 -28 35 -15 66 -19 160 -18 102 1 127 5 188 28 38 15 72 30 75 35
9 15 -44 115 -62 117 -10 1 -45 6 -78 12 -33 6 -62 11 -65 11 -3 -1 -24 -18
-48 -40z"/>
<path d="M3027 1432 c-21 -15 -51 -47 -68 -72 l-30 -44 37 -13 c21 -7 52 -15
69 -17 28 -4 32 0 59 55 25 53 27 62 16 89 -15 37 -34 37 -83 2z"/>
<path d="M2303 388 c-6 -7 -18 -30 -27 -51 -15 -37 -15 -38 10 -47 35 -14 59
-12 125 6 35 10 68 27 85 45 32 34 29 36 -76 42 -41 3 -82 8 -91 11 -9 4 -21
1 -26 -6z"/>
</g>
</svg>
