<?xml version="1.0" standalone="no"?>
<!DOCTYPE svg PUBLIC "-//W3C//DTD SVG 20010904//EN"
 "http://www.w3.org/TR/2001/REC-SVG-20010904/DTD/svg10.dtd">
<svg version="1.0" xmlns="http://www.w3.org/2000/svg"
 width="498.000000pt" height="278.000000pt" viewBox="0 0 498.000000 278.000000"
 preserveAspectRatio="xMidYMid meet">
<metadata>
Created by potrace 1.16, written by Peter Selinger 2001-2019
</metadata>
<g transform="translate(0.000000,278.000000) scale(0.100000,-0.100000)"
fill="#000000" stroke="none">
<path d="M0 1390 l0 -1390 2490 0 2490 0 0 1390 0 1390 -2490 0 -2490 0 0
-1390z m2543 1001 c110 -38 178 -94 212 -174 11 -27 11 -41 -1 -87 -18 -70
-14 -85 44 -162 50 -67 55 -85 32 -113 -22 -27 -110 -65 -151 -65 -46 0 -62
-14 -87 -80 -43 -111 -48 -240 -13 -307 40 -78 139 -143 218 -143 38 0 93 44
93 75 0 24 56 101 93 128 79 57 126 61 161 14 17 -23 21 -41 19 -89 -1 -45 1
-58 10 -49 17 17 72 13 89 -6 28 -32 29 -67 5 -115 -22 -44 -23 -46 -5 -68 23
-28 23 -72 1 -92 -27 -23 -128 -78 -144 -78 -8 0 15 16 51 36 108 60 119 78
79 128 l-21 27 26 49 c27 49 26 69 -2 103 -16 18 -67 23 -77 7 -3 -5 -11 -10
-17 -10 -7 0 -8 18 -4 53 6 45 4 58 -16 87 -15 21 -33 36 -48 38 -56 6 -179
-108 -195 -180 -15 -66 -91 -85 -187 -47 -158 61 -201 213 -126 443 24 72 39
86 99 86 52 0 149 57 149 88 0 8 -20 41 -44 73 -54 72 -60 98 -42 169 13 48
12 58 -1 85 -34 64 -76 104 -151 142 -72 36 -80 38 -166 37 -143 -2 -254 -52
-296 -134 -28 -56 -28 -169 0 -195 36 -32 25 -64 -43 -135 -56 -60 -70 -69
-155 -99 -78 -28 -93 -37 -98 -58 -9 -35 4 -53 58 -81 41 -21 58 -23 182 -23
l136 0 17 -37 c20 -45 24 -175 6 -193 -7 -7 -13 -20 -13 -28 0 -35 -52 -88
-163 -163 -88 -60 -132 -98 -171 -147 -68 -86 -81 -129 -80 -266 1 -99 4 -116
29 -167 15 -32 37 -66 49 -77 34 -31 160 -99 198 -106 48 -9 98 -41 98 -62 0
-9 -10 -37 -21 -61 -24 -49 -70 -75 -153 -87 -57 -9 -60 -29 -8 -51 28 -12 57
-14 127 -10 93 6 115 17 115 57 0 10 5 21 10 24 6 3 15 26 21 51 6 24 15 47
20 50 5 3 58 2 118 -2 84 -5 111 -10 116 -22 7 -18 -19 -48 -58 -68 -33 -18
-155 -34 -181 -24 -10 3 8 7 44 8 34 1 80 6 101 12 40 11 95 59 81 71 -4 4
-53 10 -109 14 l-103 7 -11 -29 c-6 -15 -17 -41 -25 -58 -7 -16 -16 -42 -20
-58 -3 -15 -10 -29 -14 -32 -4 -2 -46 -7 -95 -10 -124 -9 -191 13 -199 65 -1
3 -64 5 -142 4 -139 -1 -192 -12 -201 -40 -2 -6 9 -19 24 -29 44 -29 237 -35
978 -33 581 3 684 5 709 18 41 21 42 34 4 61 -33 24 -35 24 -345 26 -172 1
-317 5 -323 8 -16 10 -12 33 15 75 19 30 32 40 51 40 28 0 83 26 99 46 6 7 37
27 70 45 121 65 210 152 218 214 4 23 20 67 37 98 36 66 43 152 13 160 -14 4
-12 5 5 6 20 1 22 -3 22 -59 0 -49 -6 -72 -35 -127 -19 -37 -35 -81 -35 -98 0
-47 -104 -147 -207 -199 -28 -14 -63 -36 -77 -49 -14 -13 -44 -29 -68 -36 -24
-7 -49 -16 -56 -19 -16 -8 -58 -80 -51 -87 3 -2 147 -6 320 -7 296 -3 316 -4
349 -24 37 -21 49 -47 31 -68 -29 -35 -110 -38 -891 -33 -421 3 -779 8 -795
12 -17 4 -42 15 -55 25 -21 16 -23 21 -13 43 16 34 50 40 268 42 226 3 255 11
296 90 l24 46 -29 24 c-16 13 -45 26 -65 30 -37 7 -136 53 -184 87 -34 24 -68
78 -87 137 -21 64 -19 242 3 306 28 83 102 163 234 253 122 83 147 111 178
194 20 53 17 111 -8 170 l-16 37 -126 0 c-72 0 -141 5 -163 12 -54 17 -92 47
-92 72 0 34 11 67 22 67 6 0 24 6 41 14 18 7 54 22 82 31 36 13 67 36 112 84
35 36 63 73 63 82 0 9 -9 24 -20 34 -17 15 -20 31 -20 91 0 131 42 189 170
231 112 38 191 42 273 14z m-16 -43 c27 -19 33 -29 33 -59 0 -40 -18 -52 -55
-38 -11 4 -38 8 -60 8 -36 1 -42 5 -52 31 -10 26 -16 30 -50 30 -52 0 -136
-41 -151 -74 -6 -14 -18 -26 -27 -26 -25 0 -17 44 12 71 l27 24 -23 -33 c-12
-18 -21 -38 -18 -45 2 -7 12 2 23 21 12 21 34 38 62 48 23 9 42 20 42 25 0 8
-50 -4 -70 -16 -5 -3 -10 -3 -10 0 0 10 71 38 115 45 22 4 69 8 104 9 52 1 71
-3 98 -21z m144 -77 c45 -44 49 -52 49 -95 0 -55 -9 -57 -60 -13 -21 17 -49
39 -62 49 -20 13 -23 22 -20 55 4 36 16 52 36 53 5 0 31 -22 57 -49z m-194
-42 c91 -22 129 -41 188 -93 34 -30 45 -46 40 -58 -4 -10 -10 -18 -14 -18 -4
0 -45 25 -92 55 -46 31 -95 58 -109 61 -74 15 -85 20 -88 42 -4 26 6 27 75 11z
m52 -100 c42 -23 54 -42 70 -102 14 -56 -4 -217 -29 -252 -4 -5 -10 -21 -13
-35 -3 -14 -14 -56 -24 -95 -27 -102 -23 -189 12 -260 46 -90 121 -143 225
-160 25 -4 59 -14 75 -22 17 -9 46 -19 65 -23 33 -7 34 -8 6 -9 -16 0 -47 8
-70 18 -23 11 -72 26 -111 35 -39 9 -88 29 -110 44 -108 75 -146 223 -100 387
9 33 19 71 22 85 3 14 12 41 20 60 22 48 34 175 21 227 -19 79 -73 113 -193
121 l-82 5 -43 -39 c-36 -33 -90 -123 -90 -152 0 -14 36 -22 97 -22 76 0 83
-5 83 -59 0 -26 7 -56 15 -67 33 -43 13 -79 -60 -110 -63 -26 -64 -28 -44 -86
24 -71 24 -120 -3 -197 -30 -84 -70 -127 -207 -219 -131 -88 -183 -151 -207
-250 -32 -137 0 -290 76 -349 31 -25 118 -63 142 -63 29 0 58 -13 108 -51 49
-36 189 -60 365 -62 148 -1 189 8 240 56 11 10 49 33 83 50 35 18 90 56 123
85 48 43 59 60 59 84 0 32 42 132 60 143 6 3 10 24 10 46 0 43 -17 52 -38 19
-14 -23 -47 -27 -55 -6 -3 8 10 36 29 63 22 31 34 59 34 80 0 32 -16 44 -34
26 -13 -13 -41 -9 -47 7 -3 8 1 41 10 73 16 59 16 59 -8 78 -25 20 -95 26
-121 9 -12 -7 -8 -12 17 -21 18 -6 31 -15 28 -19 -6 -10 -53 11 -59 27 -11 29
76 45 127 24 38 -15 43 -35 25 -103 -18 -66 -12 -77 36 -59 21 9 28 8 33 -5
12 -31 -5 -94 -36 -133 -22 -28 -28 -42 -20 -47 7 -4 20 2 30 14 9 12 27 22
38 22 18 0 21 -6 21 -49 0 -28 -4 -52 -9 -55 -19 -12 -61 -107 -61 -138 0 -43
-84 -125 -177 -172 -37 -19 -77 -42 -89 -53 -59 -53 -145 -66 -329 -52 -182
13 -259 29 -298 60 -43 35 -65 45 -108 52 -47 7 -122 43 -153 73 -95 96 -101
333 -11 468 34 50 61 74 155 138 132 88 176 133 208 212 27 69 28 120 3 190
-10 30 -15 59 -11 65 4 7 29 23 56 35 66 31 82 51 64 79 -8 12 -17 47 -20 77
l-5 55 -83 6 c-45 4 -84 8 -86 10 -31 31 60 187 124 213 8 3 54 4 102 2 66 -4
98 -10 127 -27z m199 -121 c6 -6 12 -15 12 -21 0 -5 16 -29 35 -52 32 -40 33
-44 17 -58 -32 -28 -101 -57 -137 -57 l-36 0 6 53 c10 96 17 127 32 143 15 15
46 11 71 -8z m-498 -99 c65 -10 90 -26 90 -59 0 -9 7 -25 15 -36 32 -42 11
-66 -86 -94 -97 -29 -277 -31 -343 -4 -66 27 -63 54 7 79 85 30 142 62 178
100 25 26 39 34 54 30 11 -4 49 -11 85 -16z m891 -479 c11 -35 9 -44 -19 -104
l-31 -65 -53 16 c-29 8 -62 18 -74 22 -18 5 -19 10 -12 38 11 42 88 120 130
131 42 11 45 9 59 -38z m119 -167 c0 -26 -9 -39 -45 -69 -34 -29 -42 -41 -34
-51 6 -7 15 -11 19 -8 12 8 60 -13 60 -25 0 -16 -62 -70 -80 -70 -9 0 -22 15
-29 36 -9 24 -22 39 -41 45 -25 9 -27 14 -23 42 12 80 42 115 121 142 43 15
52 8 52 -42z"/>
<path d="M2662 2008 c-11 -14 -19 -51 -27 -130 -5 -46 -4 -48 21 -48 28 0 128
43 139 59 3 6 1 11 -5 11 -5 0 -26 24 -45 54 -28 44 -51 66 -70 66 -1 0 -7 -6
-13 -12z"/>
<path d="M2100 1883 c-33 -35 -82 -61 -182 -97 -27 -10 -48 -23 -48 -30 0 -7
18 -20 41 -30 49 -22 219 -25 302 -6 89 21 146 57 118 74 -5 3 -14 26 -20 50
l-11 45 -70 7 c-39 4 -73 11 -76 15 -9 15 -18 10 -54 -28z"/>
<path d="M3029 1436 c-35 -24 -89 -92 -89 -114 0 -10 87 -42 115 -42 6 0 24
27 40 59 25 54 27 63 15 90 -15 37 -34 39 -81 7z"/>
<path d="M3158 1280 c-42 -22 -64 -51 -78 -100 -8 -29 -6 -33 19 -48 16 -9 35
-31 42 -49 7 -18 15 -33 18 -33 3 0 21 13 40 29 34 28 34 28 13 40 -13 7 -27
9 -32 6 -5 -3 -19 4 -30 15 l-21 21 38 28 c52 38 65 56 61 83 -4 30 -24 32
-70 8z"/>
</g>
</svg>
