<?xml version="1.0" standalone="no"?>
<!DOCTYPE svg PUBLIC "-//W3C//DTD SVG 20010904//EN"
 "http://www.w3.org/TR/2001/REC-SVG-20010904/DTD/svg10.dtd">
<svg version="1.0" xmlns="http://www.w3.org/2000/svg"
 width="498.000000pt" height="278.000000pt" viewBox="0 0 498.000000 278.000000"
 preserveAspectRatio="xMidYMid meet">
<metadata>
Created by potrace 1.16, written by Peter Selinger 2001-2019
</metadata>
<g transform="translate(0.000000,278.000000) scale(0.100000,-0.100000)"
fill="#000000" stroke="none">
<path d="M0 1390 l0 -1390 2490 0 2490 0 0 1390 0 1390 -2490 0 -2490 0 0
-1390z m2567 1024 c21 -9 49 -22 62 -28 13 -6 50 -37 82 -69 76 -77 89 -128
64 -253 -3 -13 10 -40 35 -73 47 -63 60 -113 35 -140 -31 -35 -114 -64 -182
-62 l-63 1 -29 -58 c-44 -87 -47 -121 -20 -189 46 -116 87 -138 302 -170 30
-4 44 0 72 21 54 42 156 76 225 76 52 0 62 -3 76 -25 16 -25 12 -77 -8 -102
-6 -7 -7 -13 -2 -14 5 0 22 -2 37 -3 16 -1 32 -8 37 -16 15 -23 12 -69 -6
-100 -16 -26 -16 -29 0 -51 32 -47 22 -78 -49 -144 -36 -34 -65 -69 -65 -79 0
-28 -107 -162 -177 -221 -35 -30 -84 -64 -109 -76 -43 -19 -45 -22 -38 -52 10
-50 49 -119 87 -156 22 -20 38 -47 42 -69 12 -67 15 -69 112 -71 48 -1 102 -3
118 -5 80 -8 145 -34 145 -58 0 -6 -7 -5 -18 5 -29 26 -73 38 -157 44 -160 11
-185 9 -185 -16 0 -10 -6 -23 -12 -29 -21 -16 -115 -8 -137 12 -17 16 -22 16
-56 2 -44 -19 -48 -19 -40 -6 3 5 22 14 42 19 30 9 42 7 62 -6 14 -9 45 -16
70 -17 38 -1 47 3 57 22 18 37 -10 118 -61 173 -40 42 -85 137 -85 177 0 11
17 26 43 39 24 12 73 46 109 77 70 59 178 193 178 221 0 9 29 45 65 79 68 65
81 100 50 126 -8 7 -15 23 -15 35 0 12 7 28 15 35 19 16 20 74 1 89 -8 7 -25
10 -39 7 -32 -6 -41 14 -22 51 19 36 19 52 -2 75 -37 41 -189 10 -277 -57 -30
-23 -43 -26 -78 -22 -160 20 -234 45 -275 90 -11 12 -30 50 -43 84 -26 73 -23
106 21 201 l29 62 69 -1 c58 -1 77 3 122 27 70 39 77 52 55 103 -11 22 -28 48
-39 58 -30 27 -36 53 -26 113 15 89 -2 138 -71 208 -33 33 -76 67 -97 76 -21
9 -46 21 -55 26 -28 16 -175 12 -236 -6 -125 -36 -162 -69 -188 -166 -15 -55
-16 -77 -8 -118 10 -45 9 -52 -10 -69 -12 -10 -62 -33 -112 -50 -50 -18 -104
-43 -120 -56 -28 -22 -28 -24 -11 -43 10 -11 48 -34 84 -52 54 -27 80 -33 141
-35 60 -2 79 -7 90 -21 49 -65 57 -186 18 -269 -38 -81 -92 -153 -178 -239
-143 -142 -198 -250 -198 -389 0 -69 4 -90 28 -137 37 -74 106 -142 167 -165
73 -27 82 -39 99 -143 31 -178 41 -170 -245 -175 -158 -3 -222 -7 -244 -18
-38 -19 -41 -33 -9 -53 43 -29 219 -35 949 -36 681 0 723 1 764 34 11 8 13 8
10 -3 -13 -38 -70 -41 -774 -41 -715 1 -901 7 -954 34 -33 18 -41 46 -17 65
21 18 136 28 314 29 227 1 225 0 197 162 -12 68 -20 90 -41 108 -14 12 -33 22
-43 22 -26 0 -105 54 -134 91 -58 77 -77 131 -77 221 0 93 7 123 51 214 31 64
119 173 181 224 38 31 109 131 147 207 31 63 29 162 -4 220 -14 23 -29 43 -33
44 -4 1 -34 2 -67 3 -69 2 -144 27 -201 65 -77 52 -54 84 101 140 119 43 126
49 119 120 -8 70 24 186 60 220 14 13 62 36 108 52 101 34 232 40 295 13z m41
-58 c15 -8 51 -39 80 -69 49 -52 52 -59 52 -106 0 -31 -4 -51 -11 -51 -6 0
-29 15 -50 33 -21 17 -52 42 -68 55 -24 18 -31 31 -31 57 0 19 -4 45 -9 58
-15 38 -4 44 37 23z m-107 -181 c42 -14 83 -34 91 -43 18 -21 38 -89 38 -128
0 -44 -35 -148 -67 -201 -44 -72 -73 -147 -73 -188 0 -45 48 -151 86 -188 42
-42 123 -77 177 -77 25 0 49 -4 52 -10 3 -5 19 -10 35 -10 29 0 71 -39 93 -87
13 -30 32 -30 22 0 -4 12 -8 33 -9 47 -1 23 2 25 43 25 71 0 79 -40 26 -119
-14 -20 -25 -39 -25 -41 0 -1 21 -6 48 -10 26 -3 55 -12 65 -20 27 -20 18 -56
-20 -80 -36 -23 -42 -35 -15 -35 28 0 62 -29 62 -54 0 -29 -79 -134 -154 -204
-54 -51 -147 -102 -186 -102 -30 0 -71 -21 -128 -67 -29 -24 -70 -52 -91 -62
-103 -53 -286 -26 -384 55 -18 15 -41 24 -64 24 -51 0 -112 20 -153 49 -47 35
-56 47 -91 116 -24 50 -29 72 -29 133 0 137 61 250 219 404 69 68 99 107 132
170 43 82 44 84 43 180 0 77 -4 101 -17 116 -28 31 -22 52 16 52 22 0 41 8 56
24 27 29 12 44 -21 22 -21 -13 -47 -16 -203 -19 -45 -1 -67 5 -152 46 -13 6
-21 12 -18 15 2 3 30 -8 62 -24 41 -20 72 -28 108 -27 170 3 189 6 232 46 l22
20 -23 31 c-13 17 -26 39 -29 49 -9 25 -127 24 -182 -2 -22 -11 -74 -32 -115
-48 -41 -15 -79 -30 -84 -32 -5 -2 -6 1 -2 7 3 5 44 24 91 41 106 38 141 56
154 78 10 17 10 17 11 1 0 -15 10 -18 65 -18 53 0 67 -3 72 -17 13 -35 45 -73
56 -66 6 4 2 -9 -10 -29 -12 -20 -19 -39 -15 -42 6 -7 72 53 72 66 0 5 -13 14
-30 19 -28 10 -35 24 -31 57 5 31 -21 42 -95 42 -40 0 -76 4 -79 10 -12 19 44
83 92 107 66 32 154 31 254 -2z m255 -175 c24 -25 46 -65 58 -107 6 -19 -1
-26 -57 -53 -97 -47 -154 -26 -126 46 6 16 13 60 16 98 3 38 10 75 16 81 11
12 40 -8 93 -65z m46 -1417 c32 -81 44 -102 78 -148 39 -53 60 -103 60 -143 0
-23 -2 -24 -41 -18 -42 7 -85 33 -84 51 1 6 9 24 18 42 16 31 16 33 -5 70 -12
21 -39 59 -60 84 -50 62 -51 89 -1 89 16 0 27 -8 35 -27z m-608 -54 c25 -29
26 -35 26 -160 l0 -129 -50 2 c-40 2 -50 6 -50 20 0 9 10 24 22 32 20 15 21
17 9 108 -7 51 -14 108 -17 126 -4 27 -2 32 15 32 10 0 31 -14 45 -31z m568
-37 c27 -35 48 -74 48 -87 0 -27 -34 -97 -55 -115 -12 -10 -276 -14 -362 -6
-12 1 -47 -1 -78 -4 -53 -6 -57 -5 -66 18 -14 38 -11 189 4 195 7 3 31 -2 52
-10 54 -20 209 -20 255 0 19 9 53 29 75 46 22 17 49 30 60 28 11 -1 41 -30 67
-65z"/>
<path d="M2252 2167 c-23 -12 -53 -39 -67 -60 l-26 -37 73 0 c84 0 102 -8 104
-47 1 -15 3 -31 3 -35 1 -3 15 -11 31 -17 44 -15 38 -38 -27 -103 -47 -47 -63
-58 -90 -58 -38 0 -39 -2 -16 -36 12 -20 17 -50 17 -123 1 -94 0 -99 -41 -183
-35 -70 -58 -101 -128 -169 -158 -154 -215 -251 -222 -380 -5 -80 -4 -88 26
-145 36 -70 45 -81 91 -115 45 -33 92 -49 145 -49 32 0 51 -7 81 -31 96 -77
256 -99 354 -49 21 11 64 40 95 65 40 33 73 50 118 61 85 22 131 47 195 108
60 56 152 172 152 191 0 20 -35 45 -62 45 -36 0 -30 26 10 51 64 38 47 73 -40
85 -55 8 -60 20 -24 67 48 65 42 107 -16 107 -31 0 -48 -24 -29 -43 6 -6 11
-21 11 -33 0 -28 -28 -40 -37 -16 -14 39 -75 102 -98 102 -13 0 -26 4 -29 9
-3 5 -32 11 -63 13 -152 12 -258 126 -258 278 0 59 5 75 57 175 80 158 91 202
67 276 -18 51 -34 65 -110 93 -93 34 -186 36 -247 3z"/>
<path d="M2666 2048 c-3 -7 -7 -44 -10 -81 -3 -37 -11 -77 -17 -88 -29 -56 28
-71 111 -29 57 29 59 31 49 57 -23 62 -124 169 -133 141z"/>
<path d="M2653 525 c-63 -50 -120 -68 -218 -68 -56 1 -106 7 -132 16 -22 9
-44 13 -47 10 -8 -8 -8 -157 0 -176 4 -12 44 -15 243 -16 216 -1 239 0 253 16
28 32 50 85 44 107 -6 23 -92 136 -104 136 -4 0 -21 -12 -39 -25z"/>
</g>
</svg>
