<?xml version="1.0" standalone="no"?>
<!DOCTYPE svg PUBLIC "-//W3C//DTD SVG 20010904//EN"
 "http://www.w3.org/TR/2001/REC-SVG-20010904/DTD/svg10.dtd">
<svg version="1.0" xmlns="http://www.w3.org/2000/svg"
 width="498.000000pt" height="278.000000pt" viewBox="0 0 498.000000 278.000000"
 preserveAspectRatio="xMidYMid meet">
<metadata>
Created by potrace 1.16, written by Peter Selinger 2001-2019
</metadata>
<g transform="translate(0.000000,278.000000) scale(0.100000,-0.100000)"
fill="#000000" stroke="none">
<path d="M0 1390 l0 -1390 2490 0 2490 0 0 1390 0 1390 -2490 0 -2490 0 0
-1390z m2505 1226 c115 -16 173 -38 222 -84 50 -47 56 -61 62 -151 l6 -75 57
-31 c136 -73 151 -132 56 -222 -56 -53 -127 -61 -244 -27 -19 5 -25 -4 -54
-73 -24 -55 -34 -99 -38 -152 l-5 -73 65 -62 c116 -110 237 -152 397 -136 113
12 149 20 214 50 44 20 50 20 71 6 36 -23 50 -92 29 -152 -8 -27 -22 -56 -29
-65 -21 -23 -19 -24 36 -21 l50 4 1 -39 c1 -21 0 -49 -1 -62 -2 -29 -43 -97
-62 -104 -8 -3 -2 -9 15 -16 50 -19 30 -73 -58 -154 -40 -38 -172 -100 -200
-95 -14 3 -37 -6 -61 -23 -106 -76 -262 -148 -341 -157 -24 -2 -46 -10 -51
-16 -23 -30 -56 -197 -47 -234 3 -14 24 -57 47 -95 22 -38 38 -71 35 -74 -7
-6 -71 104 -87 149 -13 34 -8 73 26 223 10 44 19 52 74 58 62 7 228 79 286
123 54 41 95 63 111 57 19 -7 101 26 153 60 45 30 87 72 117 114 17 25 11 53
-11 53 -17 0 -29 27 -15 36 16 9 57 79 59 100 1 10 2 34 1 52 -1 30 -3 32 -39
32 -21 0 -43 -5 -50 -12 -9 -9 -12 -7 -12 9 0 12 4 24 9 28 5 3 19 30 31 61
23 63 16 116 -19 148 -18 17 -21 16 -59 -3 -52 -26 -114 -40 -229 -52 -79 -7
-103 -6 -169 11 -106 27 -157 55 -232 126 l-65 62 5 78 c4 58 14 101 38 162
32 79 35 83 59 78 112 -25 127 -26 168 -15 48 13 118 81 129 124 8 33 -27 73
-106 117 -30 17 -58 36 -62 42 -4 6 -8 37 -8 68 0 74 -27 137 -52 122 -4 -3 2
-19 12 -37 23 -36 26 -77 8 -95 -17 -17 -36 -15 -71 10 -17 12 -40 24 -50 25
-10 2 -30 9 -45 17 -15 7 -42 17 -59 21 -39 8 -42 12 -32 45 l7 25 1 -25 c1
-21 10 -28 64 -48 34 -12 70 -24 80 -27 9 -2 31 -14 48 -25 24 -18 33 -19 44
-10 21 17 19 39 -8 82 -25 42 -97 98 -126 98 -11 0 -23 5 -26 10 -3 6 -22 10
-41 10 -30 0 -34 -3 -34 -25 0 -14 -4 -25 -8 -25 -5 0 -7 14 -4 30 4 26 8 30
36 30 46 0 116 -27 157 -60 33 -26 49 -29 49 -10 0 14 -76 60 -125 74 -48 15
-134 30 -165 30 -104 0 -234 -35 -296 -80 -42 -31 -68 -117 -62 -209 l5 -67
-51 -32 c-55 -33 -94 -53 -169 -85 -26 -11 -50 -27 -53 -35 -18 -46 65 -86
180 -86 39 0 91 -6 116 -14 37 -11 46 -18 51 -42 13 -57 9 -216 -7 -287 l-16
-72 -129 -125 c-159 -156 -183 -199 -184 -330 0 -80 2 -90 44 -175 24 -49 63
-111 87 -137 41 -44 43 -48 33 -80 -6 -18 -15 -48 -20 -66 -24 -80 -100 -129
-218 -138 -30 -3 -58 -7 -63 -10 -19 -12 6 -24 52 -24 38 0 49 -4 52 -17 7
-32 -3 -49 -38 -68 -19 -10 -34 -22 -34 -27 0 -10 7 -10 51 2 50 14 89 -1 89
-34 0 -14 5 -28 11 -32 16 -10 41 26 93 132 45 90 79 140 148 217 l38 41 77
-12 c71 -10 126 -7 200 11 38 9 44 -13 45 -164 1 -143 1 -144 -31 -211 -18
-38 -37 -70 -42 -74 -12 -7 -11 -41 2 -49 5 -4 18 0 27 8 28 25 55 25 75 0 10
-13 22 -21 26 -19 4 3 7 -4 7 -15 0 -16 -5 -14 -33 13 l-33 32 -31 -18 c-37
-22 -59 -15 -59 19 0 25 -1 25 -77 26 -43 0 -103 0 -133 -1 -30 0 -158 -2
-285 -4 -230 -2 -282 -10 -292 -42 -9 -28 49 -46 185 -56 76 -5 151 -9 167 -9
17 0 315 0 663 0 613 1 712 5 712 31 0 6 7 10 16 10 13 0 13 -2 1 -14 -33 -33
-93 -37 -547 -35 -246 1 -452 -1 -458 -5 -6 -3 -13 -3 -16 2 -3 5 -45 7 -93 6
-311 -10 -558 2 -612 30 -33 18 -40 46 -17 65 22 18 137 28 336 29 102 1 246
1 320 2 74 0 140 4 145 8 14 10 56 110 65 157 14 64 1 248 -17 262 -9 7 -21 9
-27 6 -25 -16 -125 -22 -189 -11 l-68 11 -37 -41 c-68 -75 -105 -127 -135
-192 -72 -154 -120 -200 -134 -130 -8 40 -35 55 -75 41 -46 -16 -68 -14 -68 7
0 11 14 27 35 38 62 33 54 61 -19 66 -27 2 -51 8 -53 13 -7 23 16 34 77 39
121 9 176 50 215 159 l24 64 -41 39 c-52 51 -128 207 -135 280 -7 64 11 163
39 219 11 22 78 96 149 165 127 124 128 126 144 190 15 66 19 234 6 279 -9 33
-59 49 -156 50 -101 1 -175 27 -188 65 -12 37 -3 54 40 72 69 30 181 87 204
105 21 16 23 24 21 83 -6 126 44 225 122 242 17 3 36 11 43 16 12 9 171 35
203 33 8 -1 38 -4 65 -9z m-41 -52 c11 -29 7 -114 -6 -118 -7 -3 -68 -7 -135
-10 -104 -4 -123 -3 -123 10 0 8 -11 19 -24 25 -46 21 -21 47 84 90 60 24 195
26 204 3z m96 -221 c81 -25 90 -35 90 -107 0 -69 -18 -135 -54 -204 -41 -77
-76 -191 -76 -248 0 -49 4 -58 51 -114 103 -124 297 -204 440 -181 35 6 85 11
112 11 54 0 57 -7 31 -79 -23 -67 -42 -99 -70 -117 -30 -20 -26 -25 23 -33 60
-10 56 -37 -17 -114 -63 -68 -65 -85 -6 -68 25 6 38 6 44 -2 13 -17 5 -74 -16
-109 -15 -27 -94 -88 -113 -88 -5 0 -20 -12 -34 -26 -26 -26 -155 -89 -231
-113 -25 -8 -63 -11 -100 -7 -167 17 -212 18 -274 6 -56 -11 -77 -10 -136 4
-80 18 -203 68 -246 99 -54 40 -121 216 -120 314 1 115 45 183 214 338 112
102 122 129 125 330 1 77 2 148 2 157 1 9 11 20 24 23 30 10 87 65 87 85 0 9
-16 31 -34 49 -25 24 -36 44 -38 70 -3 33 -6 36 -35 39 -32 3 -50 22 -49 51 1
14 8 18 56 40 52 23 266 19 350 -6z m304 -118 c76 -48 79 -54 53 -100 -26 -45
-87 -85 -133 -85 -17 0 -52 7 -78 16 -47 16 -48 18 -43 51 3 18 19 51 36 71
16 21 33 51 37 66 6 25 10 27 41 21 19 -3 58 -21 87 -40z m-681 6 c16 -6 28
-21 32 -39 3 -16 19 -42 35 -57 36 -34 37 -45 6 -67 -20 -14 -50 -17 -177 -19
-164 -1 -230 11 -235 44 -1 9 -1 17 0 17 19 0 131 50 179 79 84 51 114 59 160
42z m1125 -732 c2 -36 -4 -62 -28 -112 -17 -36 -37 -71 -46 -78 -25 -21 3 -28
54 -13 25 8 47 12 50 10 4 -4 -57 -23 -100 -31 -23 -5 -32 24 -14 44 58 64 98
203 62 217 -36 14 -77 -39 -90 -114 -3 -19 -13 -49 -22 -68 -16 -33 -15 -36 2
-55 26 -29 23 -81 -9 -122 -32 -42 -32 -46 -9 -63 22 -16 23 -87 0 -131 -20
-40 -11 -41 44 -6 61 38 123 104 107 114 -7 4 -17 5 -23 2 -42 -27 -86 9 -45
37 74 51 123 123 114 167 -6 25 -5 26 6 9 24 -39 -32 -135 -105 -180 -21 -13
-25 -20 -16 -26 7 -5 23 -5 34 -1 28 10 56 3 56 -14 0 -36 -140 -145 -185
-145 -20 0 -19 8 5 55 26 51 25 80 -2 108 -30 29 -29 34 9 85 39 52 41 65 10
96 -25 25 -25 30 4 93 10 24 19 51 19 61 0 60 48 115 95 109 16 -2 21 -11 23
-48z m-1218 -734 c14 -9 -6 -53 -60 -130 -27 -38 -65 -103 -84 -142 -38 -78
-53 -87 -92 -55 -13 10 -24 34 -28 60 -6 39 -5 42 17 42 60 0 154 111 171 202
6 34 9 36 37 33 16 -2 34 -7 39 -10z m468 -43 c40 -5 49 -23 32 -60 -6 -15
-18 -66 -26 -113 -12 -76 -12 -92 1 -130 9 -23 19 -47 25 -53 13 -16 6 -49
-11 -54 -8 -3 -21 -10 -29 -18 -12 -10 -23 -10 -53 -1 -36 12 -47 32 -28 52 4
6 16 40 26 77 18 67 18 86 -1 262 -6 55 -6 59 12 51 11 -4 34 -10 52 -13z"/>
<path d="M2240 2539 c-81 -40 -79 -38 -52 -56 12 -9 22 -21 22 -29 0 -10 24
-12 113 -7 61 2 118 6 125 9 9 3 12 20 10 56 l-3 53 -75 3 c-68 2 -82 -1 -140
-29z"/>
<path d="M2290 2352 c-116 -6 -175 -72 -75 -84 26 -3 30 -7 33 -38 2 -22 16
-48 38 -72 19 -21 34 -48 34 -61 0 -26 -57 -87 -82 -87 -28 0 -33 -21 -30
-150 4 -162 -20 -270 -70 -314 -90 -78 -212 -205 -233 -241 -50 -85 -48 -189
7 -327 29 -76 74 -122 152 -157 144 -65 207 -78 295 -61 63 12 88 11 287 -6
54 -5 69 -2 153 34 99 43 171 86 171 102 0 6 6 10 13 10 32 0 105 59 126 102
30 62 21 81 -35 72 -69 -10 -68 13 5 92 34 36 60 71 58 77 -2 7 -22 15 -45 20
-48 9 -54 27 -16 52 25 16 84 128 84 160 0 18 -54 20 -146 4 -51 -9 -76 -8
-136 5 -85 19 -91 21 -182 67 -69 34 -158 118 -177 167 -25 64 7 210 75 341
35 67 46 107 46 171 0 63 -14 83 -65 96 -16 4 -34 10 -40 14 -12 9 -165 16
-245 12z"/>
<path d="M2744 2233 c-4 -16 -20 -45 -36 -65 -16 -21 -30 -49 -31 -64 -2 -23
4 -28 43 -40 25 -8 54 -14 65 -14 34 0 89 35 116 75 l26 39 -26 22 c-33 28
-119 74 -137 74 -8 0 -17 -12 -20 -27z"/>
<path d="M2098 2216 c-49 -26 -93 -51 -107 -61 -8 -5 -39 -19 -69 -31 -31 -11
-57 -25 -59 -31 -8 -24 72 -36 216 -34 122 2 148 5 167 20 l23 18 -29 28 c-17
16 -30 37 -30 47 0 25 -35 58 -62 58 -13 0 -35 -6 -50 -14z"/>
<path d="M2032 758 c-7 -7 -12 -20 -12 -31 0 -64 -95 -181 -156 -193 -31 -6
-33 -8 -27 -38 5 -28 36 -65 56 -66 4 0 24 33 43 73 19 39 57 104 84 142 58
81 68 104 49 116 -18 12 -23 11 -37 -3z"/>
<path d="M2504 683 c18 -155 18 -193 0 -265 -10 -40 -21 -77 -26 -83 -13 -15
-9 -25 10 -25 10 0 23 -5 28 -10 8 -8 15 -6 24 5 7 8 18 15 25 15 15 0 28 27
16 35 -5 2 -16 28 -25 56 -15 44 -15 62 -6 128 6 42 18 92 27 113 20 47 10 62
-36 54 -21 -3 -30 -2 -23 3 11 7 10 10 -3 15 -15 5 -16 0 -11 -41z"/>
</g>
</svg>
