<?xml version="1.0" standalone="no"?>
<!DOCTYPE svg PUBLIC "-//W3C//DTD SVG 20010904//EN"
 "http://www.w3.org/TR/2001/REC-SVG-20010904/DTD/svg10.dtd">
<svg version="1.0" xmlns="http://www.w3.org/2000/svg"
 width="498.000000pt" height="278.000000pt" viewBox="0 0 498.000000 278.000000"
 preserveAspectRatio="xMidYMid meet">
<metadata>
Created by potrace 1.16, written by Peter Selinger 2001-2019
</metadata>
<g transform="translate(0.000000,278.000000) scale(0.100000,-0.100000)"
fill="#000000" stroke="none">
<path d="M0 1390 l0 -1390 2490 0 2490 0 0 1390 0 1390 -2490 0 -2490 0 0
-1390z m2486 1125 c10 -8 29 -15 42 -15 31 0 141 -55 175 -88 15 -15 42 -48
59 -75 29 -46 30 -51 25 -125 -8 -109 -14 -121 -73 -141 l-49 -16 5 -45 c3
-25 5 -97 5 -160 l-1 -115 -43 -85 c-41 -80 -44 -90 -44 -167 0 -88 6 -103 65
-165 58 -61 94 -79 175 -89 137 -18 204 -74 243 -206 61 -205 -26 -334 -354
-523 -61 -35 -82 -53 -89 -75 -5 -17 -16 -37 -24 -46 -9 -11 -16 -48 -19 -100
-2 -45 -7 -85 -9 -88 -3 -3 -3 37 -1 88 4 66 10 99 21 111 9 10 20 31 24 46 5
21 22 37 61 57 98 52 254 164 303 216 94 100 116 189 77 312 -36 119 -111 182
-232 197 -90 12 -129 31 -186 90 -56 58 -64 80 -65 178 0 76 3 87 44 170 l44
89 0 135 c-1 86 -5 143 -13 157 -12 21 -9 23 44 40 30 9 60 25 65 35 5 10 12
51 16 92 5 72 4 77 -25 123 -17 27 -44 60 -59 75 -37 34 -136 88 -163 88 -12
0 -35 7 -52 16 -17 9 -42 14 -57 10 -14 -3 -60 -12 -101 -21 -96 -20 -128 -32
-164 -64 -34 -31 -76 -95 -76 -116 0 -8 -4 -23 -9 -33 -6 -9 -16 -37 -23 -61
-12 -42 -17 -47 -91 -83 -50 -25 -81 -47 -89 -63 -16 -35 0 -48 74 -63 35 -7
83 -17 108 -22 106 -21 116 -34 80 -108 -11 -22 -20 -48 -20 -56 0 -35 31
-126 64 -189 55 -104 51 -191 -15 -295 -21 -34 -103 -81 -162 -93 -29 -6 -68
-14 -87 -18 -80 -17 -129 -63 -171 -158 -26 -58 -30 -174 -10 -246 19 -65 94
-146 183 -198 67 -40 70 -42 64 -72 -9 -46 -41 -102 -59 -105 -16 -3 -65 29
-117 76 -48 43 -56 14 -22 -76 26 -73 47 -91 117 -102 59 -10 61 -10 83 17 13
16 48 56 77 90 l52 62 45 -23 c59 -30 81 -37 153 -47 33 -4 80 -12 105 -16
l45 -8 -1 -63 c0 -34 -5 -67 -11 -73 -6 -6 -159 -10 -399 -12 -323 -2 -394 -5
-418 -17 -40 -20 -42 -34 -9 -56 21 -14 54 -21 133 -25 58 -4 116 -10 130 -14
20 -5 22 -4 10 5 -12 9 -10 10 10 4 14 -4 71 -7 127 -6 56 2 104 -1 106 -5 6
-9 -219 -7 -383 5 -85 6 -122 12 -142 26 -30 20 -36 47 -14 65 27 22 178 32
500 30 373 -2 354 -6 352 78 -1 47 -1 48 -41 56 -22 5 -67 12 -100 16 -62 8
-150 35 -173 54 -15 12 -52 -20 -113 -100 -22 -28 -46 -54 -54 -57 -8 -3 -42
0 -77 5 -65 11 -108 38 -108 69 0 9 -7 30 -15 47 -25 50 -29 89 -10 97 17 6
43 -4 67 -26 7 -7 30 -26 52 -42 l39 -29 18 24 c24 30 42 85 34 99 -4 6 -29
22 -57 36 -79 40 -154 116 -179 183 -61 161 3 381 123 423 52 18 132 38 154
38 9 0 42 15 73 34 132 80 160 229 69 366 -23 36 -51 156 -43 188 4 15 14 42
23 61 23 50 24 50 -183 92 -79 16 -95 25 -95 52 0 37 23 59 101 97 80 39 80
39 105 125 37 130 85 186 178 209 33 8 86 21 116 29 73 19 112 20 136 2z m119
-83 c39 -22 79 -52 91 -70 12 -17 25 -28 29 -24 5 4 5 2 1 -5 -3 -6 -2 -14 4
-18 14 -9 13 -138 -2 -153 -13 -13 -198 -17 -198 -4 -1 4 -2 52 -4 107 -2 55
-8 121 -13 147 -15 72 -7 74 92 20z m-165 9 l45 -6 5 -59 c9 -98 0 -264 -15
-270 -36 -13 -355 33 -382 56 -18 14 -16 55 4 114 30 90 44 107 123 147 81 42
66 40 220 18z m-310 -319 c30 -13 66 -19 185 -32 50 -6 96 -12 103 -15 29 -11
8 -37 -58 -70 -54 -27 -82 -35 -124 -35 -30 0 -58 5 -61 10 -3 6 -17 10 -29
10 -13 0 -39 6 -57 14 -19 8 -69 20 -112 26 -70 12 -78 15 -75 34 3 20 10 25
103 69 43 20 53 22 75 11 14 -7 36 -17 50 -22z m456 -58 c32 -8 48 -77 48
-203 0 -102 -1 -108 -31 -151 -33 -48 -54 -125 -60 -225 -6 -76 17 -132 82
-198 54 -56 113 -85 196 -97 78 -11 146 -45 170 -84 11 -17 29 -62 40 -99 25
-79 22 -126 -11 -201 -24 -52 -113 -146 -170 -178 -19 -10 -62 -37 -95 -58
-33 -21 -68 -39 -78 -39 -10 -1 -50 -15 -90 -32 -65 -28 -82 -30 -170 -30
-136 2 -235 28 -302 82 -17 13 -77 48 -135 77 -141 71 -192 120 -219 207 -26
85 -26 125 0 206 38 117 73 146 214 175 123 25 188 71 239 169 22 42 26 63 26
130 0 75 -2 84 -31 123 -43 59 -60 141 -45 212 19 90 28 100 91 100 58 0 130
30 195 80 46 36 89 47 136 34z m-532 -1504 c39 -15 31 -38 -38 -112 -62 -68
-63 -68 -116 -68 -66 0 -90 18 -90 69 0 27 3 32 10 21 5 -8 10 -11 10 -6 0 4
16 -4 36 -19 24 -18 42 -25 57 -21 23 6 59 54 72 96 7 23 23 50 31 50 1 0 14
-4 28 -10z m1222 -285 c28 -8 58 -23 67 -33 17 -18 16 -20 0 -39 -39 -44 -75
-47 -550 -41 -247 3 -489 3 -540 -1 -50 -3 -89 -3 -87 1 2 3 -4 8 -13 10 -10
2 231 2 535 0 569 -3 602 -1 645 36 16 15 16 16 -10 34 -51 34 -99 38 -415 39
-172 1 -303 4 -290 8 13 3 154 5 315 4 222 -2 304 -6 343 -18z"/>
<path d="M2525 2418 c4 -24 9 -90 10 -148 l4 -105 81 -3 c52 -2 87 1 96 9 9 7
14 32 14 68 0 49 -5 62 -38 105 -32 43 -132 113 -166 115 -4 1 -5 -18 -1 -41z"/>
<path d="M2230 2417 c-73 -39 -92 -60 -120 -137 -36 -100 -29 -113 77 -135 78
-16 262 -35 279 -28 13 5 23 171 14 255 l-5 53 -45 7 c-133 21 -131 21 -200
-15z"/>
<path d="M2039 2137 c-8 -7 -32 -19 -54 -26 -40 -13 -75 -37 -75 -52 0 -4 19
-10 43 -14 79 -12 148 -28 153 -37 3 -4 20 -8 39 -8 19 0 37 -4 40 -10 13 -21
96 -10 161 21 101 49 98 54 -36 69 -141 16 -175 22 -184 31 -6 5 -17 9 -25 9
-8 0 -22 7 -31 15 -13 12 -19 12 -31 2z"/>
<path d="M2510 2052 c-9 -4 -36 -21 -60 -38 -71 -50 -134 -74 -189 -74 -58 0
-68 -11 -88 -95 -15 -66 0 -136 41 -190 30 -38 31 -42 31 -145 0 -93 -3 -109
-22 -137 -13 -17 -23 -35 -23 -40 0 -13 -48 -57 -95 -85 -22 -14 -69 -30 -105
-37 -132 -25 -171 -48 -208 -124 -49 -104 -53 -182 -13 -273 29 -65 89 -116
213 -178 58 -29 121 -65 140 -79 74 -55 149 -76 278 -78 84 -1 104 3 172 30
42 17 82 31 90 32 7 0 40 18 73 39 33 21 76 48 95 58 19 11 61 45 92 75 117
113 134 219 60 367 -31 63 -136 107 -269 114 -12 1 -19 3 -17 5 2 2 -11 14
-29 25 -51 32 -114 107 -131 156 -19 54 -20 122 -4 187 6 27 15 64 20 84 4 20
20 54 35 75 26 37 27 45 26 146 0 103 -13 163 -37 180 -13 9 -56 9 -76 0z
m-30 -769 c7 -27 14 -56 17 -65 3 -14 8 -16 23 -8 34 18 87 12 115 -14 21 -19
33 -23 64 -19 25 3 51 0 70 -10 20 -10 31 -11 31 -5 0 6 2 9 5 6 10 -10 -44
-93 -98 -150 -51 -56 -76 -68 -105 -50 -15 10 -5 42 12 42 18 0 118 108 111
120 -3 6 -25 2 -56 -10 -79 -31 -95 -27 -90 23 3 25 -23 31 -58 13 -16 -9 -36
-16 -43 -16 -13 0 -29 44 -43 118 -4 17 -10 32 -15 32 -5 0 -26 -20 -48 -45
-28 -32 -47 -68 -63 -120 -23 -74 -39 -91 -57 -59 -11 19 23 135 52 180 39 59
75 84 121 84 42 0 42 0 55 -47z"/>
<path d="M2369 1297 c-42 -35 -74 -87 -96 -154 -16 -48 -18 -65 -9 -72 9 -8
17 5 31 47 28 85 51 127 85 156 44 37 57 33 65 -16 5 -35 22 -93 30 -106 1 -1
19 5 39 13 49 21 80 12 73 -22 -6 -35 14 -39 76 -16 52 20 77 20 77 1 0 -19
-72 -100 -108 -121 -27 -16 -31 -22 -19 -29 8 -4 22 -5 30 -2 17 6 102 103
129 145 17 27 17 27 -13 39 -17 7 -45 10 -69 6 -34 -5 -42 -3 -63 20 -21 22
-31 26 -63 22 -22 -3 -47 -8 -56 -12 -13 -6 -18 -2 -23 21 -20 95 -24 103 -58
103 -19 0 -43 -9 -58 -23z"/>
</g>
</svg>
