<?xml version="1.0" standalone="no"?>
<!DOCTYPE svg PUBLIC "-//W3C//DTD SVG 20010904//EN"
 "http://www.w3.org/TR/2001/REC-SVG-20010904/DTD/svg10.dtd">
<svg version="1.0" xmlns="http://www.w3.org/2000/svg"
 width="498.000000pt" height="278.000000pt" viewBox="0 0 498.000000 278.000000"
 preserveAspectRatio="xMidYMid meet">
<metadata>
Created by potrace 1.16, written by Peter Selinger 2001-2019
</metadata>
<g transform="translate(0.000000,278.000000) scale(0.100000,-0.100000)"
fill="#000000" stroke="none">
<path d="M0 1390 l0 -1390 2490 0 2490 0 0 1390 0 1390 -2490 0 -2490 0 0
-1390z m2551 1216 c69 -28 143 -87 177 -141 20 -31 26 -54 28 -101 0 -34 4
-67 8 -73 4 -6 37 -30 72 -52 35 -23 69 -49 74 -59 53 -98 -100 -204 -229
-159 -41 15 -60 -1 -72 -63 -5 -23 -14 -65 -20 -93 -23 -108 -22 -139 5 -196
31 -64 46 -82 106 -130 53 -42 145 -79 199 -79 21 0 63 -5 95 -12 l57 -11 54
53 c62 61 100 69 138 31 18 -18 22 -33 22 -91 0 -58 3 -71 17 -76 27 -8 33
-52 15 -103 -11 -31 -13 -51 -6 -68 5 -13 6 -36 2 -51 -9 -40 -71 -132 -87
-132 -18 0 -100 -92 -153 -171 -46 -69 -83 -100 -147 -123 -48 -18 -48 -19
-41 -55 4 -20 10 -54 14 -76 9 -45 41 -115 52 -115 16 0 82 -81 100 -120 10
-22 24 -42 31 -45 7 -2 54 -6 103 -9 105 -5 129 -10 161 -31 26 -17 31 -47 12
-62 -38 -30 -118 -33 -730 -33 -617 0 -871 5 -938 16 -51 9 -90 32 -90 54 0
40 37 50 211 57 162 6 165 6 209 37 67 45 128 113 140 155 14 50 12 145 -4
212 -11 50 -22 66 -83 126 -50 49 -82 73 -114 82 -59 18 -120 81 -142 150 -17
54 -22 152 -10 212 7 36 71 105 138 148 213 137 273 248 245 455 -7 49 -18
103 -26 121 -12 30 -18 33 -71 39 -86 11 -134 25 -175 52 -46 30 -49 57 -8 81
17 9 30 20 30 24 0 5 86 48 110 54 45 13 66 50 42 74 -11 12 -13 30 -7 85 4
39 13 85 20 102 12 29 77 84 98 84 5 0 23 6 40 14 65 29 94 34 182 35 72 0
101 -4 146 -23z"/>
<path d="M2241 2589 c-131 -53 -154 -79 -166 -190 -5 -51 -4 -69 8 -80 7 -8
13 -26 13 -39 -2 -21 -15 -31 -74 -60 -39 -19 -83 -43 -97 -54 -13 -10 -32
-24 -41 -31 -40 -29 51 -80 170 -97 l88 -13 13 -38 c43 -124 39 -300 -7 -387
-35 -64 -109 -135 -203 -195 -59 -36 -124 -98 -139 -130 -18 -38 -21 -151 -6
-207 21 -73 117 -167 172 -168 9 0 49 -31 88 -70 65 -64 71 -74 86 -137 22
-95 15 -219 -16 -265 -23 -33 -99 -108 -111 -108 -4 0 -17 -9 -31 -20 -22 -17
-46 -20 -193 -24 -155 -4 -169 -6 -189 -26 l-21 -21 25 -19 c46 -36 149 -40
998 -40 632 0 695 3 724 37 10 13 8 19 -15 38 -33 25 -23 23 -156 31 -78 5
-105 3 -111 -6 -6 -10 -23 -4 -65 25 -42 27 -60 34 -68 26 -14 -14 0 -28 33
-34 24 -4 24 -4 -3 -6 -16 0 -35 6 -44 14 -14 14 -16 14 -27 -1 -9 -12 -24
-15 -59 -13 -26 2 -47 1 -47 -3 0 -5 -10 -8 -22 -7 l-23 0 23 9 c19 8 26 19
24 40 0 3 24 3 55 0 44 -5 60 -3 77 11 20 17 23 16 56 -3 19 -12 44 -30 56
-40 31 -27 34 -12 9 38 -23 45 -89 124 -104 124 -11 0 -51 96 -51 123 0 12 -7
44 -15 70 l-14 48 34 15 c19 8 38 14 43 14 22 0 90 67 132 128 39 59 79 102
170 186 14 13 36 45 49 71 19 39 22 52 12 66 -15 25 -14 41 4 75 8 16 15 39
15 51 0 21 -24 53 -40 53 -4 0 -5 29 -3 64 5 62 4 66 -25 95 -17 17 -35 31
-41 31 -6 0 -39 -25 -72 -56 -59 -54 -63 -56 -103 -49 -22 4 -72 11 -111 15
-38 4 -79 11 -90 15 -179 62 -288 222 -246 359 6 17 15 58 21 91 7 33 18 75
26 94 13 29 18 32 42 27 15 -4 52 -9 82 -12 49 -4 60 -1 103 26 89 57 89 109
-1 167 -97 63 -102 69 -95 123 7 64 -25 128 -92 186 -84 71 -144 94 -250 94
-77 -1 -101 -5 -164 -31z m406 -86 c75 -80 96 -133 52 -133 -13 0 -19 -5 -16
-13 3 -7 -1 -21 -9 -32 -8 -10 -14 -14 -14 -7 0 6 -12 18 -27 26 -16 8 -23 15
-18 16 6 0 21 -7 33 -16 24 -16 30 -7 10 15 -10 11 -10 13 0 7 6 -4 12 -3 12
3 0 6 -12 14 -27 17 -47 11 -63 32 -63 84 0 38 12 70 28 70 2 0 19 -17 39 -37z
m-208 -133 c51 -6 99 -14 105 -18 6 -4 27 -12 46 -17 l35 -11 -1 -69 c-1 -81
-18 -183 -40 -240 -9 -22 -20 -62 -24 -90 -4 -27 -13 -77 -20 -110 -28 -140
53 -277 213 -356 46 -22 84 -32 180 -43 67 -7 138 -13 157 -12 35 1 35 0 34
-38 -1 -31 -9 -46 -33 -68 -33 -30 -28 -42 16 -33 23 4 24 4 8 -4 -60 -29 -78
4 -29 53 43 43 45 82 4 79 -14 -1 -82 5 -153 12 -162 18 -234 49 -318 136 -49
50 -62 71 -80 130 -20 65 -20 77 -9 138 6 36 16 91 20 121 5 31 16 72 24 91
21 51 39 153 40 229 l1 65 -68 22 c-81 27 -225 36 -306 20 -55 -12 -123 -60
-105 -76 5 -4 45 -13 89 -20 83 -14 95 -21 95 -58 0 -14 11 -30 28 -40 15 -10
33 -23 40 -30 11 -11 11 -13 -2 -13 -9 0 -16 3 -16 8 0 4 -13 14 -29 24 -22
12 -30 25 -33 50 -3 31 -6 34 -53 45 -27 6 -67 12 -87 12 -37 1 -43 7 -38 41
2 17 29 50 39 48 3 -1 13 1 21 5 63 24 136 29 249 17z m336 -135 c43 -27 82
-49 87 -48 4 2 7 0 6 -5 -1 -4 2 -20 7 -35 16 -59 -68 -104 -169 -92 -74 10
-81 16 -67 55 6 18 11 50 11 71 0 21 5 41 11 44 6 4 8 14 4 22 -8 24 4 55 19
46 7 -5 48 -30 91 -58z m-526 -15 c30 0 33 -2 28 -26 -4 -21 2 -30 34 -51 41
-27 43 -31 31 -49 -31 -44 -369 -41 -415 5 -19 19 3 43 74 81 69 37 124 51
179 44 19 -2 50 -4 69 -4z m141 -145 c-15 -18 -96 -45 -136 -45 -18 0 -36 -5
-39 -10 -4 -6 -11 -7 -17 -4 -8 5 -9 -1 -4 -17 15 -53 36 -187 36 -229 -1
-100 -48 -218 -116 -285 -23 -23 -79 -67 -125 -98 -97 -64 -132 -98 -153 -149
-24 -56 -21 -84 16 -189 19 -53 105 -119 155 -119 8 0 37 -25 64 -55 51 -55
103 -93 136 -99 10 -2 42 -12 70 -21 70 -23 181 -17 245 13 57 27 64 27 111 3
54 -28 132 -44 181 -39 93 11 160 63 233 183 16 28 44 65 61 84 18 18 32 37
32 41 0 12 -27 31 -57 39 -30 8 -47 51 -21 51 8 0 29 16 48 35 25 26 34 44 34
69 0 19 4 32 9 29 5 -3 7 -21 3 -41 -6 -37 -59 -102 -84 -102 -25 0 -7 -23 27
-35 45 -15 56 -37 36 -74 -8 -17 -21 -34 -28 -38 -7 -4 -39 -48 -71 -96 -60
-92 -98 -124 -172 -145 -73 -21 -159 -10 -240 30 l-40 21 -66 -27 c-76 -30
-169 -35 -240 -12 -24 7 -63 19 -88 26 -33 9 -61 29 -112 80 -50 50 -80 71
-114 81 -57 17 -111 70 -125 123 -6 23 -15 51 -20 64 -21 54 2 146 49 195 15
16 65 54 111 84 109 73 159 124 199 206 51 103 52 193 6 399 -6 25 -4 27 42
33 78 9 125 25 148 48 22 23 36 16 16 -8z m271 -1391 c22 -30 53 -78 67 -105
15 -27 33 -59 39 -72 18 -32 16 -123 -3 -164 -29 -59 -46 -65 -201 -64 -76 1
-161 2 -190 4 -56 2 -80 -16 -68 -54 10 -29 -21 -36 -49 -10 -26 24 -70 27
-106 6 -53 -30 -94 -9 -64 33 15 22 3 39 -18 26 -7 -5 -31 -9 -53 -11 -36 -2
-34 -1 18 13 70 19 90 10 63 -31 -15 -23 -15 -26 0 -32 9 -3 31 2 50 11 47 22
97 21 119 -4 10 -11 21 -18 25 -15 4 2 4 35 1 72 -9 116 -6 265 8 341 l13 72
71 0 c48 0 89 7 122 20 87 33 108 28 156 -36z m-411 40 c31 -7 32 -9 26 -43
-15 -83 -17 -113 -17 -249 1 -106 -2 -144 -11 -146 -54 -17 -78 -14 -107 10
-17 14 -36 22 -42 18 -8 -4 -9 -3 -5 4 4 7 2 12 -4 12 -7 0 9 23 34 51 26 28
50 63 54 78 10 35 9 176 -1 229 -8 40 -8 42 16 42 13 0 39 -3 57 -6z m461 -38
c1 5 1 13 0 18 -1 5 5 6 13 3 8 -3 30 -9 48 -12 44 -8 55 -28 69 -117 14 -91
20 -103 80 -158 40 -36 47 -48 38 -60 -9 -13 -10 -13 -6 1 7 21 -39 23 -70 3
-13 -8 -33 -12 -46 -9 -21 6 -23 12 -24 68 0 52 -7 73 -38 132 -21 39 -53 88
-71 109 -19 22 -34 44 -34 49 0 6 9 0 20 -13 11 -13 21 -19 21 -14z"/>
<path d="M2679 2277 c-1 -1 -3 -13 -5 -27 -8 -58 -23 -136 -29 -152 -9 -22 28
-33 108 -33 51 1 61 4 89 32 29 29 31 34 19 55 -13 23 -102 88 -121 88 -5 0
-10 3 -10 8 0 6 -48 33 -51 29z"/>
<path d="M2110 2211 c-40 -8 -136 -55 -162 -78 -24 -21 -9 -39 40 -48 60 -11
251 -17 270 -9 9 4 25 9 36 11 46 9 49 19 12 42 -36 22 -40 30 -37 64 2 12 -5
17 -26 17 -15 0 -44 2 -63 4 -19 3 -51 1 -70 -3z"/>
<path d="M2505 709 c-31 -12 -75 -19 -117 -19 -64 0 -67 -1 -72 -27 -25 -126
-32 -247 -18 -328 l7 -40 60 -3 c130 -5 328 -1 345 8 34 18 60 74 60 129 0 43
-7 65 -42 124 -23 40 -59 96 -80 125 -44 59 -60 63 -143 31z"/>
<path d="M2185 703 c14 -36 18 -182 6 -230 -8 -29 -29 -68 -54 -98 -22 -27
-37 -47 -32 -42 5 4 22 -6 39 -22 27 -26 36 -29 66 -22 l35 7 1 124 c1 124 7
196 19 256 6 27 4 32 -17 37 -12 4 -34 7 -47 7 -18 0 -22 -4 -16 -17z"/>
<path d="M2717 683 c-4 -3 1 -16 11 -27 11 -12 27 -37 37 -56 10 -19 22 -42
26 -50 23 -39 31 -70 32 -123 1 -46 5 -58 21 -63 10 -3 21 -2 25 2 11 16 48
33 58 26 5 -4 -8 9 -28 28 -42 41 -56 71 -65 142 -11 93 -37 127 -95 128 -9 0
-19 -3 -22 -7z"/>
</g>
</svg>
