<?xml version="1.0" standalone="no"?>
<!DOCTYPE svg PUBLIC "-//W3C//DTD SVG 20010904//EN"
 "http://www.w3.org/TR/2001/REC-SVG-20010904/DTD/svg10.dtd">
<svg version="1.0" xmlns="http://www.w3.org/2000/svg"
 width="498.000000pt" height="278.000000pt" viewBox="0 0 498.000000 278.000000"
 preserveAspectRatio="xMidYMid meet">
<metadata>
Created by potrace 1.16, written by Peter Selinger 2001-2019
</metadata>
<g transform="translate(0.000000,278.000000) scale(0.100000,-0.100000)"
fill="#000000" stroke="none">
<path d="M0 1390 l0 -1390 2490 0 2490 0 0 1390 0 1390 -2490 0 -2490 0 0
-1390z m2624 1247 c116 -58 118 -62 118 -214 0 -206 -25 -370 -68 -446 -77
-138 -76 -137 -69 -216 10 -110 24 -137 110 -222 44 -43 154 -109 182 -109 33
0 124 -53 158 -92 45 -53 53 -71 66 -164 13 -84 3 -120 -57 -210 -34 -53 -124
-127 -194 -160 -28 -14 -190 -136 -190 -143 0 -13 60 -91 69 -91 6 0 13 4 16
10 3 6 15 10 26 10 26 0 24 -24 -5 -82 -13 -25 -28 -60 -34 -76 -9 -27 -16
-31 -64 -37 -29 -3 -73 -7 -98 -8 -39 -2 -45 1 -46 19 -1 14 13 34 37 55 22
19 39 37 39 41 0 12 -57 92 -83 116 -18 17 -45 26 -93 33 -59 9 -132 27 -183
47 -29 11 4 -245 47 -366 l15 -42 71 -1 c39 -1 190 -1 336 0 496 5 536 3 589
-30 32 -19 40 -49 19 -66 -38 -30 -117 -33 -795 -32 -378 0 -735 4 -793 8
-121 7 -173 28 -168 64 6 42 47 50 267 54 226 4 225 3 274 75 26 38 28 49 24
98 -5 59 -22 114 -69 227 -24 60 -38 78 -77 106 -62 45 -141 137 -158 184 -7
21 -18 73 -24 117 -19 144 15 225 160 380 144 154 212 280 211 393 -1 73 -26
113 -90 145 -30 16 -60 28 -67 28 -33 0 -133 78 -133 104 0 25 30 86 43 86 6
1 36 23 65 51 51 47 54 53 63 117 14 105 33 162 60 183 31 25 121 69 140 69 8
0 19 4 25 9 17 17 48 20 153 17 94 -4 109 -7 175 -39z"/>
<path d="M2300 2651 c-165 -66 -181 -80 -203 -173 -9 -40 -19 -93 -22 -116 -5
-36 -14 -52 -58 -92 -28 -27 -58 -49 -64 -50 -13 0 -43 -50 -43 -70 0 -28 72
-76 180 -120 71 -29 85 -42 100 -95 36 -129 -36 -297 -200 -471 -90 -95 -148
-182 -160 -242 -13 -57 0 -186 24 -242 18 -44 115 -151 162 -181 27 -16 44
-40 66 -88 47 -105 80 -229 75 -283 -5 -58 -44 -118 -92 -144 -39 -21 -41 -26
-21 -43 10 -8 21 -9 42 0 16 6 45 8 64 5 19 -3 63 -2 97 3 47 5 60 4 53 -4 -6
-7 -9 -14 -7 -16 1 -2 -2 -1 -8 3 -15 13 -63 9 -78 -7 -10 -9 -17 -11 -19 -4
-4 13 -72 16 -116 5 -31 -7 -34 -6 -45 24 l-12 33 -188 -6 c-150 -4 -192 -8
-212 -21 -32 -21 -31 -29 3 -52 40 -28 144 -31 925 -33 699 -1 760 2 789 36
10 13 8 19 -16 38 -47 37 -69 39 -646 34 l-355 -3 -16 50 c-30 90 -50 198 -56
297 l-6 98 54 -22 c30 -11 68 -23 84 -26 131 -18 153 -25 182 -56 33 -35 73
-98 73 -115 0 -6 -18 -29 -40 -52 -60 -62 -52 -66 103 -43 32 4 41 11 54 41 8
21 24 56 35 80 21 42 18 66 -4 44 -7 -7 -20 -12 -30 -12 -20 0 -78 74 -78 101
0 17 133 120 210 164 70 39 146 104 176 151 61 95 66 111 59 177 -11 88 -20
114 -61 164 -43 53 -80 77 -149 99 -85 27 -148 63 -200 114 -27 27 -54 54 -60
62 -27 36 -43 92 -49 169 -7 80 -5 87 23 139 74 137 82 161 97 273 8 62 15
172 16 245 0 154 4 146 -120 209 -66 33 -81 36 -170 39 -76 3 -107 0 -142 -15z
m288 -38 c21 -9 49 -25 63 -34 14 -10 29 -15 33 -12 4 4 4 0 1 -9 -4 -9 -2
-19 4 -23 18 -10 14 -153 -5 -184 -19 -33 -96 -71 -141 -71 l-33 0 0 53 c0 29
-4 57 -8 62 -5 6 -14 35 -22 65 -7 30 -19 64 -26 75 -50 71 38 122 134 78z
m-172 -50 c4 -10 15 -37 25 -60 21 -47 38 -130 46 -215 4 -51 3 -58 -18 -68
-46 -25 -248 12 -327 60 -31 19 -32 21 -32 95 0 41 4 83 9 93 6 9 12 29 15 43
4 18 17 31 43 42 59 25 63 25 151 26 70 1 83 -2 88 -16z m-302 -292 c9 -10 38
-26 64 -35 26 -10 55 -21 64 -27 10 -5 33 -9 52 -9 19 0 38 -4 41 -10 3 -5 40
-10 81 -10 53 0 74 -4 74 -12 0 -15 -79 -93 -126 -126 -25 -17 -47 -22 -108
-23 -46 -1 -82 3 -89 10 -6 6 -18 11 -27 11 -9 0 -34 8 -56 19 -21 10 -56 26
-76 36 -21 9 -38 22 -38 27 0 5 -4 7 -8 4 -4 -2 -9 5 -10 17 -3 29 7 71 15 63
3 -3 28 15 55 39 56 50 67 53 92 26z m576 -51 c0 -5 -5 -44 -11 -87 -11 -78
-39 -148 -93 -227 -27 -40 -31 -68 -27 -176 3 -74 23 -112 104 -197 50 -53 88
-82 140 -108 40 -19 78 -35 84 -35 7 0 36 -11 65 -23 54 -24 108 -84 108 -119
0 -9 5 -20 10 -23 6 -3 10 -42 10 -86 0 -76 -2 -82 -41 -145 -41 -64 -79 -94
-119 -94 -11 0 -23 -6 -26 -14 -6 -14 -92 -82 -203 -161 l-55 -38 -136 6
c-133 5 -183 16 -262 58 -10 5 -31 9 -47 9 -43 0 -157 54 -176 84 -10 14 -23
26 -29 26 -24 0 -84 77 -106 135 -16 43 -23 83 -23 145 -2 114 5 126 185 335
90 104 135 176 165 260 29 84 33 125 19 189 -12 52 -12 55 8 60 12 3 41 6 66
6 58 1 89 18 200 115 51 44 108 90 128 102 33 20 62 21 62 3z m-493 -1502 c4
-7 9 -31 10 -53 4 -80 23 -212 41 -280 23 -87 20 -102 -24 -107 -35 -4 -94 14
-94 29 1 4 14 24 30 43 24 27 30 44 30 80 -1 51 -18 126 -49 215 -12 33 -19
65 -17 72 7 17 62 17 73 1z"/>
<path d="M2467 2602 c-19 -20 -22 -48 -8 -56 5 -4 17 -32 26 -64 9 -31 21 -67
26 -80 5 -13 9 -43 9 -67 0 -43 1 -45 29 -45 33 0 97 34 123 65 22 25 24 140
4 180 -18 34 -110 84 -157 85 -22 0 -42 -7 -52 -18z"/>
<path d="M2215 2560 c-39 -12 -75 -45 -75 -70 0 -10 -4 -22 -10 -25 -5 -3 -10
-39 -10 -80 0 -69 2 -75 28 -93 61 -43 245 -83 307 -68 26 7 27 9 22 64 -8 87
-23 152 -50 218 l-25 59 -79 2 c-43 1 -92 -2 -108 -7z"/>
<path d="M2016 2225 c-56 -51 -59 -56 -48 -80 22 -48 204 -119 296 -116 67 2
91 16 169 92 l49 47 -74 6 c-94 6 -160 16 -173 26 -5 4 -33 15 -61 24 -29 9
-60 26 -69 36 -10 11 -21 20 -24 20 -3 0 -33 -25 -65 -55z"/>
<path d="M2628 2202 c-20 -15 -77 -61 -125 -103 -111 -96 -124 -102 -203 -109
-62 -5 -65 -6 -62 -30 6 -63 2 -172 -6 -183 -6 -7 -16 -32 -23 -57 -7 -25 -22
-58 -34 -75 -11 -16 -26 -41 -32 -55 -6 -14 -55 -74 -107 -135 -53 -60 -113
-135 -134 -165 -36 -53 -37 -57 -36 -140 1 -60 8 -101 23 -142 21 -55 34 -69
147 -167 40 -34 123 -71 160 -71 12 0 54 -14 95 -31 66 -27 89 -31 205 -36
l130 -6 55 38 c111 79 197 147 203 161 3 8 15 14 26 14 40 0 78 30 119 94 37
59 41 72 41 130 0 134 -57 207 -195 249 -88 26 -153 68 -223 141 -79 84 -99
121 -103 196 -2 30 -8 61 -14 69 -7 11 -7 13 3 7 9 -5 12 3 12 31 1 39 7 52
72 164 28 49 39 83 47 143 6 44 8 83 4 87 -5 4 -25 -4 -45 -19z m-94 -908 c3
-7 1 -16 -4 -19 -6 -4 -10 -12 -10 -20 0 -9 17 -5 59 16 33 16 77 31 98 32 32
2 38 -1 41 -20 3 -18 12 -23 50 -29 54 -7 82 -28 82 -58 0 -29 -6 -36 -77 -95
-65 -53 -78 -59 -86 -38 -8 22 7 45 56 82 26 20 47 40 47 45 0 5 -28 10 -62
12 -41 2 -63 7 -63 15 0 7 -5 17 -12 24 -13 13 -50 -5 -115 -54 -40 -31 -80
-30 -77 1 1 9 1 23 0 30 -2 20 -76 -70 -101 -125 -13 -26 -24 -49 -25 -51 -1
-1 -10 0 -19 4 -44 17 11 123 113 216 62 56 92 65 105 32z"/>
<path d="M2434 1248 c-58 -54 -124 -145 -124 -172 0 -23 19 -30 26 -9 11 36
40 88 63 113 13 14 30 34 38 45 14 20 14 20 28 1 8 -10 12 -23 8 -29 -3 -5 0
-13 8 -17 8 -6 26 1 48 19 48 37 106 62 125 55 8 -3 18 -14 21 -25 5 -16 16
-19 70 -19 58 0 63 -2 58 -20 -3 -11 -24 -34 -47 -52 -50 -38 -67 -58 -60 -69
6 -11 126 86 138 112 14 28 -17 56 -71 64 -32 5 -47 12 -50 25 -10 37 -56 32
-140 -14 -25 -15 -49 -26 -54 -26 -12 0 -11 37 1 45 13 8 3 25 -15 25 -7 0
-39 -24 -71 -52z"/>
<path d="M2136 711 c-3 -4 4 -32 15 -62 28 -78 49 -173 49 -227 0 -38 -6 -55
-30 -84 l-30 -37 22 -7 c31 -10 81 -6 89 7 6 10 -13 108 -25 128 -7 10 -26
164 -30 231 -1 19 -5 41 -9 48 -9 14 -43 16 -51 3z"/>
</g>
</svg>
