<?xml version="1.0" standalone="no"?>
<!DOCTYPE svg PUBLIC "-//W3C//DTD SVG 20010904//EN"
 "http://www.w3.org/TR/2001/REC-SVG-20010904/DTD/svg10.dtd">
<svg version="1.0" xmlns="http://www.w3.org/2000/svg"
 width="498.000000pt" height="278.000000pt" viewBox="0 0 498.000000 278.000000"
 preserveAspectRatio="xMidYMid meet">
<metadata>
Created by potrace 1.16, written by Peter Selinger 2001-2019
</metadata>
<g transform="translate(0.000000,278.000000) scale(0.100000,-0.100000)"
fill="#000000" stroke="none">
<path d="M0 1390 l0 -1390 2490 0 2490 0 0 1390 0 1390 -2490 0 -2490 0 0
-1390z m2451 1048 c21 -6 41 -19 44 -28 3 -11 27 -25 58 -35 86 -27 136 -55
163 -91 24 -31 27 -45 32 -144 l5 -109 -28 -11 c-34 -13 -23 -29 37 -55 121
-50 118 -47 118 -86 0 -31 -5 -40 -37 -61 -21 -13 -64 -32 -95 -41 -54 -17
-59 -21 -100 -90 -66 -108 -71 -126 -66 -218 6 -103 33 -143 143 -217 120 -79
171 -145 201 -259 19 -72 18 -145 -3 -212 -19 -58 -25 -65 -150 -171 -77 -65
-77 -65 -73 -160 2 -59 15 -77 75 -105 22 -11 25 -14 11 -15 -28 0 -86 41 -91
65 -3 11 -6 49 -9 85 l-4 65 57 53 c31 30 75 68 98 84 81 59 113 186 78 310
-30 107 -83 173 -200 250 -45 30 -92 71 -108 95 -26 36 -30 52 -34 130 -6 99
3 129 71 242 32 52 40 59 92 75 84 27 134 62 134 96 0 22 -7 30 -42 45 -152
63 -168 78 -112 103 22 11 24 17 24 84 -1 93 -12 144 -42 175 -25 27 -96 63
-165 84 -24 7 -45 20 -48 30 -3 10 -21 23 -40 29 -37 12 -69 2 -92 -30 -7 -10
-25 -21 -40 -25 -71 -17 -192 -90 -224 -135 -14 -21 -24 -80 -29 -172 0 -3
-24 -11 -52 -17 -103 -21 -180 -46 -186 -60 -3 -8 5 -22 17 -32 26 -21 102
-18 172 6 23 8 54 15 69 15 l28 0 4 -94 c3 -90 4 -95 40 -141 85 -109 68 -271
-40 -365 -29 -26 -55 -40 -72 -40 -36 0 -159 64 -187 97 -17 21 -24 24 -36 15
-22 -18 -30 -111 -12 -139 33 -50 8 -73 -90 -82 -56 -6 -60 -8 -63 -33 -2 -20
7 -38 37 -71 57 -62 51 -97 -15 -97 -18 0 -35 -4 -39 -9 -9 -16 120 -139 156
-148 25 -7 41 -23 78 -86 60 -99 144 -185 218 -223 69 -36 98 -83 112 -184 15
-112 33 -105 -277 -105 -233 -1 -271 -3 -299 -18 -18 -10 -33 -22 -33 -27 0
-22 69 -44 165 -51 113 -9 385 -12 430 -4 27 5 27 4 7 -5 -27 -12 -298 -12
-437 -1 -117 9 -175 30 -175 61 0 15 11 26 38 37 31 14 81 16 297 17 288 1
287 1 278 66 -16 126 -38 164 -117 204 -71 36 -157 125 -217 224 -38 62 -53
79 -80 87 -42 12 -161 130 -157 153 2 12 15 18 40 20 20 2 42 10 49 18 10 12
6 22 -26 54 -32 32 -38 46 -39 82 l-1 43 60 5 c51 5 105 22 105 34 0 2 -7 17
-15 32 -15 30 -12 111 7 147 12 24 43 21 61 -6 16 -24 151 -97 180 -97 10 0
42 24 71 53 88 88 110 218 50 299 -50 68 -64 109 -64 191 0 74 -1 77 -24 77
-13 0 -42 -7 -65 -15 -109 -38 -206 -22 -199 33 3 27 21 33 166 66 35 7 65 16
68 18 2 3 7 29 9 59 9 97 15 115 43 141 40 37 141 95 189 107 23 7 48 20 56
31 11 16 45 36 66 39 2 1 21 -4 42 -11z m260 -242 c8 -43 7 -61 -2 -72 -9 -11
-9 -17 1 -29 7 -8 10 -21 7 -29 -5 -12 -41 -15 -194 -16 -103 -1 -221 -5 -260
-9 -65 -6 -74 -5 -79 11 -3 10 -3 22 1 27 3 6 109 10 252 11 225 0 281 4 245
17 -8 3 -6 10 9 21 18 15 19 22 10 62 -12 49 -14 76 -6 68 3 -2 10 -31 16 -62z
m-150 -193 c0 -10 0 -37 -1 -59 -1 -23 3 -45 9 -48 11 -7 31 54 31 97 0 23 4
27 27 27 l26 0 -7 -132 c-6 -118 -9 -136 -33 -177 -71 -121 -73 -127 -73 -224
1 -67 5 -100 18 -123 30 -55 85 -111 142 -144 100 -58 149 -119 182 -225 34
-114 19 -216 -42 -272 -19 -18 -66 -61 -105 -96 -78 -72 -121 -97 -212 -122
-115 -32 -270 -3 -418 77 -103 55 -209 182 -239 285 -5 16 -18 23 -49 28 -29
5 -54 18 -79 43 -21 20 -38 40 -38 44 0 4 18 25 40 45 46 44 50 65 16 81 -35
16 -76 53 -76 69 0 7 11 13 24 13 14 0 27 4 30 9 3 4 23 11 45 15 25 4 47 15
60 32 l20 25 -20 39 c-22 41 -18 80 6 80 7 0 53 -21 101 -46 l87 -46 40 18
c21 10 59 41 83 68 84 96 105 239 48 332 -46 76 -66 126 -66 170 0 55 18 111
40 124 9 5 99 10 200 10 166 0 182 -1 183 -17z m209 -86 c80 -28 85 -49 20
-83 -25 -13 -59 -26 -76 -30 l-31 -6 -5 53 c-6 59 -1 89 16 89 6 0 40 -11 76
-23z m-510 -1432 l30 -16 0 -95 c0 -87 2 -96 20 -101 11 -3 20 -9 20 -14 0
-15 -48 -41 -72 -37 -21 3 -23 8 -24 63 -1 69 -10 132 -22 166 -10 26 -6 49 9
49 6 0 23 -7 39 -15z m322 -45 c16 -20 19 -34 15 -72 -10 -81 -17 -88 -100
-90 -40 0 -85 -2 -100 -2 -16 -1 -42 4 -59 11 -30 13 -30 13 -25 76 4 51 12
102 16 102 1 0 53 0 117 0 111 0 116 -1 136 -25z"/>
<path d="M2192 2003 c-22 -9 -43 -63 -44 -113 0 -35 7 -61 26 -92 58 -97 69
-130 69 -208 0 -129 -70 -247 -168 -284 l-46 -18 -91 46 c-104 52 -125 50 -93
-10 10 -20 18 -45 18 -56 -2 -25 -31 -58 -52 -59 -9 0 -40 -8 -69 -18 l-53
-17 26 -22 c15 -13 37 -28 51 -34 39 -18 32 -59 -16 -98 l-41 -33 37 -38 c28
-28 49 -40 81 -45 36 -5 44 -11 50 -33 22 -91 138 -225 244 -283 147 -80 291
-105 406 -72 76 22 118 47 188 114 33 31 76 68 96 83 148 107 77 396 -121 497
-54 28 -116 93 -141 148 -14 32 -19 66 -19 132 0 96 10 130 66 217 32 51 34
58 40 178 6 108 5 125 -8 125 -11 0 -17 -14 -22 -45 -8 -59 -22 -86 -42 -78
-11 4 -15 18 -14 52 1 25 1 52 1 59 -1 9 -42 12 -173 11 -95 0 -179 -3 -186
-6z m131 -740 c32 -5 37 -9 35 -27 -2 -12 -9 -20 -18 -18 -41 10 -154 3 -166
-10 -12 -11 -7 -20 31 -58 64 -64 62 -93 -7 -125 -29 -14 -58 -25 -64 -25 -6
0 -17 -7 -24 -15 -17 -20 -1 -38 58 -66 87 -41 99 -64 60 -107 l-23 -25 60 7
c33 4 77 9 98 12 33 6 37 4 37 -15 0 -13 -8 -22 -22 -26 -171 -38 -184 -38
-227 -6 -18 14 -22 24 -18 43 6 23 57 58 57 38 0 -5 -9 -11 -19 -15 -20 -6
-35 -31 -26 -45 2 -4 20 -15 39 -24 32 -15 40 -15 116 3 44 10 84 21 87 25 15
15 -11 18 -58 8 -49 -12 -167 -16 -140 -5 11 5 11 7 0 14 -11 7 -11 9 2 9 9 0
24 9 34 20 18 20 18 21 -5 45 -13 14 -31 25 -40 25 -25 0 -97 55 -97 74 0 9
18 22 46 33 98 37 136 76 99 100 -26 17 -69 70 -73 91 -5 26 30 35 128 34 37
-1 67 2 67 6 0 15 -108 34 -129 22 -11 -5 -32 -10 -47 -10 -15 0 -35 -7 -45
-16 -17 -15 -17 -19 -2 -48 9 -17 27 -42 40 -56 51 -51 50 -54 -42 -95 -61
-27 -85 -43 -85 -56 0 -20 57 -70 115 -100 34 -18 36 -20 11 -14 -54 12 -139
82 -141 116 -1 16 16 29 83 60 l84 40 -18 22 c-11 12 -24 26 -31 32 -7 5 -19
26 -27 46 -21 50 -1 79 52 79 20 0 44 5 52 10 8 6 26 8 40 5 14 -3 42 -8 63
-12z"/>
<path d="M2338 443 c-5 -7 -12 -39 -15 -72 -5 -57 -5 -60 23 -73 35 -18 202
-13 221 5 7 7 16 33 19 57 5 37 2 50 -14 70 -19 24 -26 25 -122 25 -67 0 -105
-4 -112 -12z"/>
</g>
</svg>
