<?xml version="1.0" standalone="no"?>
<!DOCTYPE svg PUBLIC "-//W3C//DTD SVG 20010904//EN"
 "http://www.w3.org/TR/2001/REC-SVG-20010904/DTD/svg10.dtd">
<svg version="1.0" xmlns="http://www.w3.org/2000/svg"
 width="498.000000pt" height="278.000000pt" viewBox="0 0 498.000000 278.000000"
 preserveAspectRatio="xMidYMid meet">
<metadata>
Created by potrace 1.16, written by Peter Selinger 2001-2019
</metadata>
<g transform="translate(0.000000,278.000000) scale(0.100000,-0.100000)"
fill="#000000" stroke="none">
<path d="M0 1390 l0 -1390 2490 0 2490 0 0 1390 0 1390 -2490 0 -2490 0 0
-1390z m2560 1286 c62 -38 74 -45 110 -65 68 -37 75 -52 75 -160 0 -53 -3
-115 -7 -137 l-8 -42 44 -11 c25 -6 60 -11 78 -11 44 0 58 -15 58 -60 0 -44
-18 -62 -83 -84 -73 -25 -105 -44 -124 -74 -9 -15 -24 -36 -34 -47 -9 -11 -31
-48 -48 -81 -26 -52 -31 -73 -31 -136 0 -130 36 -197 187 -344 100 -99 123
-137 143 -241 18 -89 9 -140 -40 -235 -62 -122 -187 -240 -272 -257 -42 -9
-59 -52 -66 -174 -3 -70 -1 -91 11 -105 15 -16 27 -135 15 -147 -2 -3 -6 23
-7 57 -1 34 -9 71 -17 82 -18 27 -18 141 1 220 14 59 26 76 56 76 25 0 128 73
180 127 61 63 139 215 139 271 0 57 -19 140 -42 185 -11 21 -67 87 -126 145
-59 59 -112 119 -118 132 -44 94 -54 132 -54 201 0 79 12 122 50 185 77 126
92 140 176 163 58 15 94 46 94 80 0 34 -17 51 -51 51 -15 0 -51 5 -79 12 -48
11 -51 13 -46 37 4 14 9 73 12 131 8 129 5 134 -130 214 -90 54 -98 56 -169
59 -43 1 -80 -3 -88 -9 -8 -6 -45 -22 -83 -34 -122 -40 -171 -106 -191 -255
-10 -79 -12 -82 -99 -139 -136 -88 -157 -142 -73 -190 78 -45 112 -51 160 -28
78 37 89 34 114 -28 32 -79 30 -146 -7 -230 -16 -38 -30 -72 -30 -77 -1 -23
-150 -207 -150 -185 0 6 23 37 51 69 56 64 68 83 116 193 40 90 43 149 11 222
-20 47 -23 49 -50 44 -16 -3 -45 -13 -63 -22 -30 -14 -38 -14 -85 0 -61 18
-116 50 -124 72 -21 55 13 101 129 177 l80 52 11 70 c22 149 72 229 156 253
18 6 65 22 103 35 85 31 178 28 235 -7z m-110 -20 c0 -8 -6 -17 -12 -19 -8 -3
-6 -6 5 -6 9 -1 17 4 17 9 0 17 58 11 105 -11 64 -30 135 -95 135 -124 0 -13
5 -27 10 -30 18 -11 12 -93 -9 -114 -13 -13 -16 -23 -9 -35 14 -25 2 -46 -25
-46 -13 0 -27 -4 -32 -9 -15 -13 -139 -47 -236 -65 -108 -20 -109 -20 -109 3
0 16 11 22 58 30 128 24 167 34 177 41 6 4 26 10 45 13 46 7 110 30 110 40 0
8 -47 -1 -65 -12 -5 -3 -35 -12 -65 -19 -30 -7 -73 -17 -95 -23 -59 -15 -156
-26 -161 -18 -2 4 -8 28 -13 53 -6 35 -5 46 4 46 8 0 11 -8 8 -20 -3 -11 -2
-31 1 -46 7 -25 9 -26 64 -21 71 7 124 17 137 27 6 5 31 11 58 15 26 4 50 11
53 16 3 5 16 9 28 9 37 0 76 43 76 84 0 19 -4 38 -10 41 -5 3 -10 17 -10 30 0
30 -90 112 -145 131 -47 16 -75 18 -75 4 0 -5 -9 -10 -20 -10 -11 0 -20 -4
-20 -9 0 -5 -14 -13 -32 -16 -17 -4 -39 -15 -47 -24 -9 -9 -12 -11 -8 -4 5 6
6 17 2 23 -4 6 5 10 22 10 16 0 38 6 49 14 17 13 15 14 -23 9 -38 -5 -43 -3
-43 15 0 24 12 30 63 31 26 1 37 -3 37 -13z m-132 -50 c2 -10 -7 -41 -21 -69
-33 -71 -51 -166 -43 -224 9 -59 9 -83 1 -91 -8 -8 -74 16 -117 44 -37 24 -38
25 -38 88 0 61 23 149 51 195 24 38 108 81 149 76 8 -1 17 -10 18 -19z m355
-368 c5 -15 0 -143 -8 -176 -3 -12 -27 -57 -53 -99 -40 -66 -47 -84 -47 -129
0 -28 -3 -50 -7 -48 -4 2 -9 -4 -13 -14 -5 -17 1 -45 31 -152 14 -50 73 -128
166 -220 53 -52 103 -109 112 -127 22 -45 36 -151 26 -205 -14 -71 -70 -164
-144 -238 -62 -61 -76 -70 -160 -99 -103 -35 -123 -37 -153 -16 -29 20 -56 20
-130 0 -46 -12 -70 -14 -97 -7 -22 6 -38 7 -42 1 -3 -5 -14 -9 -24 -9 -22 0
-130 61 -150 84 -7 9 -16 13 -21 10 -5 -3 -7 1 -4 8 3 7 -21 35 -56 63 -61 50
-116 111 -138 152 -6 13 -24 25 -39 29 -55 11 -72 23 -72 48 0 15 8 30 20 36
28 15 26 80 -4 150 -14 30 -22 58 -20 62 7 12 72 10 79 -2 4 -6 8 -29 11 -53
8 -72 19 -110 33 -115 14 -5 13 25 -5 101 -6 24 -4 27 20 27 24 0 26 3 26 42
0 35 6 49 37 80 20 21 42 38 49 38 6 0 17 -13 24 -30 14 -35 30 -38 48 -10 20
33 152 110 188 110 16 0 19 -36 4 -45 -16 -10 -50 -82 -50 -106 0 -12 -3 -20
-6 -16 -12 11 6 75 32 112 14 21 23 40 20 42 -12 12 -143 -65 -180 -106 -27
-29 -49 -26 -65 10 l-13 31 -39 -38 c-33 -33 -39 -44 -39 -81 0 -40 -2 -43
-26 -43 -23 0 -25 -3 -20 -22 4 -13 10 -43 13 -66 5 -41 5 -44 -18 -40 -20 3
-25 12 -36 72 -7 39 -10 72 -8 75 10 9 -19 31 -41 31 -29 0 -30 -14 -4 -68 28
-59 27 -135 -2 -155 -32 -21 -13 -49 41 -60 30 -6 45 -15 55 -36 28 -54 220
-236 296 -281 42 -25 58 -30 71 -22 12 8 28 8 55 1 29 -9 50 -7 98 7 72 20
100 20 143 -3 32 -17 35 -17 120 12 71 24 99 39 142 80 79 72 95 92 137 169
32 60 37 77 36 135 0 117 -14 143 -135 266 -114 115 -146 159 -170 235 -33
104 -39 135 -28 163 6 16 11 43 11 60 0 33 24 86 78 173 27 44 32 60 34 132 3
81 -11 118 -22 57 -6 -35 -35 -46 -45 -16 -7 25 -20 26 -66 7 -19 -7 -74 -19
-124 -25 -131 -18 -133 -19 -170 -54 l-35 -32 25 -70 c13 -38 24 -84 25 -101
0 -31 -28 -122 -53 -172 -57 -112 -72 -139 -89 -158 -23 -26 -15 -35 25 -23
46 13 62 11 88 -10 l24 -19 -27 -29 c-15 -15 -39 -54 -53 -85 -15 -32 -30 -58
-34 -58 -13 0 55 133 78 154 l21 19 -20 14 c-24 17 -87 10 -117 -12 -10 -8
-25 -14 -33 -14 -8 0 -5 4 8 9 12 5 22 15 22 22 0 9 -3 9 -12 0 -7 -7 -17 -12
-22 -12 -6 0 6 17 26 38 36 36 114 180 144 264 19 56 18 82 -10 168 -22 66
-23 78 -11 97 24 35 68 59 115 62 25 1 86 11 135 22 50 11 102 22 116 25 21 5
27 1 32 -16 7 -27 27 -17 27 14 0 12 3 26 7 29 11 11 30 8 36 -5z m-1043 -940
c11 -18 22 -52 26 -76 6 -38 3 -47 -20 -71 -26 -27 -27 -30 -13 -62 15 -38 31
-53 63 -63 32 -10 258 -238 271 -272 21 -57 44 -170 47 -227 3 -66 13 -77 66
-76 37 0 156 29 178 43 26 16 -8 33 -78 40 l-70 7 0 43 c0 65 12 73 115 80 50
3 106 8 125 11 19 2 10 -2 -20 -10 -30 -8 -84 -14 -120 -15 -76 0 -90 -10 -90
-61 0 -34 2 -37 38 -43 20 -3 51 -6 69 -6 35 0 58 -26 43 -50 -17 -28 -233
-60 -255 -38 -4 4 -9 35 -11 70 -2 35 -13 103 -26 152 l-22 89 -129 128 c-72
71 -137 129 -147 129 -22 0 -44 26 -58 69 -12 35 -10 43 21 78 24 27 18 74
-18 127 -13 20 -20 36 -15 36 6 0 19 -14 30 -32z m707 4 c0 -20 -62 -104 -70
-95 -4 3 10 25 29 48 24 30 31 45 23 51 -7 4 -16 -1 -22 -12 -16 -29 -86 -94
-99 -91 -7 1 -13 -6 -16 -15 -2 -13 7 -20 40 -28 66 -17 68 -18 68 -38 0 -11
-14 -46 -31 -78 -34 -66 -31 -91 10 -100 14 -4 37 -13 51 -20 93 -48 119 -56
154 -50 43 8 38 26 -7 26 -18 0 -50 9 -72 19 -22 11 -59 27 -82 37 -24 9 -43
24 -43 32 0 8 14 43 31 78 35 71 32 85 -26 110 -25 11 -26 13 -9 14 12 0 33
-10 48 -21 32 -25 30 -43 -10 -123 -14 -27 -23 -54 -21 -60 3 -6 29 -20 58
-30 30 -11 63 -25 74 -33 11 -7 36 -13 57 -13 21 0 38 -2 38 -4 0 -2 3 -11 6
-19 4 -12 -5 -17 -42 -23 -38 -5 -55 -3 -88 14 -69 35 -132 62 -144 62 -32 0
-15 90 29 151 18 24 4 46 -33 54 -62 14 -77 23 -71 43 2 10 20 26 39 35 19 9
48 37 65 61 32 44 66 54 66 18z m-279 -600 c25 -20 26 -28 16 -119 l-7 -63 32
0 c38 0 42 -25 6 -42 -19 -8 -31 -8 -50 0 -21 10 -25 19 -25 54 0 24 -9 76
-19 116 l-18 72 21 0 c12 0 31 -8 44 -18z m352 -80 c8 -24 14 -91 14 -155 1
-105 -1 -114 -24 -145 -14 -19 -40 -40 -59 -48 -43 -18 -34 -28 43 -48 33 -8
64 -22 69 -31 5 -10 23 -16 50 -16 147 -2 313 -11 319 -17 4 -4 -64 -4 -150 0
-86 3 -169 6 -184 7 -15 1 -36 10 -47 22 -11 12 -24 18 -30 15 -5 -4 -12 -2
-15 3 -4 5 -24 12 -46 16 -36 6 -42 10 -39 32 2 18 -53 22 -296 22 -293 0
-387 -7 -412 -32 -15 -15 -15 -17 8 -36 13 -11 40 -23 59 -27 19 -3 202 -10
405 -14 l370 -7 -290 -1 c-459 -2 -581 14 -573 73 7 46 39 50 413 52 193 1
353 2 357 3 3 0 21 19 38 43 l32 42 -6 111 c-3 63 -12 127 -21 147 -17 40 -19
56 -7 42 5 -6 15 -29 22 -53z m101 34 c4 -5 5 -23 3 -40 -16 -112 -15 -177 1
-225 29 -87 10 -151 -44 -151 -57 0 -72 38 -35 92 26 38 27 39 20 155 -5 68
-14 129 -22 145 -8 15 -14 29 -14 32 0 9 85 1 91 -8z"/>
<path d="M2228 2592 c-72 -38 -111 -111 -116 -218 l-4 -73 48 -30 c26 -17 56
-34 67 -37 25 -8 38 13 26 43 -23 60 3 206 51 295 26 46 -5 55 -72 20z"/>
<path d="M2443 637 c10 -16 17 -63 22 -143 7 -120 3 -144 -30 -190 -14 -20
-14 -23 0 -38 24 -23 52 -20 72 10 15 23 15 32 3 77 -13 52 -17 202 -7 265 5
33 4 34 -24 30 -16 -3 -29 -1 -29 4 0 4 -5 8 -11 8 -7 0 -6 -9 4 -23z"/>
</g>
</svg>
