<?xml version="1.0" standalone="no"?>
<!DOCTYPE svg PUBLIC "-//W3C//DTD SVG 20010904//EN"
 "http://www.w3.org/TR/2001/REC-SVG-20010904/DTD/svg10.dtd">
<svg version="1.0" xmlns="http://www.w3.org/2000/svg"
 width="498.000000pt" height="278.000000pt" viewBox="0 0 498.000000 278.000000"
 preserveAspectRatio="xMidYMid meet">
<metadata>
Created by potrace 1.16, written by Peter Selinger 2001-2019
</metadata>
<g transform="translate(0.000000,278.000000) scale(0.100000,-0.100000)"
fill="#000000" stroke="none">
<path d="M0 1390 l0 -1390 2490 0 2490 0 0 1390 0 1390 -2490 0 -2490 0 0
-1390z m2490 1024 c94 -34 128 -54 178 -105 66 -68 84 -105 81 -175 -2 -53 -1
-57 32 -82 56 -43 109 -99 109 -115 0 -8 -11 -22 -26 -31 -31 -21 -138 -56
-170 -56 -25 0 -25 -1 -49 -104 -8 -38 -21 -76 -28 -84 -8 -10 -12 -60 -12
-156 0 -119 3 -147 19 -176 29 -54 80 -114 112 -130 132 -67 188 -163 179
-308 -8 -131 -133 -325 -247 -383 l-40 -20 4 -94 c1 -51 6 -96 9 -99 3 -3 147
-7 320 -8 276 -3 318 -5 346 -20 41 -23 46 -31 32 -61 -18 -40 -79 -46 -454
-46 -187 0 -348 3 -357 7 -10 4 143 6 340 4 373 -2 444 4 462 38 8 15 4 23
-23 42 -32 23 -35 23 -351 25 -175 1 -321 5 -324 8 -9 8 -15 171 -8 198 3 14
18 30 35 37 65 26 148 127 217 262 23 44 28 66 28 133 0 121 -42 195 -145 255
-60 35 -115 92 -141 148 -31 65 -38 264 -13 332 9 25 26 82 37 128 19 79 21
82 48 82 37 0 158 44 178 64 14 13 11 19 -24 53 -21 22 -54 51 -73 65 -33 25
-34 28 -32 87 1 34 -3 69 -8 80 -16 28 -76 98 -111 127 -40 34 -162 84 -205
84 -61 0 -190 -44 -244 -84 -80 -59 -86 -78 -78 -291 2 -57 -14 -130 -31 -143
-9 -7 -42 -26 -72 -42 -123 -62 -165 -88 -165 -101 0 -8 16 -22 35 -32 29 -15
55 -17 158 -15 l124 3 24 -30 c34 -43 54 -109 54 -182 0 -137 -74 -212 -229
-236 -27 -4 -35 0 -123 53 -45 27 -61 43 -69 70 -16 49 -56 106 -101 141 l-38
31 -15 -36 c-9 -20 -16 -64 -17 -98 -1 -37 -4 -54 -9 -42 -4 10 -6 28 -4 39 2
11 7 41 10 66 3 26 12 54 19 64 13 18 15 17 49 -4 46 -28 88 -83 110 -141 14
-37 28 -52 75 -81 93 -57 100 -59 167 -38 66 20 112 55 144 109 32 53 29 159
-4 227 -38 76 -42 78 -165 74 -147 -4 -210 16 -210 67 0 10 111 75 190 113 19
9 43 23 53 30 17 14 32 79 30 134 -5 132 -1 196 12 228 18 43 93 100 160 121
131 41 167 44 235 20z m-15 -36 c14 -6 25 -17 25 -24 0 -7 5 -14 10 -16 6 -2
13 -20 15 -42 l5 -38 -32 5 c-18 4 -57 10 -87 15 -30 5 -57 15 -62 24 -15 26
-56 30 -102 10 -40 -18 -97 -72 -97 -92 0 -5 -7 -7 -15 -4 -60 23 55 131 161
152 121 24 146 25 179 10z m33 -213 c29 -10 52 -23 52 -31 0 -7 16 -53 36
-101 31 -76 35 -96 30 -143 -11 -114 -24 -177 -42 -210 -23 -44 -33 -262 -14
-313 42 -110 91 -169 188 -226 48 -29 95 -90 110 -145 27 -95 -3 -201 -95
-336 -35 -51 -60 -75 -116 -109 -39 -24 -80 -55 -90 -68 -38 -48 -93 -66 -214
-71 -104 -4 -114 -3 -150 19 -41 25 -72 57 -73 75 0 26 -38 42 -111 47 -95 8
-152 29 -203 76 -49 46 -77 108 -78 171 0 43 -4 53 -25 68 -43 29 -83 73 -83
92 0 20 19 30 56 30 28 0 29 8 10 54 -17 41 -21 44 -87 56 -60 12 -109 50
-109 87 0 27 30 32 50 8 9 -11 16 -13 23 -6 7 7 4 18 -10 33 -23 26 -53 99
-53 129 0 32 24 32 77 0 50 -31 83 -39 83 -22 0 6 -4 13 -10 16 -11 7 -14 113
-4 139 11 29 50 18 77 -21 37 -55 43 -88 18 -105 -27 -19 -51 -92 -50 -153 0
-58 26 -133 51 -149 27 -17 32 0 8 32 -40 54 -36 223 6 239 19 7 164 -66 164
-83 0 -7 -7 -17 -16 -22 -9 -5 -14 -14 -10 -20 13 -21 195 54 255 104 61 51
104 145 96 209 -10 76 -26 124 -55 159 -13 16 -13 18 0 14 43 -13 78 -167 56
-248 -33 -124 -96 -175 -300 -244 -26 -9 -52 -13 -57 -10 -14 8 -10 36 7 48
13 10 3 18 -57 49 -94 50 -104 43 -104 -78 0 -73 3 -86 23 -107 12 -14 22 -31
22 -40 0 -23 -36 -29 -54 -9 -22 24 -46 107 -46 159 0 56 28 142 53 163 18 14
18 17 4 45 -53 98 -87 98 -87 1 0 -35 5 -68 11 -74 7 -7 9 -18 6 -27 -8 -19
-47 -9 -106 28 -35 23 -42 24 -47 11 -8 -20 22 -92 53 -126 22 -24 23 -28 8
-43 -20 -20 -29 -20 -45 -1 -16 19 -30 19 -30 1 0 -21 68 -76 94 -76 46 0 82
-20 99 -56 27 -56 23 -72 -20 -76 -60 -5 -53 -22 41 -104 19 -17 24 -31 24
-70 1 -66 13 -95 63 -149 52 -56 112 -83 198 -91 100 -8 106 -10 135 -56 15
-24 44 -54 64 -67 34 -21 45 -23 142 -19 118 4 161 20 218 82 18 19 42 38 54
42 67 21 140 104 210 239 27 51 32 71 32 136 1 72 -1 79 -36 131 -21 29 -56
65 -79 78 -23 14 -66 47 -95 73 -77 71 -104 149 -104 300 1 88 5 124 21 167
35 92 59 274 40 293 -6 6 -11 17 -11 24 0 8 -9 32 -19 54 -11 22 -22 53 -26
68 -10 44 -75 66 -197 65 -90 0 -99 -2 -133 -28 -20 -16 -39 -36 -42 -45 -3
-9 -12 -24 -20 -33 -8 -9 -21 -36 -29 -60 l-14 -43 6 40 c3 22 13 51 22 65 9
14 21 34 27 44 16 31 61 59 107 67 61 11 166 3 226 -16z m269 -163 c35 -30 60
-59 57 -64 -10 -15 -95 -50 -141 -58 l-43 -7 0 42 c0 23 4 55 9 71 5 16 12 41
15 56 8 36 24 30 103 -40z m-552 -92 c22 0 44 -13 83 -49 28 -26 52 -54 52
-60 0 -7 -21 -22 -47 -34 -42 -18 -69 -21 -213 -23 -103 -1 -166 -6 -168 -12
-4 -13 -42 18 -42 33 1 14 36 38 125 85 42 22 84 48 93 56 11 11 26 14 51 10
20 -3 50 -6 66 -6z m-733 -670 c-46 -19 -38 -55 26 -122 27 -28 48 -40 89 -48
34 -7 53 -16 53 -26 0 -8 1 -17 3 -21 1 -5 -15 -6 -35 -5 -35 3 -38 1 -38 -22
0 -34 41 -98 79 -126 24 -17 31 -29 31 -55 0 -66 39 -146 97 -202 30 -29 61
-53 68 -53 7 0 32 -9 56 -20 29 -13 66 -20 106 -20 68 0 83 -12 83 -64 0 -14
5 -28 10 -31 18 -11 12 -100 -7 -117 -34 -28 -59 -32 -258 -33 -154 -1 -207
-4 -230 -16 -41 -20 -38 -40 9 -63 36 -18 71 -20 450 -23 226 -3 413 -7 416
-9 3 -3 -182 -3 -410 -1 -433 5 -479 10 -504 50 -15 23 2 48 40 60 16 5 120
10 231 11 189 1 203 2 230 22 24 18 28 28 26 65 -2 56 -13 111 -25 127 -6 7
-33 12 -64 12 -70 0 -180 41 -235 88 -48 41 -87 121 -96 194 -5 39 -12 52 -39
73 -58 45 -91 134 -64 175 6 10 10 11 10 3 0 -7 11 -13 25 -13 14 0 25 4 25 9
0 10 -14 15 -70 26 -57 11 -130 92 -130 144 0 21 25 41 50 40 8 0 5 -4 -8 -9z"/>
<path d="M2370 2373 c-124 -15 -241 -80 -240 -132 1 -11 8 -6 22 12 52 70 172
107 204 62 7 -10 35 -22 61 -27 27 -5 60 -11 75 -14 24 -6 26 -4 23 22 -1 16
-8 30 -14 32 -6 2 -11 9 -11 16 0 7 -11 18 -25 24 -26 12 -31 12 -95 5z"/>
<path d="M2672 1992 c-19 -90 -17 -102 16 -102 16 0 42 6 58 14 16 8 41 19 56
25 l28 10 -24 26 c-13 14 -28 25 -33 25 -5 0 -22 14 -38 30 -16 17 -34 30 -40
30 -6 0 -16 -26 -23 -58z"/>
<path d="M2119 1898 c-8 -8 -50 -34 -94 -57 -89 -48 -130 -77 -117 -84 13 -9
355 -1 377 8 11 5 30 15 43 23 22 14 22 14 -29 63 -36 34 -60 49 -79 49 -15 0
-41 3 -57 6 -19 4 -35 1 -44 -8z"/>
</g>
</svg>
