<?xml version="1.0" standalone="no"?>
<!DOCTYPE svg PUBLIC "-//W3C//DTD SVG 20010904//EN"
 "http://www.w3.org/TR/2001/REC-SVG-20010904/DTD/svg10.dtd">
<svg version="1.0" xmlns="http://www.w3.org/2000/svg"
 width="498.000000pt" height="278.000000pt" viewBox="0 0 498.000000 278.000000"
 preserveAspectRatio="xMidYMid meet">
<metadata>
Created by potrace 1.16, written by Peter Selinger 2001-2019
</metadata>
<g transform="translate(0.000000,278.000000) scale(0.100000,-0.100000)"
fill="#000000" stroke="none">
<path d="M0 1390 l0 -1390 2490 0 2490 0 0 1390 0 1390 -2490 0 -2490 0 0
-1390z m2517 979 c82 -34 103 -47 157 -98 l58 -56 -5 -95 c-6 -109 -25 -165
-61 -182 -15 -6 -26 -14 -26 -18 0 -10 46 -27 93 -35 50 -8 77 -36 77 -80 0
-46 -36 -65 -124 -65 -83 0 -113 -14 -122 -54 -3 -17 -12 -38 -19 -46 -25 -28
-37 -75 -41 -155 -3 -79 9 -140 43 -228 22 -55 81 -87 163 -87 78 0 115 -21
173 -99 l42 -56 0 -105 c0 -92 -3 -111 -24 -153 -27 -51 -123 -152 -168 -176
-16 -8 -48 -31 -73 -52 -25 -21 -71 -48 -103 -60 -37 -14 -62 -30 -67 -43 -4
-12 -22 -45 -39 -75 l-32 -53 35 6 c24 5 45 2 66 -9 17 -9 34 -13 39 -11 9 6
290 8 546 3 177 -3 211 -10 246 -53 12 -16 12 -17 -1 -9 -8 4 -28 18 -45 29
-27 19 -46 21 -200 23 -93 1 -181 3 -195 4 -14 0 -99 1 -189 0 -158 -1 -164
-2 -148 -19 30 -33 22 -59 -20 -66 -21 -3 -51 -5 -68 -5 -16 1 -3 5 29 10 32
5 61 11 64 14 3 3 0 16 -8 29 -14 27 -88 60 -114 50 -9 -3 -23 -3 -31 0 -13 5
-9 19 25 83 38 73 43 78 98 101 31 13 77 41 102 61 25 21 57 44 73 52 49 26
143 127 171 185 25 51 28 65 24 143 -3 83 -4 88 -45 142 -57 77 -95 99 -170
99 -43 0 -72 6 -104 23 -42 22 -45 27 -76 117 -27 83 -31 106 -28 180 3 86 17
142 41 171 8 8 17 29 20 47 8 38 41 52 126 52 77 0 118 21 118 59 0 33 -24 57
-65 66 -106 22 -134 48 -79 73 35 17 56 73 61 172 l5 85 -59 56 c-81 78 -152
109 -247 109 -80 0 -114 -8 -195 -48 -65 -32 -85 -63 -101 -151 -6 -36 -13
-75 -15 -86 -3 -13 -23 -28 -59 -44 -30 -13 -66 -35 -79 -50 -24 -25 -25 -27
-9 -46 22 -26 88 -70 132 -89 29 -12 37 -22 49 -63 8 -26 29 -74 47 -106 40
-69 41 -85 10 -237 -24 -121 -69 -211 -102 -206 -37 6 -133 141 -134 189 0 12
-8 17 -28 17 -40 0 -64 21 -96 84 -16 31 -34 56 -42 56 -25 0 -44 -59 -51
-155 -4 -67 -10 -95 -19 -95 -7 0 -33 21 -58 46 -57 56 -61 49 -53 -82 3 -56
2 -94 -4 -94 -5 0 -15 -11 -21 -25 -10 -22 -6 -36 32 -110 47 -94 96 -145 138
-145 38 -1 70 -47 116 -168 36 -96 37 -101 22 -136 -13 -31 -19 -36 -49 -36
-23 0 -47 10 -72 30 -47 37 -65 28 -47 -23 15 -41 15 -80 2 -93 -21 -21 1 -42
48 -49 26 -4 52 -11 58 -16 8 -6 27 6 59 37 53 51 102 84 126 84 9 0 24 -9 34
-20 10 -11 22 -20 27 -20 6 0 21 -9 35 -20 14 -11 40 -22 59 -26 19 -3 37 -10
40 -15 3 -5 30 -9 60 -9 45 0 54 -3 54 -17 -1 -32 -29 -136 -39 -146 -14 -14
-14 -3 -2 21 10 17 31 102 31 121 0 6 -19 11 -41 11 -45 0 -153 34 -180 57 -8
7 -19 13 -24 13 -5 0 -19 10 -32 22 -21 20 -25 20 -50 7 -15 -8 -42 -30 -61
-49 -59 -61 -78 -69 -120 -54 -20 7 -49 13 -64 14 -18 0 -29 7 -33 20 -3 11
-12 20 -18 20 -6 0 -1 7 12 16 19 13 22 22 16 48 -17 83 -17 96 -4 97 28 3 44
-3 72 -27 40 -34 73 -31 92 7 16 29 15 34 -10 97 -15 37 -31 78 -37 92 -5 14
-21 42 -35 63 -20 28 -33 37 -54 37 -43 0 -90 49 -138 144 -34 67 -41 92 -36
116 4 16 12 33 19 37 8 6 12 41 11 112 0 68 4 105 11 108 6 2 33 -18 60 -44
l49 -47 7 84 c8 99 14 127 33 157 21 31 47 19 75 -34 40 -76 58 -93 96 -93 28
0 34 -4 34 -20 0 -30 33 -89 78 -139 43 -47 64 -49 83 -9 5 13 17 35 25 50 15
27 54 212 54 255 0 12 -13 44 -29 72 -16 27 -38 75 -48 107 -15 50 -22 59 -58
75 -65 29 -112 62 -129 90 -15 25 -14 28 6 54 12 15 49 40 82 55 l61 27 12 78
c7 43 21 94 30 113 19 37 87 80 158 99 55 14 188 16 222 2z m41 -58 c94 -48
152 -123 133 -173 -6 -16 -9 -16 -24 -6 -10 8 -19 24 -20 37 -1 24 -58 81 -81
81 -8 0 -19 -7 -26 -15 -10 -12 -37 -15 -121 -15 -108 0 -109 0 -109 24 0 37
20 84 38 90 43 12 168 -1 210 -23z m-66 -123 c9 -7 18 -19 20 -26 2 -11 -22
-14 -112 -15 -110 -2 -118 -4 -172 -35 -62 -35 -88 -40 -88 -18 0 22 66 63
149 94 40 14 184 14 203 0z m17 -104 c26 -29 40 -69 30 -85 -6 -10 -9 -7 -9
13 0 15 -10 39 -23 54 -19 22 -34 28 -78 32 -47 3 -61 0 -104 -25 -43 -25 -55
-40 -98 -123 -58 -114 -60 -154 -9 -236 29 -46 32 -59 32 -129 0 -120 -25
-229 -71 -307 -38 -66 -41 -68 -79 -68 -33 0 -45 7 -82 46 -24 25 -53 63 -65
85 -25 48 -31 41 -44 -48 -13 -93 -17 -97 -91 -78 -24 6 -28 4 -28 -14 0 -11
11 -50 24 -85 27 -70 25 -101 -5 -109 -28 -7 -24 -18 23 -65 37 -38 46 -42 90
-42 45 0 48 -2 48 -25 0 -21 -5 -25 -27 -25 -52 0 -59 -12 -39 -64 40 -104
130 -198 251 -261 56 -29 59 -29 205 -28 181 2 188 5 404 180 80 65 116 137
116 231 0 58 -4 75 -29 113 -51 80 -99 107 -188 107 -25 0 -63 10 -90 23 -40
20 -51 32 -65 69 -41 109 -48 150 -48 270 0 123 9 160 44 189 16 14 22 33 9
29 -37 -10 -93 56 -93 110 0 24 7 35 31 49 17 10 40 35 50 56 11 20 24 37 30
37 6 0 7 5 3 12 -4 6 -3 8 4 4 5 -3 13 0 15 6 4 11 6 11 6 0 1 -6 -10 -22 -23
-33 -13 -12 -27 -32 -30 -44 -3 -13 -22 -33 -41 -45 -23 -14 -35 -29 -35 -43
0 -42 60 -110 87 -100 22 9 14 -22 -17 -63 -29 -38 -29 -41 -30 -162 0 -126
10 -180 50 -269 24 -53 78 -83 158 -88 105 -6 129 -20 183 -104 25 -39 29 -54
29 -120 0 -105 -34 -178 -116 -244 -212 -171 -229 -178 -420 -180 -143 -1
-151 0 -203 27 -126 63 -212 150 -250 251 -25 66 -26 85 -7 85 8 0 22 7 30 16
9 8 16 11 16 5 0 -6 5 -11 10 -11 6 0 10 7 10 15 0 11 -12 15 -49 15 -44 0
-52 4 -92 44 -50 52 -56 72 -24 80 33 8 37 30 14 83 -11 26 -23 66 -26 90 -5
39 -4 43 16 43 12 0 30 -4 40 -10 32 -17 52 9 61 82 12 100 32 116 63 50 29
-60 104 -132 137 -132 25 0 35 9 69 68 46 77 71 179 71 289 0 64 -4 80 -35
136 -50 91 -48 129 14 248 42 83 54 97 97 122 43 24 57 27 113 23 45 -3 68 -9
80 -22z m-342 -91 c28 -19 26 -47 -9 -93 -18 -24 -24 -27 -50 -19 -16 4 -50
20 -74 34 -61 36 -60 64 4 93 66 29 75 31 91 15 8 -8 25 -22 38 -30z m440
-103 c14 -11 52 -25 84 -31 40 -8 63 -18 70 -31 15 -27 3 -38 -44 -38 -37 -1
-112 -14 -198 -35 -20 -5 -29 -1 -43 19 -19 30 -17 36 34 94 40 46 61 51 97
22z m-782 -392 c8 -18 25 -46 38 -62 23 -28 23 -29 8 -107 -17 -83 -28 -94
-63 -62 -10 9 -18 28 -18 43 0 14 -5 31 -10 36 -13 13 -15 84 -5 142 9 51 30
55 50 10z m622 -1047 c1 -11 -16 -55 -38 -97 -47 -93 -50 -124 -14 -124 14 0
25 4 25 10 0 5 -8 6 -17 3 -16 -6 -16 -5 -4 11 13 15 15 16 23 2 10 -17 58
-22 58 -6 0 6 -12 11 -27 11 -19 1 -22 3 -10 6 25 6 67 -5 67 -18 0 -6 -4 -7
-10 -4 -5 3 -10 2 -10 -3 0 -12 -93 -23 -130 -15 -37 7 -41 18 -26 89 23 108
36 132 75 142 20 6 36 10 36 11 1 1 1 -8 2 -18z m-205 -173 c-14 -4 -155 -7
-312 -5 -259 2 -289 0 -313 -16 -35 -23 -34 -31 6 -55 39 -24 227 -34 571 -33
121 1 218 -1 215 -3 -8 -8 -419 -8 -594 -1 -126 6 -168 12 -197 27 -41 20 -46
33 -25 62 9 12 33 20 73 25 81 9 610 8 576 -1z"/>
<path d="M2354 2322 c-16 -11 -34 -48 -34 -71 0 -20 6 -21 97 -21 75 0 100 4
114 16 33 30 114 -13 124 -65 6 -30 20 -47 29 -33 20 32 -47 107 -138 152 -47
24 -72 30 -120 30 -34 0 -66 -4 -72 -8z"/>
<path d="M2038 1998 c-21 -11 -38 -26 -38 -33 0 -17 44 -48 91 -65 33 -12 39
-11 56 6 37 35 35 62 -5 89 -44 30 -55 30 -104 3z"/>
<path d="M2513 1852 c-41 -48 -41 -48 -23 -72 16 -21 21 -23 42 -12 27 14 58
20 151 28 100 10 99 31 -3 54 -30 6 -67 20 -82 31 -15 10 -31 19 -35 19 -4 -1
-27 -22 -50 -48z"/>
</g>
</svg>
