<?xml version="1.0" standalone="no"?>
<!DOCTYPE svg PUBLIC "-//W3C//DTD SVG 20010904//EN"
 "http://www.w3.org/TR/2001/REC-SVG-20010904/DTD/svg10.dtd">
<svg version="1.0" xmlns="http://www.w3.org/2000/svg"
 width="498.000000pt" height="278.000000pt" viewBox="0 0 498.000000 278.000000"
 preserveAspectRatio="xMidYMid meet">
<metadata>
Created by potrace 1.16, written by Peter Selinger 2001-2019
</metadata>
<g transform="translate(0.000000,278.000000) scale(0.100000,-0.100000)"
fill="#000000" stroke="none">
<path d="M0 1390 l0 -1390 2490 0 2490 0 0 1390 0 1390 -2490 0 -2490 0 0
-1390z m2575 1208 c63 -33 145 -112 169 -162 12 -26 17 -52 14 -81 -7 -55 0
-65 75 -115 77 -52 87 -65 87 -108 0 -27 -8 -42 -35 -67 -57 -54 -120 -65
-225 -40 -21 5 -27 1 -36 -22 -14 -32 -45 -179 -51 -238 -5 -43 21 -117 56
-162 58 -72 187 -143 262 -143 18 0 61 -5 97 -11 l64 -11 53 52 c62 61 100 69
138 31 18 -17 22 -34 24 -87 1 -54 5 -70 23 -86 19 -18 21 -28 16 -65 -3 -24
-13 -54 -21 -66 -19 -28 -19 -8 0 29 8 16 15 39 15 51 0 21 -23 53 -39 53 -4
0 -5 29 -3 65 4 61 2 66 -26 95 -17 16 -35 30 -41 30 -6 0 -39 -25 -72 -56
-59 -54 -63 -56 -103 -49 -22 3 -76 10 -119 15 -151 18 -273 103 -317 221 -16
44 -21 74 -17 103 9 64 43 218 55 248 11 27 11 27 53 13 66 -24 118 -19 171
14 66 42 84 85 55 126 -21 28 -38 11 -24 -25 9 -24 8 -32 -8 -51 -33 -36 -79
-50 -148 -44 -80 7 -91 18 -77 76 5 24 15 69 21 101 11 60 18 64 60 37 104
-69 139 -88 143 -80 3 5 -13 21 -37 37 -82 55 -85 59 -80 122 3 50 0 62 -24
99 -39 57 -111 118 -175 148 -87 41 -232 33 -338 -18 -103 -49 -124 -77 -135
-178 -6 -53 -4 -69 9 -82 9 -8 16 -27 16 -40 0 -20 -10 -29 -52 -47 -61 -25
-178 -98 -178 -111 0 -34 145 -88 238 -89 22 0 34 -6 38 -17 3 -10 10 -27 15
-38 4 -11 13 -56 19 -100 13 -101 0 -215 -32 -275 -30 -57 -97 -125 -173 -174
-153 -101 -185 -145 -185 -254 0 -114 41 -200 117 -246 24 -14 52 -26 63 -26
10 0 50 -31 88 -68 64 -63 71 -74 87 -137 40 -163 9 -279 -96 -352 -22 -15
-51 -36 -64 -46 -20 -15 -49 -18 -177 -21 -194 -3 -257 -27 -191 -72 26 -18
99 -27 283 -34 19 -1 329 -1 689 -1 661 1 714 4 742 38 19 22 -16 51 -75 62
-28 6 -87 12 -131 13 l-80 3 -22 44 c-22 43 -87 121 -101 121 -20 0 -51 95
-75 234 -1 5 20 18 47 28 63 24 102 57 149 127 58 85 115 149 147 166 28 14
82 91 92 131 3 12 1 29 -4 38 -6 10 -5 16 2 16 10 0 14 -18 10 -60 -3 -32 -66
-130 -84 -130 -18 0 -100 -92 -153 -171 -46 -69 -83 -100 -145 -123 -27 -10
-48 -23 -48 -29 0 -63 51 -217 71 -217 16 0 89 -87 94 -111 10 -43 33 -55 110
-58 92 -3 176 -19 198 -39 20 -18 22 -47 5 -59 -49 -31 -88 -33 -743 -34 -363
0 -676 0 -695 1 -172 7 -258 17 -287 33 -35 18 -43 46 -19 66 19 16 156 32
261 30 l91 -1 64 43 c133 92 168 192 126 358 -14 54 -24 70 -85 131 -39 39
-78 70 -87 70 -30 0 -109 50 -130 83 -52 81 -71 225 -38 306 16 42 71 92 169
157 76 50 148 122 176 176 30 58 42 165 29 260 -15 107 -33 148 -66 148 -57 0
-180 33 -211 56 -48 36 -42 56 30 103 35 22 67 41 72 41 4 0 27 10 51 22 47
23 54 40 28 66 -13 13 -15 28 -9 86 9 93 26 130 72 158 54 34 108 58 130 58
10 0 25 5 33 11 9 6 58 8 120 6 90 -3 112 -7 155 -29z m-33 -38 c12 -15 18
-39 18 -77 l0 -55 -42 7 c-24 3 -56 10 -73 15 -63 19 -156 17 -207 -5 -14 -5
-18 -2 -18 13 0 27 36 52 76 52 24 0 33 -5 38 -22 4 -17 8 -20 17 -11 14 14 3
50 -20 63 -39 20 -146 -31 -172 -82 -20 -39 -43 -49 -52 -24 -9 23 26 77 63
98 l35 20 -33 -27 c-34 -28 -65 -78 -55 -88 10 -10 23 3 37 37 13 32 65 66
101 66 9 0 25 4 35 10 29 15 62 -3 75 -41 8 -24 18 -35 36 -37 13 -2 35 -7 49
-12 14 -5 42 -11 63 -15 l37 -6 0 49 c0 70 -18 83 -122 89 -76 5 -151 -3 -203
-21 l-20 -8 20 13 c34 22 86 28 195 24 93 -3 106 -5 122 -25z m8 -213 l75 -23
3 -49 c4 -55 -21 -199 -45 -260 -8 -22 -19 -62 -23 -90 -5 -27 -14 -72 -20
-100 -31 -138 48 -280 199 -358 60 -31 88 -39 194 -52 69 -8 138 -12 155 -9
24 5 31 2 36 -14 11 -32 -4 -70 -36 -97 -29 -25 -25 -36 12 -33 8 1 26 0 39 0
21 -2 23 -5 17 -39 -5 -27 -19 -50 -51 -79 l-45 -42 39 -15 c21 -9 41 -23 45
-32 7 -18 -14 -64 -38 -84 -9 -7 -40 -50 -70 -95 -66 -99 -76 -108 -149 -135
-86 -31 -169 -24 -263 22 l-41 20 -49 -23 c-63 -31 -194 -40 -257 -18 -23 9
-62 21 -87 28 -33 9 -61 29 -112 80 -50 50 -80 71 -113 81 -48 14 -98 55 -119
98 -7 14 -19 54 -26 87 -10 52 -10 69 3 115 19 62 53 98 166 174 101 67 150
119 189 198 51 103 52 176 7 402 -4 22 -2 19 9 -10 9 -22 21 -84 28 -137 15
-123 2 -201 -48 -290 -40 -72 -72 -103 -176 -173 -152 -102 -192 -167 -168
-275 15 -67 30 -97 66 -133 28 -29 84 -57 111 -57 8 0 38 -26 68 -58 112 -121
296 -166 440 -107 72 30 81 30 120 7 40 -25 152 -47 196 -38 74 14 121 48 176
126 29 41 69 96 90 122 21 26 38 53 38 60 0 7 -19 22 -42 33 -24 11 -43 23
-43 28 0 5 20 27 45 50 50 47 69 96 39 99 -11 0 -31 0 -45 -1 -38 -3 -46 26
-14 51 33 26 48 54 40 79 -5 16 -13 19 -30 15 -13 -3 -81 1 -151 9 -108 13
-139 20 -200 50 -155 76 -237 224 -204 370 6 28 15 73 20 100 4 28 15 68 23
90 23 65 49 207 45 255 l-3 45 -70 22 c-92 30 -177 37 -278 22 -72 -10 -86
-16 -113 -45 -23 -23 -30 -28 -27 -14 9 34 40 51 115 65 96 18 214 11 308 -18z
m-291 -127 c20 0 22 -4 17 -25 -5 -20 0 -28 29 -47 78 -50 14 -88 -150 -87
-100 0 -208 18 -229 39 -18 18 6 43 80 81 78 42 107 49 179 43 28 -2 61 -4 74
-4z m400 -1532 c22 -29 58 -88 81 -131 40 -74 42 -82 38 -141 -6 -64 -26 -109
-58 -126 -10 -5 -106 -10 -215 -10 -182 -2 -199 0 -209 17 -12 21 -14 226 -3
298 17 114 9 105 95 106 52 0 92 6 122 19 79 33 104 28 149 -32z m-377 26 c4
-3 3 -15 -2 -27 -21 -51 -32 -256 -18 -366 4 -32 -4 -39 -49 -43 -43 -4 -51
-1 -79 27 -18 17 -38 29 -45 26 -8 -2 3 14 23 37 69 77 73 86 73 196 0 56 -4
116 -9 135 l-9 34 53 -7 c30 -4 57 -9 62 -12z m439 -23 c12 7 12 9 0 9 -8 0
-12 2 -10 4 3 3 24 0 48 -5 49 -11 70 -32 71 -69 0 -14 9 -57 19 -94 17 -61
26 -75 73 -117 43 -38 51 -50 41 -60 -11 -11 -13 -10 -13 3 0 26 -13 28 -57 8
-66 -30 -81 -20 -81 54 0 53 -6 73 -38 132 -21 38 -53 87 -71 110 -34 43 -47
73 -15 36 13 -14 22 -18 33 -11z"/>
<path d="M2674 2257 c-3 -8 -4 -18 -3 -23 1 -5 0 -16 -4 -24 -3 -8 -8 -31 -11
-50 -3 -19 -8 -45 -12 -57 -5 -19 -1 -23 27 -31 19 -4 58 -7 88 -6 45 1 58 6
84 32 29 29 30 33 17 58 -8 14 -21 29 -30 32 -8 3 -35 20 -60 38 -57 40 -88
50 -96 31z"/>
<path d="M2115 2213 c-47 -10 -150 -62 -171 -84 -12 -13 -12 -18 -2 -26 41
-31 278 -44 347 -19 32 11 55 36 33 36 -21 0 -63 50 -57 69 5 16 -2 19 -47 24
-57 7 -72 7 -103 0z"/>
<path d="M2515 710 c-30 -11 -79 -19 -122 -19 -80 -1 -76 3 -90 -91 -10 -67
-10 -268 -1 -292 7 -16 26 -18 200 -18 214 0 222 2 252 64 28 59 21 115 -25
198 -23 40 -59 97 -81 126 -43 58 -54 61 -133 32z"/>
<path d="M2184 699 c13 -40 19 -146 11 -204 -5 -43 -15 -66 -45 -104 l-39 -49
30 -28 c24 -23 37 -28 67 -25 35 3 56 17 47 31 -12 19 -12 192 0 282 7 57 12
104 11 105 -1 1 -21 5 -45 9 -43 7 -44 7 -37 -17z"/>
<path d="M2722 682 c-10 -7 -8 -13 7 -26 10 -10 29 -38 41 -64 12 -26 28 -59
36 -75 8 -15 16 -54 16 -87 1 -67 12 -77 55 -55 15 8 35 15 43 15 9 1 0 14
-22 33 -30 26 -41 46 -57 107 -12 41 -21 84 -21 95 0 45 -61 80 -98 57z"/>
</g>
</svg>
