<?xml version="1.0" standalone="no"?>
<!DOCTYPE svg PUBLIC "-//W3C//DTD SVG 20010904//EN"
 "http://www.w3.org/TR/2001/REC-SVG-20010904/DTD/svg10.dtd">
<svg version="1.0" xmlns="http://www.w3.org/2000/svg"
 width="498.000000pt" height="278.000000pt" viewBox="0 0 498.000000 278.000000"
 preserveAspectRatio="xMidYMid meet">
<metadata>
Created by potrace 1.16, written by Peter Selinger 2001-2019
</metadata>
<g transform="translate(0.000000,278.000000) scale(0.100000,-0.100000)"
fill="#000000" stroke="none">
<path d="M0 1390 l0 -1390 2490 0 2490 0 0 1390 0 1390 -2490 0 -2490 0 0
-1390z m2536 1089 c142 -64 215 -147 197 -223 -17 -65 -6 -88 72 -166 101 -99
100 -112 -15 -181 -43 -25 -68 -33 -115 -35 -73 -3 -80 -13 -97 -136 -23 -173
31 -311 147 -374 59 -33 141 -64 168 -64 8 0 28 7 43 15 16 8 36 15 45 15 8 0
19 4 25 9 14 14 201 71 221 68 32 -5 43 -18 43 -51 0 -34 -49 -175 -50 -144 0
9 9 37 20 63 27 63 26 103 -3 116 -24 11 -93 -8 -242 -66 -38 -15 -82 -29 -97
-32 -46 -9 -201 58 -245 105 -86 93 -114 273 -67 432 15 52 16 53 77 50 56 -2
207 81 207 114 0 7 -34 47 -75 87 -69 69 -75 78 -76 119 -1 25 1 55 5 67 13
39 -37 108 -112 156 -148 95 -243 103 -377 35 -133 -68 -155 -100 -147 -209 5
-78 5 -79 -128 -179 -121 -91 -126 -96 -114 -117 23 -40 83 -58 209 -63 l119
-5 18 -85 c30 -144 4 -258 -79 -357 -255 -301 -283 -345 -285 -446 -1 -73 8
-119 32 -168 35 -67 134 -138 236 -169 80 -24 87 -35 85 -141 -3 -136 -9 -158
-59 -195 -23 -18 -66 -40 -96 -48 -48 -14 -54 -18 -49 -39 3 -12 3 -19 0 -16
-4 3 -8 16 -10 30 -4 24 -5 24 -123 24 -160 0 -216 -5 -236 -23 -24 -20 -23
-29 8 -49 31 -20 189 -33 394 -33 69 0 374 0 679 0 563 0 614 3 643 38 20 23
-35 60 -102 68 -56 7 -250 9 -460 4 -113 -3 -115 -2 -127 21 -9 20 -7 38 11
101 12 43 25 81 29 84 4 4 7 16 7 26 0 11 7 32 15 48 12 24 22 30 48 30 52 0
190 77 264 147 40 39 62 67 57 74 -4 7 -3 9 3 6 14 -9 38 20 57 68 9 22 40 64
70 92 l53 51 0 79 c0 43 -5 84 -11 92 -9 11 -8 13 4 9 12 -4 15 -24 17 -89 1
-95 -2 -103 -75 -176 -28 -28 -51 -61 -55 -79 -4 -21 -34 -59 -90 -115 -90
-90 -194 -153 -279 -167 -50 -9 -54 -15 -97 -156 -45 -146 -56 -139 201 -134
328 7 456 -9 475 -59 9 -24 -8 -43 -52 -59 -31 -10 -119 -13 -390 -13 -192 0
-442 0 -555 -1 -510 -2 -683 5 -735 31 -51 24 -42 71 16 86 13 3 113 7 221 8
l196 3 44 30 c72 50 76 59 79 196 1 83 0 90 -22 107 -13 11 -46 26 -72 34
-176 53 -260 163 -259 338 1 113 47 187 287 462 63 72 87 135 87 234 0 47 -7
109 -14 136 l-14 50 -115 6 c-153 8 -219 33 -219 85 0 17 21 40 81 86 45 35
91 69 103 77 63 43 68 52 65 121 -3 96 -1 106 26 138 38 46 170 110 246 120
71 9 120 1 185 -29z m-37 -150 c24 -5 57 -21 73 -34 16 -14 35 -25 41 -25 18
0 77 -62 77 -82 0 -10 -5 -18 -11 -18 -8 0 -8 -5 1 -15 7 -8 16 -12 21 -9 5 3
8 2 7 -3 -2 -4 0 -9 4 -11 4 -1 35 -31 68 -67 39 -42 58 -70 54 -80 -3 -8 -39
-31 -79 -51 -64 -32 -76 -35 -108 -26 -26 7 -37 7 -40 -1 -6 -15 -1 37 13 128
5 39 11 86 11 106 2 29 6 35 19 32 33 -9 33 18 -1 53 -18 19 -38 34 -45 34 -7
0 -25 11 -41 24 -32 27 -91 46 -145 46 -57 0 -39 -28 23 -36 27 -4 52 -11 55
-15 3 -5 14 -9 25 -9 11 0 36 -10 57 -22 21 -13 46 -28 57 -34 10 -6 21 -17
23 -25 4 -10 0 -9 -15 4 -11 9 -23 17 -27 17 -4 0 -19 9 -32 19 -25 20 -98 45
-168 59 -30 6 -40 13 -42 30 -4 20 0 22 39 22 23 0 62 -5 86 -11z m10 -90 c41
-17 51 -27 65 -63 20 -51 16 -173 -9 -286 -45 -205 -42 -311 10 -418 35 -71
65 -104 130 -144 68 -43 194 -82 279 -88 87 -6 104 -17 92 -64 -3 -14 -24 -44
-46 -65 -22 -21 -40 -41 -40 -45 0 -3 12 -3 28 0 15 3 44 -2 65 -10 32 -14 37
-20 37 -50 0 -24 -9 -43 -30 -66 -36 -38 -36 -40 -10 -40 39 0 21 -40 -52
-116 -48 -49 -99 -90 -148 -117 -72 -40 -79 -42 -160 -42 -47 0 -101 2 -120 4
-21 2 -63 -7 -105 -23 -122 -47 -228 -27 -356 66 -24 17 -56 31 -74 32 -59 2
-185 111 -185 160 0 8 -4 18 -10 21 -5 3 -10 42 -10 85 0 114 35 183 166 330
158 177 198 245 208 362 5 57 2 91 -13 152 -21 83 -20 96 5 96 28 0 114 32
114 43 0 5 -7 15 -15 21 -11 8 -16 34 -17 91 -3 65 -6 79 -18 76 -52 -12 -137
-12 -154 1 -41 32 1 92 82 119 48 16 237 2 291 -22z m-383 -118 c19 -17 71
-30 82 -19 6 6 22 8 36 4 24 -6 26 -11 26 -56 0 -27 5 -52 10 -55 6 -3 10 -14
10 -24 0 -43 -258 -68 -368 -36 -29 9 -52 19 -52 24 0 10 54 61 65 61 5 0 23
13 40 29 69 68 126 95 151 72z m1101 -784 c-5 -35 -28 -91 -48 -118 -19 -25
-4 -49 31 -49 40 0 38 -18 -6 -53 -35 -28 -40 -51 -13 -53 8 -1 20 -2 27 -3
20 -2 13 -24 -19 -58 -52 -56 -49 -37 4 23 22 25 12 35 -22 23 -17 -7 -22 -15
-18 -29 3 -11 1 -23 -5 -26 -5 -3 -7 -15 -5 -26 3 -11 3 -17 -1 -13 -4 4 -7
28 -7 53 0 44 -2 48 -37 65 -43 21 -48 44 -18 72 26 23 26 65 0 98 -16 20 -32
27 -68 30 l-47 3 51 2 c60 2 82 -15 91 -72 4 -29 1 -44 -16 -66 -27 -37 -27
-39 9 -54 29 -12 32 -10 73 28 l43 41 -31 5 c-39 6 -46 48 -16 86 21 26 46
102 38 111 -3 2 -53 -12 -111 -31 -58 -20 -112 -36 -118 -36 -6 0 -21 -8 -32
-17 -21 -18 -21 -18 -2 4 10 12 32 25 50 28 37 8 145 44 166 56 8 5 26 9 39 9
21 0 23 -3 18 -33z m-650 -763 c6 -33 -19 -136 -46 -193 -30 -62 -77 -98 -136
-104 -22 -2 -40 -9 -40 -16 0 -6 3 -10 7 -8 4 1 13 -6 21 -17 12 -17 22 -18
123 -10 60 4 112 7 117 6 4 -1 7 3 7 8 0 6 10 9 23 9 16 -1 18 -2 5 -6 -10 -2
-18 -8 -18 -12 0 -5 -30 -9 -67 -10 -36 -1 -71 -5 -76 -8 -17 -10 -107 -3
-128 10 -11 6 -22 22 -26 35 -4 19 -12 23 -37 22 -69 -4 -71 3 -22 128 58 148
51 139 116 145 32 4 80 15 106 26 56 23 66 22 71 -5z m87 11 c12 -12 13 -21 5
-43 -31 -80 -67 -220 -62 -244 5 -27 4 -28 -41 -28 -25 0 -46 -4 -46 -10 0 -5
-9 -10 -20 -10 -27 0 -25 22 5 48 36 32 80 128 95 207 7 39 20 76 29 83 18 15
16 15 35 -3z"/>
<path d="M2640 2133 c1 -16 -3 -57 -9 -93 -6 -36 -12 -74 -13 -85 -2 -13 6
-24 25 -33 25 -12 34 -11 80 8 29 11 65 31 80 44 l28 22 -63 62 c-65 63 -112
102 -122 102 -4 0 -6 -12 -6 -27z"/>
<path d="M2215 2250 c-34 -11 -85 -55 -85 -73 0 -35 66 -48 136 -28 17 5 36 6
42 2 6 -3 11 -39 11 -81 0 -56 4 -77 16 -86 8 -6 15 -20 15 -31 0 -15 -13 -23
-62 -37 -35 -11 -66 -21 -69 -25 -4 -3 2 -37 12 -76 40 -152 0 -303 -116 -435
-225 -257 -245 -288 -245 -400 0 -80 22 -138 71 -188 43 -44 117 -85 141 -79
14 4 33 -4 57 -23 20 -16 67 -45 104 -65 57 -29 79 -35 132 -35 35 0 67 5 70
10 3 6 15 10 26 10 11 0 38 9 59 20 33 17 46 19 82 10 24 -5 71 -10 105 -10
90 0 197 57 298 161 78 81 88 99 55 99 -29 0 -25 23 10 60 41 44 40 77 -4 95
-20 9 -48 12 -65 9 -27 -6 -31 -4 -31 14 0 11 13 30 28 41 15 11 37 35 47 55
27 50 11 66 -66 66 -37 0 -90 10 -146 29 -192 62 -236 101 -304 266 -26 64
-20 202 16 365 9 41 18 113 21 160 8 158 -34 197 -222 205 -60 3 -122 0 -139
-5z"/>
<path d="M2050 2094 c-19 -14 -49 -38 -65 -55 -17 -16 -35 -29 -39 -29 -4 0
-21 -11 -36 -24 l-29 -23 27 -13 c35 -18 234 -25 281 -12 20 6 49 14 64 17 23
5 27 10 21 23 -4 9 -9 39 -12 65 -4 51 -21 68 -47 47 -11 -9 -23 -9 -52 1 -21
7 -42 17 -47 21 -15 12 -28 9 -66 -18z"/>
<path d="M2510 569 c-25 -10 -70 -21 -102 -25 -63 -7 -60 -3 -117 -146 -41
-103 -41 -108 12 -110 134 -5 173 13 219 104 32 63 54 159 42 180 -8 12 -15
12 -54 -3z"/>
</g>
</svg>
