<?xml version="1.0" standalone="no"?>
<!DOCTYPE svg PUBLIC "-//W3C//DTD SVG 20010904//EN"
 "http://www.w3.org/TR/2001/REC-SVG-20010904/DTD/svg10.dtd">
<svg version="1.0" xmlns="http://www.w3.org/2000/svg"
 width="498.000000pt" height="278.000000pt" viewBox="0 0 498.000000 278.000000"
 preserveAspectRatio="xMidYMid meet">
<metadata>
Created by potrace 1.16, written by Peter Selinger 2001-2019
</metadata>
<g transform="translate(0.000000,278.000000) scale(0.100000,-0.100000)"
fill="#000000" stroke="none">
<path d="M0 1390 l0 -1390 2490 0 2490 0 0 1390 0 1390 -2490 0 -2490 0 0
-1390z m2515 1231 c102 -32 151 -58 189 -97 l38 -39 -5 -95 c-3 -52 -8 -114
-11 -137 -8 -51 2 -58 88 -67 72 -8 94 -19 102 -53 11 -41 -33 -70 -115 -78
-36 -3 -73 -10 -81 -14 -8 -4 -24 -35 -36 -68 -12 -34 -42 -87 -67 -120 -59
-75 -66 -96 -57 -165 13 -90 59 -140 181 -195 125 -57 190 -166 193 -324 1
-60 -3 -74 -52 -171 -61 -121 -126 -192 -229 -249 -57 -32 -65 -39 -98 -109
-20 -41 -41 -83 -46 -92 -5 -10 -9 -19 -9 -21 0 -1 27 -3 60 -4 67 -1 90 -14
90 -49 0 -19 -7 -24 -36 -30 -24 -4 -38 -14 -44 -29 -8 -20 -17 -23 -97 -28
-61 -3 -90 -2 -95 6 -19 30 -1 216 27 279 6 15 2 18 -31 18 -21 0 -76 5 -122
12 -79 12 -85 11 -98 -7 -8 -10 -14 -28 -14 -38 0 -11 -18 -59 -41 -106 -22
-47 -47 -99 -54 -116 -8 -16 -15 -25 -15 -18 0 13 15 48 64 153 17 35 36 82
41 105 l10 40 50 -1 c28 -1 89 -5 138 -9 71 -7 87 -11 87 -24 0 -10 -4 -21 -9
-27 -23 -23 -41 -223 -23 -250 5 -8 33 -10 85 -6 71 4 80 7 89 28 7 14 20 24
32 24 35 0 53 17 40 37 -13 21 -67 34 -111 27 -48 -9 -47 -4 35 161 21 42 36
56 94 89 93 54 163 131 223 246 45 87 50 101 49 160 -1 36 -9 92 -18 124 -15
49 -28 70 -79 120 -37 36 -78 67 -102 75 -53 18 -119 64 -144 100 -26 36 -42
144 -28 186 5 16 33 62 62 100 30 40 58 91 65 118 15 56 24 62 108 71 66 6
122 35 122 61 0 23 -43 45 -100 51 -30 3 -64 10 -78 15 -21 8 -23 13 -17 57 4
26 9 88 12 137 l5 90 -37 38 c-50 52 -198 117 -264 117 -38 0 -152 -30 -196
-53 -99 -50 -120 -85 -131 -219 -7 -90 -17 -118 -39 -118 -14 0 -85 -30 -95
-40 -3 -3 -14 -10 -24 -16 -58 -31 -43 -61 51 -106 52 -24 70 -28 108 -23 38
6 46 5 51 -11 4 -11 20 -49 37 -86 26 -59 29 -76 25 -130 -7 -79 -39 -172 -76
-218 -18 -22 -71 -58 -143 -97 -102 -56 -119 -62 -157 -57 -52 6 -152 67 -151
92 0 11 2 12 6 4 9 -22 112 -82 149 -87 29 -3 51 4 114 40 42 25 81 45 86 45
19 0 85 63 110 106 46 77 72 232 44 260 -6 6 -21 37 -33 70 l-23 59 -55 0
c-84 1 -189 55 -189 98 0 24 27 57 47 57 7 0 13 4 13 8 0 4 25 16 55 27 31 10
59 23 64 29 4 6 11 48 15 94 13 168 55 214 234 263 86 23 114 23 187 0z m-19
-29 c5 -5 42 -21 81 -36 101 -39 123 -66 123 -157 0 -38 -2 -69 -4 -69 -2 0
-12 -3 -22 -7 -15 -5 -16 -2 -11 25 10 47 -6 76 -52 96 -44 20 -64 14 -76 -25
-6 -16 -16 -19 -80 -19 l-74 0 -7 36 c-7 40 -1 95 15 137 9 24 16 27 54 27 24
0 47 -4 53 -8z m-138 -89 c2 -40 -2 -81 -7 -91 -5 -10 -29 -24 -53 -31 -24 -7
-58 -21 -76 -32 -36 -21 -92 -26 -92 -8 0 43 26 147 41 164 10 11 35 28 56 39
21 10 45 22 53 27 8 4 29 7 45 6 l30 -2 3 -72z m206 -209 c54 -13 101 -24 102
-24 2 0 4 -8 4 -19 0 -16 -6 -17 -49 -13 l-50 4 -3 -43 c-3 -40 -6 -44 -31
-47 -15 -2 -32 -12 -37 -23 -9 -16 -3 -27 31 -64 36 -39 47 -45 81 -45 39 0
40 0 33 -32 -7 -33 -27 -66 -85 -142 -74 -96 -59 -216 37 -308 39 -37 104 -78
126 -78 7 0 33 -16 58 -34 67 -49 108 -137 111 -236 3 -71 0 -80 -39 -161 -24
-47 -56 -104 -72 -126 -44 -61 -149 -132 -224 -151 -79 -20 -277 -21 -372 -3
-118 23 -305 122 -305 162 0 22 -2 22 75 4 33 -8 80 -15 105 -16 41 -2 42 -3
10 -6 -32 -4 -131 10 -166 24 -31 12 -11 -18 32 -47 135 -91 240 -122 419
-124 169 -2 232 14 322 80 80 59 116 106 174 228 l40 84 -10 75 c-17 124 -84
208 -195 248 -54 19 -133 93 -159 148 -15 32 -21 64 -21 111 0 73 14 105 83
189 21 25 41 58 45 74 6 26 5 27 -32 27 -31 0 -45 7 -74 38 -54 55 -56 97 -5
110 29 7 32 12 35 51 l3 43 50 -4 c27 -1 49 0 49 3 0 4 -37 17 -82 30 -151 43
-334 22 -368 -41 -8 -14 -11 -60 -8 -128 3 -93 6 -111 27 -140 22 -32 23 -39
18 -145 -6 -120 -16 -157 -62 -225 -34 -51 -75 -80 -210 -146 -143 -71 -139
-69 -199 -62 -33 3 -57 2 -61 -4 -8 -14 28 -91 54 -114 11 -11 21 -27 21 -38
0 -20 -54 -58 -82 -58 -43 0 -1 -36 75 -64 26 -10 47 -19 47 -21 0 -17 -17
-38 -36 -46 -13 -4 -24 -13 -24 -18 0 -15 101 -59 165 -72 86 -17 167 -40 162
-46 -3 -2 -29 2 -59 11 -95 27 -135 36 -155 36 -32 0 -123 50 -123 68 0 10 14
25 32 35 30 17 31 18 11 32 -11 7 -33 17 -49 21 -64 15 -108 74 -56 74 15 0
40 11 57 24 l29 24 -31 36 c-32 36 -59 108 -48 126 4 6 31 8 68 4 61 -6 63 -6
188 59 163 83 172 90 211 146 52 73 60 99 66 208 4 95 3 105 -22 154 -23 46
-26 65 -26 150 0 120 9 145 57 166 86 36 191 38 317 7z m-407 -76 c10 -13 9
-97 -1 -123 -9 -25 -94 -19 -154 10 -29 14 -52 31 -52 38 0 17 54 57 78 57 10
0 22 4 28 9 8 8 23 12 80 20 6 0 16 -5 21 -11z m-474 -886 c3 -15 16 -38 29
-52 34 -36 25 -58 -27 -66 -57 -8 -72 -25 -45 -49 26 -24 25 -45 -2 -45 -22 0
-88 55 -88 73 0 5 11 18 25 29 30 23 32 49 5 66 -22 14 -17 42 9 42 9 0 27 9
40 19 30 23 47 18 54 -17z m857 -621 c0 -10 -44 -114 -64 -151 -7 -14 -16 -46
-19 -72 -7 -47 -6 -48 21 -48 15 0 36 7 46 15 11 8 25 15 30 15 6 0 -2 -9 -19
-19 -26 -16 -135 -40 -135 -29 0 74 40 257 63 286 11 14 77 17 77 3z m768
-444 c66 -35 53 -76 -29 -94 -40 -9 -234 -12 -739 -11 -786 1 -877 3 -902 25
-10 9 -18 13 -18 9 0 -4 -9 -2 -20 4 -23 12 -26 42 -7 59 27 22 163 28 657 30
277 1 505 3 506 4 1 1 119 0 261 -3 220 -5 263 -8 291 -23z"/>
<path d="M2394 2555 c-14 -35 -19 -101 -8 -129 5 -12 21 -16 70 -16 59 0 64 2
76 28 17 35 46 39 97 13 44 -23 56 -46 46 -92 -5 -22 -4 -29 4 -25 6 4 11 35
11 71 0 59 -2 65 -33 92 -18 16 -60 39 -93 52 -32 12 -67 27 -76 32 -10 5 -32
9 -48 9 -26 0 -33 -6 -46 -35z"/>
<path d="M2250 2544 c-68 -38 -87 -60 -95 -112 -3 -26 -9 -57 -12 -69 -7 -29
22 -31 69 -5 18 10 53 24 78 32 25 8 48 19 52 25 4 5 8 43 8 83 l0 72 -27 -1
c-16 0 -48 -12 -73 -25z"/>
<path d="M2100 2213 c-14 -3 -29 -9 -34 -14 -6 -5 -21 -9 -33 -9 -13 0 -35
-11 -49 -23 l-25 -24 25 -16 c14 -10 32 -17 40 -17 8 0 18 -4 21 -10 8 -12 92
-13 99 -1 18 29 9 123 -11 120 -4 -1 -19 -4 -33 -6z"/>
<path d="M2756 283 c-1 -1 -249 -4 -551 -6 -452 -3 -555 -6 -579 -18 -36 -17
-44 -37 -19 -46 10 -3 25 -12 33 -19 22 -18 145 -22 898 -23 666 -1 755 3 789
31 19 16 16 24 -19 50 -32 22 -41 23 -291 28 -142 3 -260 4 -261 3z"/>
</g>
</svg>
