<?xml version="1.0" standalone="no"?>
<!DOCTYPE svg PUBLIC "-//W3C//DTD SVG 20010904//EN"
 "http://www.w3.org/TR/2001/REC-SVG-20010904/DTD/svg10.dtd">
<svg version="1.0" xmlns="http://www.w3.org/2000/svg"
 width="498.000000pt" height="278.000000pt" viewBox="0 0 498.000000 278.000000"
 preserveAspectRatio="xMidYMid meet">
<metadata>
Created by potrace 1.16, written by Peter Selinger 2001-2019
</metadata>
<g transform="translate(0.000000,278.000000) scale(0.100000,-0.100000)"
fill="#000000" stroke="none">
<path d="M0 1390 l0 -1390 2490 0 2490 0 0 1390 0 1390 -2490 0 -2490 0 0
-1390z m2591 997 c75 -36 140 -88 148 -117 2 -8 6 -62 9 -119 l5 -103 53 -57
c30 -31 54 -65 54 -77 0 -44 -92 -93 -191 -101 -80 -7 -88 -14 -120 -120 -15
-46 -20 -83 -16 -117 4 -46 9 -55 58 -98 91 -80 279 -173 279 -139 0 17 134
143 167 157 17 8 34 18 38 24 11 18 56 10 80 -15 19 -18 25 -34 24 -62 l-1
-38 -8 37 c-7 40 -35 78 -56 78 -36 0 -181 -114 -226 -179 -14 -20 -22 -22
-50 -17 -18 4 -47 15 -65 24 -18 9 -57 30 -88 46 -30 16 -79 52 -108 80 -51
48 -54 54 -56 103 -2 52 24 155 53 211 14 27 20 30 83 34 88 6 193 57 193 94
0 7 -18 30 -41 51 -57 53 -69 81 -69 160 0 151 -22 184 -167 254 l-87 42 -98
-13 c-75 -10 -111 -21 -155 -45 -58 -31 -60 -33 -115 -147 -11 -24 -10 -95 1
-102 42 -26 -74 -134 -201 -187 -104 -43 -111 -73 -30 -116 58 -31 151 -46
236 -38 70 7 71 6 91 -22 12 -15 27 -52 34 -81 28 -111 -15 -196 -165 -327
-110 -96 -189 -188 -223 -260 -28 -58 -31 -75 -31 -158 0 -125 18 -174 90
-240 57 -52 139 -97 177 -97 12 0 43 -12 68 -28 45 -27 46 -28 42 -72 -6 -62
-49 -153 -83 -177 -47 -33 -70 -36 -280 -38 -173 -1 -205 -3 -227 -18 -34 -22
-34 -30 1 -53 49 -32 179 -36 1267 -31 350 2 393 4 424 20 35 17 52 18 29 0
-39 -30 -104 -33 -708 -33 -338 -1 -622 -1 -630 -2 -8 0 -87 3 -175 7 -184 8
-249 26 -243 67 6 44 46 52 269 53 195 2 208 3 242 24 46 28 69 61 90 130 24
74 22 85 -18 107 -19 10 -35 21 -35 25 0 3 -20 9 -45 12 -99 14 -211 102 -245
195 -18 48 -21 73 -18 162 3 91 8 113 32 163 34 68 108 153 226 258 95 85 156
167 166 222 7 45 -11 120 -39 160 -19 28 -21 29 -86 22 -139 -14 -301 40 -301
100 0 28 16 41 82 69 72 30 158 88 184 123 18 24 21 39 17 76 -6 51 14 130 46
184 37 59 203 116 321 109 26 -2 77 -18 121 -39z m-81 -220 c83 -41 100 -71
100 -179 0 -72 -3 -83 -44 -161 -78 -150 -96 -255 -53 -318 47 -71 249 -198
339 -213 38 -7 78 -47 112 -113 9 -18 19 -33 21 -33 13 0 2 41 -20 74 -35 52
-33 59 20 54 62 -7 78 -23 71 -67 -14 -77 -12 -84 14 -91 21 -5 25 -12 28 -48
2 -26 -3 -50 -12 -64 -21 -30 -20 -35 9 -42 45 -11 30 -70 -43 -163 -39 -50
-28 -66 15 -20 67 72 94 157 61 194 -12 14 -14 28 -8 63 l8 45 -1 -42 c-1 -22
5 -48 12 -57 37 -44 -1 -154 -78 -231 -23 -21 -41 -44 -41 -50 0 -20 -68 -80
-117 -105 -27 -13 -64 -36 -84 -51 -20 -16 -54 -34 -75 -41 -36 -12 -41 -18
-64 -85 -14 -39 -28 -75 -33 -79 -12 -12 -8 -54 6 -55 6 0 46 0 87 0 387 2
467 1 515 -9 59 -12 106 -42 87 -54 -7 -4 -12 -3 -12 3 0 6 -12 17 -27 24 -55
28 -73 29 -524 27 l-107 0 -26 -35 c-23 -30 -33 -35 -64 -33 -35 1 -35 1 -6 5
35 4 88 53 67 60 -14 5 -18 69 -4 77 6 4 44 106 46 126 1 16 19 29 45 35 16 3
48 21 72 38 24 18 65 43 91 57 27 14 62 38 78 54 34 33 61 80 52 89 -9 9 -84
-56 -94 -81 -5 -13 -26 -30 -46 -38 -20 -9 -55 -31 -78 -49 -70 -56 -127 -69
-320 -70 l-170 0 -105 52 c-58 28 -125 57 -150 63 -24 7 -62 24 -85 40 -94 65
-120 122 -119 260 1 145 24 184 223 380 174 171 205 217 205 305 0 51 -50 179
-66 169 -4 -3 -8 -3 -8 1 0 6 93 48 130 58 14 4 36 16 49 27 l24 21 -31 27
c-25 22 -32 36 -34 72 l-3 45 -72 1 c-130 3 -143 14 -100 89 28 50 89 73 197
74 65 0 84 -4 140 -32z m629 -750 c-7 -18 -24 -47 -37 -65 -29 -38 -22 -55 11
-24 41 39 107 50 107 19 0 -6 -17 -29 -37 -50 l-38 -39 30 4 c19 2 34 11 41
25 6 13 19 32 29 43 17 19 18 22 2 37 -9 10 -38 20 -64 24 -45 6 -45 6 -11 8
45 1 87 -14 95 -35 3 -8 -4 -29 -17 -45 -21 -29 -21 -32 -5 -49 22 -25 22 -60
0 -94 -20 -30 -96 -86 -117 -86 -7 0 8 14 34 30 59 37 101 96 87 121 -12 23
-26 32 -40 24 -7 -5 -5 -13 5 -24 14 -15 13 -19 -3 -44 -25 -38 -51 -56 -83
-57 -43 0 -58 23 -45 66 10 34 9 38 -19 64 -23 20 -46 29 -90 34 -32 4 -66 11
-74 17 -11 8 -8 9 15 4 17 -4 55 -11 85 -16 36 -6 62 -17 79 -34 23 -23 24
-28 14 -65 -9 -36 -8 -42 8 -50 30 -17 47 -11 83 26 30 31 33 38 21 50 -7 8
-25 14 -38 14 -39 0 -37 20 5 58 24 22 35 39 30 44 -11 11 -61 -12 -81 -36
-18 -21 -51 -21 -51 1 0 9 10 30 23 47 34 46 50 83 43 95 -20 32 -101 -9 -173
-87 -22 -23 -42 -40 -45 -36 -19 18 160 158 188 147 8 -3 14 1 14 8 1 8 8 1
16 -14 13 -24 14 -34 3 -60z m-565 -945 c3 -9 -1 -39 -9 -66 -33 -110 -66
-129 -212 -127 l-103 2 0 -26 c0 -17 -7 -28 -22 -34 -33 -12 -146 -22 -152
-13 -2 4 26 8 62 10 89 4 102 13 102 65 0 23 6 54 14 68 7 14 21 51 31 82 10
31 24 57 32 59 9 2 69 2 134 0 100 -3 119 -6 123 -20z"/>
<path d="M2260 2176 c-50 -16 -58 -23 -81 -68 -17 -33 -18 -42 -7 -49 14 -9
64 -14 113 -11 64 4 75 -4 75 -53 0 -38 4 -48 30 -67 53 -39 36 -63 -75 -107
-76 -30 -80 -34 -62 -62 9 -13 23 -51 33 -85 15 -57 15 -64 -1 -120 -22 -79
-42 -104 -215 -274 -185 -182 -205 -218 -204 -360 0 -76 4 -103 21 -135 37
-71 118 -132 200 -151 30 -7 62 -19 71 -27 28 -24 127 -66 184 -78 70 -15 308
-5 367 16 23 8 61 29 84 47 23 18 58 41 79 50 21 9 41 25 45 35 4 10 39 50 79
88 71 70 118 142 112 173 -2 9 -16 19 -31 22 l-28 5 21 40 c30 59 27 94 -10
106 -24 9 -30 17 -30 39 0 16 5 32 10 35 18 11 11 53 -12 69 -12 9 -35 16 -51
16 l-28 0 19 -27 c11 -16 23 -38 26 -51 5 -13 12 -20 19 -15 7 4 7 0 -1 -10
-8 -9 -11 -20 -8 -26 3 -5 -3 -7 -14 -4 -12 3 -30 24 -42 47 -25 50 -81 106
-105 106 -23 0 -101 29 -133 50 -14 8 -38 22 -53 30 -52 26 -142 105 -159 140
-36 70 -11 197 62 333 36 66 40 79 40 147 0 97 -18 129 -99 170 -52 26 -71 30
-133 29 -40 -1 -89 -6 -108 -13z"/>
<path d="M2319 479 c-9 -5 -55 -121 -66 -166 -5 -22 -2 -22 88 -25 152 -5 210
39 222 167 2 19 -5 20 -117 25 -65 3 -122 2 -127 -1z"/>
</g>
</svg>
