<?xml version="1.0" standalone="no"?>
<!DOCTYPE svg PUBLIC "-//W3C//DTD SVG 20010904//EN"
 "http://www.w3.org/TR/2001/REC-SVG-20010904/DTD/svg10.dtd">
<svg version="1.0" xmlns="http://www.w3.org/2000/svg"
 width="498.000000pt" height="278.000000pt" viewBox="0 0 498.000000 278.000000"
 preserveAspectRatio="xMidYMid meet">
<metadata>
Created by potrace 1.16, written by Peter Selinger 2001-2019
</metadata>
<g transform="translate(0.000000,278.000000) scale(0.100000,-0.100000)"
fill="#000000" stroke="none">
<path d="M0 1390 l0 -1390 2490 0 2490 0 0 1390 0 1390 -2490 0 -2490 0 0
-1390z m2564 1082 c43 -20 86 -51 120 -86 58 -59 69 -88 67 -188 0 -32 3 -58
8 -58 20 0 151 -95 151 -110 0 -26 -85 -114 -134 -139 -26 -12 -74 -25 -106
-28 l-58 -6 -17 -71 c-30 -134 -30 -174 -1 -256 30 -83 74 -167 115 -220 15
-19 44 -66 65 -104 52 -97 63 -179 42 -318 -23 -154 -57 -212 -165 -281 -32
-21 -34 -25 -33 -77 1 -77 19 -196 34 -219 12 -20 23 -21 293 -21 319 0 365
-7 405 -55 11 -13 10 -18 -4 -34 -31 -34 -110 -42 -407 -41 -156 1 -309 1
-339 0 -30 -1 -52 1 -50 4 7 7 62 8 391 6 290 -1 375 7 386 36 3 8 9 11 14 8
5 -3 9 -2 9 3 0 4 -17 19 -38 33 -35 23 -46 25 -229 30 -106 3 -242 4 -301 2
l-108 -3 4 -28 c2 -16 -1 -32 -8 -36 -9 -5 -10 -1 -6 13 4 13 -1 37 -14 62
-31 60 -55 257 -37 304 3 8 24 24 45 35 81 41 128 123 148 260 21 134 12 205
-38 299 -21 41 -51 91 -67 111 -44 55 -78 122 -111 215 -36 101 -37 121 -9
252 l22 101 63 6 c76 6 139 40 197 110 l40 46 -24 20 c-13 11 -50 35 -81 53
l-57 33 0 70 c0 39 -4 83 -10 98 -17 43 -102 122 -172 159 -60 31 -70 33 -164
33 -118 -1 -170 -21 -246 -95 -38 -37 -48 -54 -53 -92 -4 -27 -4 -68 -1 -92 6
-38 4 -46 -19 -69 -27 -27 -140 -107 -151 -107 -17 0 -105 -67 -105 -80 0 -19
55 -57 101 -70 19 -6 86 -10 150 -10 l117 0 16 -40 c22 -55 22 -254 0 -309
-15 -38 -65 -82 -144 -125 -50 -27 -252 -30 -293 -3 -15 9 -27 22 -27 27 0 6
-17 37 -37 70 -48 77 -75 86 -115 41 -24 -27 -28 -40 -28 -91 0 -57 -1 -60
-27 -66 -48 -10 -53 -13 -53 -31 0 -10 12 -38 26 -63 41 -70 44 -84 28 -115
-8 -15 -11 -32 -7 -39 17 -30 49 -56 69 -56 37 0 54 -11 54 -34 0 -29 8 -39
58 -70 23 -14 42 -31 42 -36 0 -12 49 -119 63 -138 41 -54 124 -125 169 -145
65 -29 81 -58 130 -235 18 -67 18 -75 4 -91 -33 -36 -114 -51 -299 -54 -144
-3 -180 -7 -201 -21 -33 -21 -33 -31 1 -53 30 -20 186 -35 358 -34 409 3 517
2 522 -2 3 -3 -91 -6 -209 -6 -117 -1 -258 -1 -313 -2 -55 0 -154 3 -221 8
-134 9 -178 26 -172 66 5 39 47 48 236 54 179 4 244 16 284 51 20 17 19 24
-24 160 -33 101 -66 145 -116 155 -26 5 -126 93 -157 138 -16 23 -65 127 -65
138 0 6 -19 23 -42 37 -50 31 -58 41 -58 71 0 17 -7 24 -27 28 -77 16 -115 63
-89 112 13 26 12 32 -21 90 -45 81 -43 116 7 123 l35 5 6 68 c4 52 11 73 29
92 23 24 63 32 86 17 10 -6 58 -80 90 -137 18 -33 79 -47 174 -42 57 3 96 10
120 23 69 37 129 87 144 119 22 45 22 248 1 299 l-15 36 -113 0 c-122 0 -175
10 -224 43 -54 36 -38 80 47 122 50 26 145 91 176 122 21 21 25 31 19 60 -12
64 5 142 38 180 67 76 169 114 292 110 66 -3 94 -9 149 -35z m-74 -17 c25 -13
30 -21 30 -54 0 -44 -11 -52 -55 -39 -16 4 -48 8 -71 8 -24 0 -47 6 -53 14
-35 42 -108 24 -158 -39 -32 -40 -53 -45 -53 -12 0 37 67 93 145 123 46 18
180 17 215 -1z m45 -136 c53 -24 175 -106 175 -118 0 -3 -4 -12 -8 -18 -6 -10
-36 1 -118 42 -62 31 -130 57 -157 61 -51 7 -62 16 -53 40 5 13 18 14 73 8 38
-3 77 -11 88 -15z m-58 -76 c76 -21 92 -38 103 -108 11 -69 7 -213 -8 -271
-41 -157 -48 -245 -27 -309 33 -102 82 -199 135 -270 90 -120 120 -229 100
-368 -23 -162 -67 -247 -136 -262 -16 -3 -37 -10 -46 -16 -10 -5 -23 -9 -30
-9 -7 0 -44 -16 -82 -35 -72 -36 -100 -42 -111 -25 -3 6 -20 10 -37 10 -31 0
-69 15 -173 65 -28 14 -64 25 -80 25 -38 0 -116 24 -156 47 -45 26 -126 138
-144 199 -15 51 -28 68 -67 89 -12 5 -27 20 -35 32 -13 19 -12 23 6 40 17 16
19 24 10 62 -5 24 -8 46 -5 48 2 2 9 -19 15 -48 11 -49 10 -55 -9 -69 l-21
-16 23 -20 c13 -11 34 -27 48 -36 17 -10 31 -34 43 -69 19 -62 101 -176 144
-201 43 -25 114 -48 149 -48 18 0 75 -20 127 -45 53 -25 107 -45 121 -45 14 0
36 -5 50 -11 21 -10 32 -7 73 15 50 29 151 66 178 66 27 0 91 74 108 126 28
89 40 206 28 278 -12 66 -55 155 -110 225 -34 44 -82 135 -113 216 -26 67 -30
177 -10 256 31 126 37 174 36 281 -1 158 -9 169 -139 202 -60 16 -199 5 -245
-19 -33 -17 -65 -69 -56 -91 6 -17 82 -19 141 -3 84 22 83 22 87 2 2 -10 -7
-33 -19 -52 -24 -35 -30 -75 -13 -86 33 -20 -15 -95 -62 -95 -28 0 -31 -19
-13 -121 14 -80 15 -106 4 -174 -15 -97 -30 -125 -105 -190 -114 -99 -226
-224 -257 -283 -23 -46 -47 -51 -47 -11 0 48 19 80 90 154 39 39 67 75 63 78
-3 4 -1 7 5 7 24 0 10 -24 -51 -88 -78 -83 -97 -109 -97 -141 0 -28 11 -21 33
22 18 35 107 137 171 196 27 26 77 73 110 107 61 61 61 61 74 145 11 73 11 97
-3 182 -18 106 -16 127 14 127 11 0 33 11 48 24 25 22 26 27 16 45 -18 29 -16
58 8 108 12 24 20 46 18 48 -2 2 -29 -3 -59 -11 -57 -15 -127 -18 -154 -8 -40
16 4 106 60 124 44 15 170 28 204 22 14 -2 48 -11 77 -19z m193 -91 c19 -10
68 -39 108 -65 86 -57 92 -79 35 -126 -55 -45 -98 -63 -146 -59 l-42 3 -6 105
c-3 58 -7 110 -8 115 -7 21 0 45 12 45 7 0 28 -8 47 -18z m-555 -52 c3 -5 19
-10 34 -10 15 0 32 -5 39 -12 9 -9 15 -9 24 0 7 7 26 12 44 12 l32 0 -2 -72
-1 -72 -65 -23 c-100 -34 -232 -30 -332 9 -48 18 -32 40 80 110 106 66 135 77
147 58z m-429 -620 c36 -60 41 -85 21 -97 -26 -15 -35 -47 -30 -100 4 -35 2
-53 -5 -53 -6 0 -12 -24 -14 -57 -3 -52 -5 -57 -30 -64 -29 -8 -68 12 -68 35
0 8 10 20 23 29 21 14 21 16 6 33 -21 24 -79 122 -79 133 0 21 34 19 70 -4 44
-28 50 -20 28 32 -13 33 -12 28 -21 75 -6 27 -3 46 8 68 24 46 52 37 91 -30z
m577 -924 c26 -16 104 -29 165 -26 50 1 56 -8 72 -117 13 -96 14 -91 -22 -113
-26 -16 -51 -20 -114 -20 -84 0 -97 -6 -106 -45 -3 -11 -5 3 -4 30 0 28 -10
104 -22 169 -18 96 -20 121 -10 128 17 10 15 10 41 -6z"/>
<path d="M2296 2451 c-3 -4 -19 -11 -35 -14 -17 -4 -40 -16 -51 -27 -11 -11
-23 -21 -27 -22 -13 -3 -43 -45 -43 -59 0 -8 14 3 31 24 52 63 132 82 179 42
8 -7 40 -15 70 -18 30 -3 62 -7 70 -9 11 -2 15 6 15 32 0 27 -6 37 -25 47 -28
14 -176 18 -184 4z"/>
<path d="M2619 2148 c-1 -7 0 -17 2 -23 2 -5 6 -55 9 -110 l5 -100 38 -3 c61
-5 178 75 164 112 -7 18 -90 74 -167 112 -19 10 -38 20 -42 22 -5 2 -9 -2 -9
-10z"/>
<path d="M2025 2059 c-33 -21 -81 -51 -107 -66 -27 -14 -48 -29 -48 -34 0 -17
91 -42 173 -47 88 -5 131 3 205 35 25 11 32 19 26 31 -8 21 -8 50 2 81 7 23 5
23 -27 17 -53 -11 -134 -2 -145 15 -8 14 -14 11 -79 -32z"/>
<path d="M1605 1504 c-17 -26 -17 -30 0 -83 24 -79 29 -121 16 -121 -6 0 -29
11 -51 25 -38 24 -63 19 -41 -7 27 -32 81 -121 81 -133 0 -7 -9 -19 -21 -26
-20 -14 -20 -15 -2 -31 13 -11 24 -13 41 -7 19 7 22 16 22 64 0 34 4 55 11 55
8 0 10 16 6 47 -5 51 5 90 30 108 14 11 12 18 -18 70 -19 32 -39 60 -45 62 -6
2 -19 -8 -29 -23z"/>
<path d="M2226 552 c-5 -8 27 -204 40 -244 5 -15 18 -18 92 -18 75 0 91 3 115
23 l28 22 -12 75 c-15 101 -22 111 -67 109 -49 -2 -161 17 -177 31 -7 6 -16 7
-19 2z"/>
</g>
</svg>
