<?xml version="1.0" standalone="no"?>
<!DOCTYPE svg PUBLIC "-//W3C//DTD SVG 20010904//EN"
 "http://www.w3.org/TR/2001/REC-SVG-20010904/DTD/svg10.dtd">
<svg version="1.0" xmlns="http://www.w3.org/2000/svg"
 width="498.000000pt" height="278.000000pt" viewBox="0 0 498.000000 278.000000"
 preserveAspectRatio="xMidYMid meet">
<metadata>
Created by potrace 1.16, written by Peter Selinger 2001-2019
</metadata>
<g transform="translate(0.000000,278.000000) scale(0.100000,-0.100000)"
fill="#000000" stroke="none">
<path d="M0 1390 l0 -1390 2490 0 2490 0 0 1390 0 1390 -2490 0 -2490 0 0
-1390z m2517 1139 c163 -66 234 -132 263 -247 9 -36 21 -49 73 -87 34 -24 71
-50 81 -58 33 -23 13 -62 -57 -113 l-62 -46 -76 4 -76 5 -2 -49 c-1 -66 -19
-171 -37 -221 -8 -23 -19 -84 -24 -135 -8 -81 -7 -99 9 -141 35 -93 99 -151
167 -151 22 0 45 18 112 90 96 104 120 112 153 55 l20 -34 47 32 c26 18 64 41
86 52 21 11 45 30 53 43 42 62 87 -7 81 -123 -2 -38 -6 -76 -8 -84 -4 -10 4
-15 25 -15 29 -1 30 -3 28 -45 -1 -28 -12 -58 -28 -83 -28 -43 -28 -56 1 -40
28 16 54 -3 54 -39 0 -73 -53 -135 -183 -212 -43 -26 -81 -47 -85 -47 -4 0
-16 -15 -26 -33 -43 -74 -174 -176 -324 -250 -51 -25 -104 -55 -119 -66 -28
-23 -112 -51 -150 -51 -19 0 -28 -10 -44 -47 -11 -26 -19 -60 -17 -75 l3 -29
405 -2 c383 -2 407 -3 444 -22 22 -11 42 -26 44 -34 3 -10 -5 -7 -23 7 -15 12
-44 26 -64 32 -20 5 -202 9 -413 9 l-378 1 0 -28 c0 -16 -7 -37 -16 -48 -15
-19 -16 -19 -9 1 15 43 15 51 2 69 -15 21 -9 79 16 139 13 31 19 34 65 40 50
6 83 20 172 76 25 15 60 33 78 39 85 29 279 181 318 249 10 18 22 33 26 33 4
0 42 21 85 47 122 72 183 138 183 196 0 28 -24 54 -35 37 -9 -14 -54 -13 -51
3 1 6 14 31 30 54 15 23 29 57 29 75 2 30 -1 33 -26 34 -35 1 -41 8 -28 32 25
46 3 212 -28 212 -5 0 -15 -10 -24 -22 -8 -13 -32 -32 -53 -43 -22 -11 -60
-34 -86 -52 -26 -18 -52 -33 -57 -33 -6 0 -16 12 -23 27 -32 64 -55 54 -162
-69 -54 -63 -62 -68 -98 -68 -83 0 -143 52 -178 156 -17 48 -18 67 -10 147 5
51 16 111 24 134 19 52 37 159 37 228 l1 53 77 -5 76 -5 63 46 c72 53 84 73
56 93 -10 8 -46 34 -80 58 -53 37 -63 49 -73 90 -24 94 -80 156 -199 216 -60
30 -76 34 -147 34 -69 0 -88 -4 -135 -29 -76 -40 -199 -126 -211 -147 -5 -10
-12 -53 -15 -96 -3 -43 -7 -91 -9 -107 -4 -22 3 -35 32 -65 38 -38 44 -65 25
-112 -8 -20 -24 -31 -64 -44 -29 -9 -62 -21 -73 -26 -11 -5 -51 -16 -88 -23
-75 -16 -97 -29 -97 -57 0 -31 68 -66 205 -104 145 -41 153 -46 196 -142 35
-76 36 -103 5 -168 -31 -67 -69 -98 -216 -175 -136 -71 -181 -109 -223 -187
-24 -44 -27 -63 -28 -137 l-1 -86 45 -63 c44 -61 159 -177 177 -177 4 0 10 -7
14 -15 7 -20 -62 -84 -91 -85 -22 0 -73 64 -88 109 -3 12 -13 21 -21 21 -10 0
-14 -13 -14 -47 0 -93 -14 -109 -60 -73 -29 23 -46 25 -53 7 -5 -14 182 -177
203 -177 6 0 47 32 92 70 44 39 93 73 107 77 14 3 38 13 53 21 25 15 32 14
100 -13 40 -15 79 -33 87 -40 16 -16 19 -131 3 -147 -6 -6 -49 -11 -109 -10
-239 1 -293 2 -293 9 0 5 33 7 72 5 170 -6 294 -6 311 0 13 6 17 20 17 66 0
36 -5 64 -12 70 -7 5 -42 22 -77 37 -50 21 -69 24 -85 16 -12 -5 -37 -17 -57
-25 -21 -8 -70 -43 -110 -78 -41 -35 -82 -67 -92 -71 -13 -5 -44 16 -120 79
-56 47 -102 90 -101 95 1 5 2 16 3 24 2 21 38 19 69 -5 33 -27 42 -14 42 63 0
54 1 57 25 57 14 0 25 -5 25 -11 0 -18 70 -119 82 -119 6 0 28 16 49 35 l38
34 -34 21 c-44 27 -147 139 -180 195 -23 39 -27 55 -26 130 1 71 5 95 27 142
38 80 84 120 224 193 145 76 182 106 216 171 31 62 30 87 -5 157 -48 95 -52
98 -202 141 -75 21 -148 47 -163 56 -55 36 -42 100 22 110 41 7 194 52 230 68
18 8 52 62 52 83 0 1 -17 18 -37 38 l-37 34 3 83 c1 45 6 104 12 132 5 27 9
51 9 53 0 10 144 103 209 136 65 33 85 38 143 38 37 0 80 -5 95 -11z m0 -40
c88 -37 113 -59 113 -101 0 -37 -1 -38 -35 -38 -20 0 -50 6 -68 13 -37 16
-144 14 -160 -2 -6 -6 -21 -11 -34 -11 -13 0 -56 -16 -96 -35 -66 -32 -73 -34
-85 -18 -6 9 -11 30 -10 47 3 33 41 65 156 128 81 44 144 49 219 17z m8 -145
c68 -7 95 -18 95 -38 0 -18 -20 -25 -45 -15 -30 11 -243 11 -250 -1 -3 -5 -13
-10 -21 -10 -8 0 -50 -22 -94 -50 -76 -47 -110 -55 -110 -25 0 26 207 135 259
136 20 0 45 4 56 9 11 5 27 7 35 5 8 -2 42 -7 75 -11z m317 -190 c29 -20 52
-40 51 -45 -2 -5 2 -9 7 -9 13 0 -46 -52 -77 -69 -23 -12 -111 -15 -137 -5
-22 8 -20 37 4 59 11 10 20 23 20 29 0 6 8 29 17 52 20 49 29 48 115 -12z
m-394 40 c20 -6 112 -127 112 -148 0 -4 10 -28 22 -54 29 -62 31 -175 4 -217
-21 -32 -39 -204 -30 -288 16 -144 144 -263 253 -235 26 7 46 19 54 34 15 28
120 138 135 141 17 4 26 -82 13 -133 -15 -57 -45 -118 -72 -145 -24 -24 -18
-55 9 -44 9 3 36 10 59 14 48 9 53 3 53 -58 0 -48 -46 -122 -99 -157 -23 -14
-38 -31 -35 -36 4 -6 35 -7 80 -3 41 4 74 4 74 1 0 -60 -168 -213 -280 -256
-19 -7 -72 -35 -117 -62 -73 -43 -97 -52 -207 -73 -110 -21 -128 -22 -167 -10
-63 19 -175 62 -221 86 -10 5 -23 9 -30 9 -42 1 -155 77 -205 137 -86 104 -93
120 -93 208 1 144 55 214 240 309 232 118 290 232 203 400 -20 39 -46 84 -57
100 -15 23 -20 48 -21 109 -2 75 20 188 37 195 4 2 8 8 8 14 0 9 21 63 39 98
20 40 174 81 239 64z m836 -730 c17 -44 -3 -169 -30 -190 -12 -10 -12 -13 1
-24 11 -9 22 -9 45 -2 26 10 30 9 30 -8 0 -10 -20 -48 -45 -83 -25 -36 -45
-68 -45 -71 0 -11 66 -6 79 7 10 10 15 8 27 -7 8 -11 14 -23 14 -27 0 -15 -96
-105 -130 -123 -19 -10 -48 -25 -64 -33 -21 -11 -34 -13 -51 -5 -12 6 -41 8
-64 5 -22 -3 -41 -2 -41 2 0 4 15 25 34 47 43 50 59 142 31 184 -14 22 -22 25
-51 19 -42 -7 -43 2 -9 74 14 28 29 69 33 89 7 34 17 43 107 99 55 33 105 62
111 62 7 1 15 -6 18 -15z m-1227 -939 c0 -8 -3 -15 -7 -15 -8 0 -60 -40 -129
-98 -80 -69 -94 -70 -153 -14 -33 31 -35 47 -8 62 11 6 20 19 20 30 0 33 19
32 36 -2 32 -62 46 -62 121 1 41 36 67 50 89 50 21 1 31 -4 31 -14z m369 -140
c0 -22 -3 -53 -8 -69 -4 -16 -3 -36 2 -47 18 -32 -13 -49 -89 -49 -53 0 -68 3
-68 15 0 8 13 17 28 20 30 7 39 33 39 115 0 53 7 60 60 57 34 -2 35 -3 36 -42z
m-698 -109 c-79 -8 -112 -16 -125 -29 -17 -17 -17 -19 7 -37 14 -11 45 -23 70
-27 25 -4 394 -7 820 -7 719 -1 777 0 809 16 40 21 64 24 36 5 -50 -35 -106
-37 -807 -35 -763 2 -876 6 -925 32 -36 18 -43 45 -18 66 17 14 109 27 190 27
28 0 2 -5 -57 -11z"/>
<path d="M2360 2491 c-8 -5 -28 -15 -45 -22 -57 -25 -146 -91 -157 -115 -7
-15 -8 -31 -2 -44 9 -19 11 -18 76 15 37 19 78 35 91 35 13 0 28 5 33 10 17
17 135 19 173 4 18 -8 46 -14 62 -14 24 0 29 4 29 25 0 31 -41 70 -90 86 -19
6 -39 15 -44 20 -12 11 -106 11 -126 0z"/>
<path d="M2736 2158 c-9 -17 -16 -38 -16 -46 0 -9 -10 -26 -22 -39 -32 -34
-13 -46 61 -41 50 3 66 9 91 33 36 34 38 52 8 66 -13 5 -38 21 -57 34 -19 14
-37 25 -42 25 -4 0 -15 -14 -23 -32z"/>
<path d="M2331 2178 c-50 -11 -101 -37 -112 -58 -22 -38 -60 -130 -74 -175
-11 -38 -12 -51 -2 -57 14 -8 25 25 29 84 2 43 12 48 29 17 15 -29 7 -128 -12
-140 -21 -13 -26 -11 -32 12 -11 40 -26 8 -23 -49 2 -43 11 -70 36 -112 87
-146 102 -229 56 -318 -36 -70 -88 -113 -216 -178 -181 -93 -240 -165 -240
-296 0 -63 4 -79 27 -113 98 -147 159 -190 378 -267 17 -6 35 -14 40 -18 6 -4
39 -17 75 -28 l65 -21 115 22 c99 20 127 29 193 70 43 26 80 47 83 47 3 0 22
8 42 17 92 42 240 161 268 214 l14 29 -73 -6 c-75 -7 -93 -1 -82 28 3 7 21 23
39 35 52 34 96 103 96 152 0 39 -2 41 -29 41 -16 0 -41 -4 -55 -10 -14 -5 -33
-7 -41 -4 -18 7 -20 50 -2 57 7 3 28 32 45 66 35 64 51 147 35 175 -8 15 -17
9 -63 -38 -30 -31 -60 -66 -66 -78 -15 -27 -93 -50 -132 -38 -112 32 -182 121
-196 248 -9 83 9 259 30 290 25 38 26 157 2 195 -10 14 -18 33 -18 41 0 8 -16
37 -35 66 -19 29 -35 56 -35 60 0 5 -12 18 -26 29 -29 23 -62 25 -133 9z"/>
<path d="M3254 1460 c-8 -8 -43 -29 -135 -79 -44 -24 -52 -35 -68 -91 -7 -25
-22 -63 -32 -84 -10 -22 -19 -41 -19 -42 0 0 17 -1 37 0 51 1 66 -28 58 -108
-7 -67 -24 -107 -57 -131 -22 -17 -22 -17 19 -11 27 4 50 2 63 -6 16 -10 24
-9 47 7 15 11 42 27 58 35 45 23 125 108 118 126 -4 11 -9 12 -16 5 -6 -6 -30
-11 -54 -11 -56 0 -56 14 2 97 25 35 45 66 45 68 0 3 -7 5 -16 5 -8 0 -12 -4
-9 -10 4 -6 -4 -6 -22 1 -36 13 -45 30 -29 49 21 24 36 79 36 131 0 48 -9 66
-26 49z"/>
</g>
</svg>
