<?xml version="1.0" standalone="no"?>
<!DOCTYPE svg PUBLIC "-//W3C//DTD SVG 20010904//EN"
 "http://www.w3.org/TR/2001/REC-SVG-20010904/DTD/svg10.dtd">
<svg version="1.0" xmlns="http://www.w3.org/2000/svg"
 width="498.000000pt" height="278.000000pt" viewBox="0 0 498.000000 278.000000"
 preserveAspectRatio="xMidYMid meet">
<metadata>
Created by potrace 1.16, written by Peter Selinger 2001-2019
</metadata>
<g transform="translate(0.000000,278.000000) scale(0.100000,-0.100000)"
fill="#000000" stroke="none">
<path d="M0 1390 l0 -1390 2490 0 2490 0 0 1390 0 1390 -2490 0 -2490 0 0
-1390z m2495 1024 c101 -34 155 -72 222 -160 24 -32 28 -47 29 -108 l1 -71 44
-32 c47 -36 99 -91 99 -107 0 -5 -19 11 -42 35 -24 25 -59 56 -78 71 -34 25
-35 28 -32 82 4 68 -12 105 -74 169 -80 83 -190 134 -267 124 -124 -18 -197
-49 -264 -113 -46 -44 -48 -50 -43 -179 3 -90 3 -95 -6 -159 l-9 -60 -60 -30
c-92 -47 -195 -109 -195 -118 0 -5 15 -17 33 -29 29 -18 44 -20 160 -16 l128
4 23 -31 c74 -100 76 -263 4 -338 -39 -41 -96 -69 -151 -75 -46 -5 -61 -1
-113 26 -82 44 -92 53 -108 99 -20 57 -41 85 -91 127 l-44 36 -16 -30 c-8 -17
-16 -55 -16 -85 -2 -74 -6 -78 -58 -55 -52 23 -65 24 -82 3 -10 -12 -10 -27
-2 -67 6 -29 14 -60 18 -70 5 -11 2 -17 -8 -17 -8 0 -20 -7 -28 -16 -11 -13
-9 -23 11 -60 29 -56 63 -81 128 -94 36 -8 51 -17 55 -31 4 -16 0 -19 -34 -19
-31 0 -39 -4 -39 -19 0 -36 30 -89 70 -123 33 -29 40 -41 40 -72 0 -52 50
-155 94 -194 58 -51 140 -84 224 -91 78 -7 92 -16 92 -62 0 -14 5 -30 11 -36
5 -5 9 -32 7 -58 -4 -58 -30 -82 -98 -91 -61 -8 -69 -19 -27 -39 66 -31 206
-23 235 13 13 17 15 13 6 -12 -3 -9 -14 -16 -24 -16 -11 0 -21 -3 -24 -8 -7
-12 -166 -6 -178 6 -7 7 -20 12 -30 12 -10 0 -19 5 -19 10 -1 6 -2 16 -3 23
-2 18 -303 15 -342 -4 -69 -33 -2 -80 111 -79 39 1 106 -2 150 -7 44 -4 121
-6 170 -3 50 3 171 3 270 0 l180 -6 -265 -2 c-318 -4 -365 -3 -409 5 -18 3
-68 6 -110 7 -46 1 -88 7 -106 16 -33 17 -44 50 -22 69 24 19 184 33 324 28
125 -5 135 -4 165 17 26 17 34 30 36 60 2 21 -1 43 -7 49 -6 6 -11 25 -11 42
0 43 -16 55 -76 55 -82 0 -180 38 -243 95 -43 39 -91 143 -91 197 0 24 -9 39
-40 66 -22 19 -47 50 -56 70 -16 40 -17 119 0 102 12 -12 56 -13 56 -1 0 11
-25 21 -52 21 -40 0 -91 34 -119 79 -36 55 -37 88 -6 102 23 10 23 11 8 69
-25 98 11 136 90 95 16 -9 33 -14 38 -11 4 3 9 28 10 56 2 55 23 120 40 120
24 0 110 -82 129 -124 12 -25 22 -50 22 -55 0 -12 51 -61 63 -61 4 0 25 -11
47 -25 51 -32 103 -32 164 0 94 50 126 101 126 199 0 54 -6 81 -26 122 -39 79
-40 79 -178 76 -132 -3 -188 12 -194 53 -3 21 58 62 193 130 58 30 60 32 68
80 9 56 10 68 7 180 -3 109 5 138 48 176 42 37 147 89 182 90 14 0 34 4 45 9
32 14 86 11 140 -6z m146 -131 c52 -54 79 -95 79 -118 0 -21 -9 -19 -59 15
-24 17 -49 30 -55 29 -6 0 0 -8 13 -17 14 -9 34 -25 45 -35 l21 -18 -21 10
c-11 5 -26 6 -34 1 -9 -6 -28 0 -54 15 -31 18 -166 55 -199 55 -2 0 -4 7 -4
16 0 14 10 16 69 10 38 -3 85 -13 104 -21 19 -8 41 -12 50 -8 17 6 58 -12 92
-41 26 -23 28 -16 6 27 -18 35 -102 116 -120 117 -19 0 -10 -61 11 -76 15 -11
16 -14 3 -14 -24 0 -36 22 -33 60 4 43 2 40 23 40 10 0 38 -21 63 -47z m-128
-118 c33 -12 47 -22 47 -36 0 -10 11 -42 23 -71 45 -100 49 -116 44 -165 -13
-112 -27 -181 -46 -223 -17 -37 -21 -66 -21 -162 0 -65 5 -129 11 -145 37 -89
52 -113 96 -153 28 -25 69 -56 92 -70 47 -28 96 -95 110 -149 19 -72 7 -150
-34 -228 -57 -108 -115 -176 -186 -218 -34 -20 -71 -47 -81 -61 -11 -13 -41
-34 -66 -47 -40 -19 -63 -22 -164 -22 -115 0 -117 0 -155 31 -21 17 -43 40
-48 51 -23 45 -34 50 -119 57 -97 8 -163 35 -214 88 -40 42 -74 135 -66 178 5
24 2 35 -14 50 -12 11 -28 20 -36 20 -18 0 -53 48 -53 73 0 12 11 19 39 23 33
6 38 9 32 28 -18 62 -28 71 -88 83 -65 13 -116 52 -116 90 0 29 30 31 55 3 10
-11 13 -20 8 -20 -6 0 -16 7 -23 15 -16 19 -30 19 -30 1 0 -29 66 -74 119 -81
55 -7 59 -11 78 -65 19 -52 16 -60 -16 -60 -64 0 -53 -50 19 -89 34 -18 35
-21 36 -77 1 -69 25 -123 76 -170 61 -57 101 -73 199 -80 l91 -7 24 -39 c13
-21 43 -52 66 -68 39 -28 46 -30 137 -30 80 0 105 4 147 24 28 13 60 35 71 49
11 14 47 42 81 62 33 19 76 54 95 78 39 48 107 153 107 166 0 4 7 22 15 39 12
22 14 49 11 98 -4 56 -11 76 -40 118 -20 29 -54 63 -77 76 -85 50 -142 113
-171 189 -25 62 -28 84 -28 185 0 94 4 125 21 168 33 82 57 257 41 292 -32 68
-62 146 -62 159 0 34 -145 65 -244 53 -41 -6 -62 -15 -90 -39 -20 -18 -36 -36
-36 -39 0 -4 -11 -24 -25 -44 -14 -20 -25 -45 -25 -55 0 -10 -4 -20 -10 -24
-14 -9 16 84 34 104 9 10 16 22 16 27 0 16 61 64 89 70 14 3 31 8 36 10 22 9
173 -6 218 -21z m257 -155 c31 -27 60 -47 63 -44 3 3 3 -4 0 -16 -7 -26 -100
-70 -149 -70 -32 0 -34 2 -34 34 0 18 4 46 9 62 5 16 12 41 15 57 9 39 30 34
96 -23z m-468 -59 c4 -1 10 -11 13 -23 9 -29 44 -68 62 -68 22 0 35 -48 20
-70 -24 -34 -65 -61 -119 -76 -70 -21 -70 -21 -53 -47 7 -12 21 -55 30 -95 14
-62 15 -80 4 -125 -16 -63 -46 -114 -90 -151 -41 -35 -142 -86 -169 -86 -12 0
-35 -7 -51 -16 -17 -8 -37 -13 -45 -10 -19 7 -18 43 2 54 13 7 1 17 -56 45
-39 21 -74 37 -76 37 -3 0 -13 -19 -23 -43 -16 -37 -17 -52 -9 -103 6 -32 18
-68 28 -79 25 -28 29 -57 8 -60 -67 -11 -113 165 -71 274 10 25 26 54 36 64
20 20 23 12 -29 92 -19 28 -39 32 -48 9 -9 -25 -7 -103 4 -124 5 -10 7 -25 4
-33 -7 -19 -50 -8 -93 22 -34 24 -50 26 -57 8 -6 -17 28 -98 50 -116 9 -7 15
-25 15 -40 -1 -20 -2 -22 -6 -6 -3 11 -13 29 -23 40 -23 26 -51 104 -46 130 4
25 26 22 83 -11 23 -13 49 -24 57 -24 18 0 21 15 6 25 -11 7 -13 96 -4 133 10
36 47 28 77 -17 35 -53 41 -87 17 -104 -66 -46 -64 -250 3 -305 25 -21 32 6 8
32 -18 19 -26 50 -34 137 -3 26 26 98 41 104 18 7 162 -63 162 -78 0 -5 -8
-16 -17 -23 -14 -9 -15 -16 -7 -24 9 -9 19 -8 42 4 17 9 40 16 51 16 23 0 136
62 170 93 35 32 66 86 80 138 15 54 2 140 -30 197 -10 17 -16 38 -14 45 3 6
31 20 63 29 74 22 138 79 122 109 -6 10 -16 19 -22 19 -18 0 -58 42 -58 61 0
28 -22 37 -85 34 -33 -1 -73 1 -90 5 -23 5 132 6 167 1z m6 -87 c52 -52 51
-72 -2 -98 -32 -16 -69 -20 -222 -24 -168 -4 -184 -3 -190 13 -9 23 13 39 133
100 51 26 95 51 98 54 2 4 34 5 72 3 65 -4 70 -6 111 -48z m358 -31 c-3 -16
-8 -41 -10 -56 -6 -38 -25 -96 -39 -126 -7 -15 -12 -74 -12 -151 0 -120 2
-130 29 -184 28 -56 80 -107 140 -136 42 -21 95 -78 117 -127 29 -65 27 -211
-5 -280 -57 -122 -142 -225 -216 -263 l-40 -20 0 -83 c0 -118 1 -119 135 -117
61 0 171 1 245 2 242 2 339 -19 335 -72 -2 -28 -12 -35 -67 -49 -53 -12 -714
-16 -721 -3 -3 4 149 6 336 4 371 -3 429 3 435 44 7 49 -82 68 -313 66 -77 -1
-191 -2 -254 -2 -71 -1 -118 3 -125 10 -6 6 -13 55 -14 110 l-4 99 41 20 c74
38 149 129 215 258 22 45 26 65 26 143 0 128 -33 185 -155 262 -67 43 -125
107 -125 139 0 8 -6 21 -12 28 -17 16 -18 292 -1 312 10 12 32 78 39 119 12
67 16 80 20 80 3 0 3 -12 0 -27z"/>
<path d="M2686 2038 c-11 -36 -26 -109 -26 -127 0 -34 54 -27 139 18 29 15 21
30 -39 75 -66 50 -69 52 -74 34z"/>
<path d="M2069 1863 c-127 -66 -170 -93 -164 -104 8 -12 252 -11 337 1 39 6
69 16 81 29 20 20 20 20 -24 64 -39 40 -50 45 -96 48 -46 4 -63 -1 -134 -38z"/>
</g>
</svg>
