<?xml version="1.0" standalone="no"?>
<!DOCTYPE svg PUBLIC "-//W3C//DTD SVG 20010904//EN"
 "http://www.w3.org/TR/2001/REC-SVG-20010904/DTD/svg10.dtd">
<svg version="1.0" xmlns="http://www.w3.org/2000/svg"
 width="498.000000pt" height="278.000000pt" viewBox="0 0 498.000000 278.000000"
 preserveAspectRatio="xMidYMid meet">
<metadata>
Created by potrace 1.16, written by Peter Selinger 2001-2019
</metadata>
<g transform="translate(0.000000,278.000000) scale(0.100000,-0.100000)"
fill="#000000" stroke="none">
<path d="M0 1390 l0 -1390 2490 0 2490 0 0 1390 0 1390 -2490 0 -2490 0 0
-1390z m2562 1118 c68 -36 139 -103 163 -155 14 -28 16 -50 11 -105 l-7 -69
39 -47 c56 -67 92 -124 92 -143 0 -21 -46 -61 -86 -76 -83 -30 -114 -36 -138
-25 -18 8 -27 8 -34 -1 -6 -7 -18 -75 -27 -152 -25 -198 -13 -232 115 -329 77
-59 105 -72 165 -80 56 -8 97 0 200 39 118 45 152 51 174 31 40 -36 33 -89
-21 -168 -25 -36 -23 -41 21 -66 53 -30 58 -65 17 -109 -28 -31 -29 -33 -12
-58 27 -42 17 -77 -28 -100 -22 -12 -54 -40 -70 -64 -19 -26 -53 -56 -86 -74
-30 -17 -63 -42 -73 -54 -10 -13 -31 -30 -45 -37 -31 -16 -144 -46 -172 -46
-24 0 -38 -26 -55 -103 -7 -34 -24 -97 -38 -140 -14 -42 -22 -79 -18 -82 9 -5
132 -7 349 -5 237 1 315 -10 350 -53 16 -18 -8 -52 -45 -63 -36 -10 -753 -21
-746 -11 2 4 158 7 347 7 346 0 389 4 429 38 16 14 15 17 -16 38 -41 28 -113
35 -319 34 -84 -1 -193 -1 -241 0 -49 0 -86 -3 -84 -8 12 -18 -42 -52 -83 -52
-10 0 -26 -7 -34 -16 -9 -8 -16 -11 -16 -5 0 13 33 31 58 31 11 0 25 7 32 15
7 8 16 13 20 10 18 -11 18 12 0 27 -18 16 -18 19 7 95 14 43 31 105 38 138 21
95 31 115 59 115 34 0 127 25 164 44 17 9 39 26 49 39 10 13 42 36 72 53 34
18 67 46 85 72 17 24 48 53 69 63 47 24 55 43 33 79 -22 38 -20 52 9 80 37 35
33 64 -15 91 -22 13 -40 30 -40 40 0 9 16 43 35 75 41 68 42 73 14 109 -19 23
-27 26 -55 20 -18 -3 -46 -12 -61 -20 -15 -8 -34 -15 -41 -15 -7 0 -32 -10
-55 -22 -34 -17 -59 -22 -127 -21 -96 0 -117 8 -210 79 -69 52 -107 95 -117
132 -19 65 7 340 34 367 11 11 19 12 39 3 19 -9 33 -9 58 0 18 7 38 12 44 12
18 0 101 53 107 69 6 16 -28 72 -87 143 l-39 47 6 78 7 78 -39 52 c-44 58 -65
77 -143 124 -52 31 -61 33 -150 33 -92 1 -97 -1 -165 -38 -122 -67 -157 -115
-145 -207 5 -37 2 -59 -9 -82 -17 -33 -100 -103 -161 -136 -54 -30 -87 -68
-74 -89 22 -35 66 -46 192 -50 l122 -4 14 -32 c56 -127 61 -207 19 -313 -23
-61 -40 -82 -165 -206 -152 -152 -187 -207 -209 -331 -10 -57 -9 -67 20 -156
25 -79 38 -102 73 -137 49 -46 121 -85 211 -113 l62 -19 -1 -104 c-1 -85 -5
-113 -22 -148 -26 -53 -71 -84 -135 -93 -75 -11 -58 -53 24 -60 50 -4 163 17
184 34 8 7 16 7 19 2 7 -12 -10 -19 -93 -35 -123 -25 -188 -12 -195 39 -3 18
-13 19 -165 17 -132 -1 -166 -4 -187 -18 -31 -20 -27 -34 17 -60 32 -19 53
-20 475 -20 243 0 437 -3 430 -8 -6 -4 -204 -6 -441 -4 -400 3 -433 5 -470 23
-50 24 -56 61 -12 82 35 17 341 30 350 15 9 -14 92 6 134 31 56 34 76 86 77
194 0 106 -6 116 -73 128 -55 10 -162 69 -203 111 -26 27 -44 61 -62 117 -37
114 -39 134 -22 206 30 131 55 170 197 307 108 106 136 140 166 199 33 68 35
77 31 151 -3 56 -12 94 -31 136 l-26 57 -96 0 c-149 0 -225 25 -225 75 0 22
39 64 79 85 46 24 143 103 160 131 13 22 16 40 11 79 -12 95 26 155 136 211
82 41 121 49 213 44 58 -4 86 -12 133 -37z m-56 -48 c28 -55 19 -85 -22 -70
-14 6 -47 10 -74 10 -41 0 -51 4 -61 23 -15 28 -28 37 -56 37 -30 0 -95 -47
-122 -87 -12 -18 -28 -33 -36 -33 -21 0 -19 33 5 61 22 28 27 14 5 -15 -8 -11
-15 -25 -15 -30 1 -9 22 13 58 59 5 6 19 18 33 28 15 11 18 16 7 13 -30 -9
-20 8 14 23 52 23 89 29 167 28 l74 -2 23 -45z m112 -35 c53 -48 82 -97 82
-139 0 -35 -12 -33 -60 10 -22 20 -40 34 -40 30 0 -3 -10 4 -22 16 -11 11 -23
37 -25 56 -2 19 -8 43 -14 53 -19 36 27 21 79 -26z m-117 -69 c72 -25 84 -32
147 -87 26 -22 42 -45 42 -58 0 -26 -10 -22 -89 37 -51 38 -115 64 -193 77
-28 4 -38 11 -38 24 0 39 36 41 131 7z m-91 -61 c79 -8 115 -21 141 -51 16
-19 35 -101 38 -159 2 -31 -25 -165 -39 -200 -12 -28 -20 -93 -26 -213 -6
-100 -2 -125 29 -189 14 -30 151 -145 206 -172 57 -29 188 -71 223 -71 73 0
98 -38 58 -90 -27 -34 -26 -41 20 -85 44 -43 50 -73 20 -100 -24 -21 -26 -51
-5 -71 36 -37 9 -77 -77 -118 -20 -10 -44 -28 -52 -41 -31 -48 -159 -87 -273
-84 -61 1 -78 -2 -96 -18 -24 -22 -107 -53 -142 -53 -53 0 -266 66 -304 94 -7
6 -29 12 -47 13 -35 2 -124 54 -161 94 -12 14 -34 60 -49 103 -21 64 -25 92
-22 150 6 91 51 188 117 248 123 114 212 215 243 277 31 62 33 72 31 157 -1
64 -8 107 -23 148 -25 66 -21 86 17 86 37 1 116 37 108 50 -3 5 -12 10 -20 10
-31 0 -38 60 -12 114 24 50 14 59 -51 46 -48 -9 -152 2 -152 16 0 12 30 62 46
75 26 22 106 47 144 44 19 -1 69 -6 110 -10z m262 -123 c9 -7 22 -11 29 -6 7
4 10 3 5 -4 -3 -6 2 -15 11 -21 10 -6 14 -11 9 -11 -6 0 2 -12 16 -27 40 -44
77 -104 72 -118 -10 -25 -85 -57 -136 -57 -73 0 -85 16 -68 86 8 34 10 76 6
114 -8 75 7 87 56 44z m-556 -22 c5 -5 42 -12 82 -16 74 -7 93 -17 73 -37 -14
-14 -14 -54 -1 -62 16 -10 11 -43 -7 -49 -143 -41 -204 -43 -360 -10 -42 8
-25 37 54 94 43 30 85 58 94 62 9 4 20 11 24 17 8 14 28 14 41 1z m1078 -786
c33 -13 18 -67 -37 -137 -29 -37 -29 -38 -11 -58 11 -12 35 -29 54 -40 19 -10
28 -18 19 -19 -23 0 -99 57 -99 76 0 8 16 36 35 61 67 88 58 127 -21 94 -27
-11 -73 -28 -103 -37 -44 -14 -51 -19 -35 -25 10 -4 31 -8 45 -8 14 -1 35 -11
47 -24 18 -20 20 -28 12 -56 -5 -19 -16 -43 -23 -55 -13 -20 -11 -24 28 -58
l43 -38 37 30 c47 37 58 32 16 -7 -30 -28 -30 -28 -14 -63 9 -19 17 -40 18
-47 4 -16 -72 -45 -96 -38 -25 8 -24 19 6 51 14 15 25 34 25 42 0 9 -20 35
-45 58 l-44 43 24 53 24 52 -20 22 c-13 14 -39 25 -69 29 -67 9 -56 27 33 54
40 12 83 28 97 36 29 16 33 17 54 9z m-540 -749 c31 -24 22 -90 -36 -260 -6
-16 -13 -44 -15 -62 -5 -34 -14 -38 -93 -46 -25 -2 -35 -2 -22 0 12 2 22 9 22
14 0 5 -12 7 -27 4 -25 -5 -24 -4 9 14 79 44 94 87 113 321 2 14 3 26 4 28 3
6 28 0 45 -13z m-375 -39 c18 -14 10 -68 -25 -153 -15 -37 -30 -86 -33 -107
-5 -36 -10 -41 -49 -54 -23 -7 -50 -11 -59 -7 -14 5 -10 13 24 43 62 57 80
112 82 254 1 43 3 46 24 41 12 -3 28 -11 36 -17z m284 -10 c11 -28 -6 -161
-25 -203 -22 -46 -64 -72 -132 -80 -23 -3 -47 -11 -55 -17 -12 -8 -13 -8 -7 2
6 10 -3 12 -38 11 -25 -2 -49 0 -52 4 -13 13 -5 64 19 118 13 30 33 77 43 104
l20 50 77 2 c42 1 84 6 94 12 26 15 50 13 56 -3z"/>
<path d="M2295 2489 c-49 -12 -74 -32 -28 -23 46 9 78 -2 91 -31 10 -21 18
-25 56 -25 25 0 56 -4 69 -9 37 -14 40 8 11 58 l-25 41 -67 -1 c-37 -1 -85 -5
-107 -10z"/>
<path d="M2225 2284 c-51 -18 -113 -84 -90 -96 21 -12 91 -14 148 -5 59 10 68
-4 39 -70 -16 -36 -18 -52 -9 -70 5 -13 16 -23 23 -23 17 0 25 -15 19 -32 -6
-15 -87 -48 -117 -48 -27 0 -29 -14 -9 -72 10 -30 22 -91 26 -135 11 -129 -26
-210 -156 -343 -41 -41 -95 -95 -121 -118 -68 -63 -118 -171 -118 -256 0 -73
36 -185 72 -224 41 -44 131 -96 165 -95 18 1 37 -5 44 -13 6 -8 15 -14 20 -14
5 0 28 -9 52 -20 46 -22 188 -60 221 -60 34 0 109 30 134 53 20 19 33 21 100
19 117 -4 263 42 275 88 2 9 22 25 43 35 89 41 110 68 78 99 -25 26 -24 62 2
87 13 13 24 28 24 34 0 6 -18 29 -40 50 -44 43 -49 68 -20 105 11 14 20 30 20
37 0 17 -33 33 -67 33 -16 0 -64 12 -108 26 -44 14 -84 27 -90 28 -42 9 -161
98 -226 168 -64 69 -64 266 0 517 22 87 23 152 2 227 -18 65 -71 86 -261 99
-19 1 -53 -4 -75 -11z"/>
<path d="M2628 2185 c-3 -3 -3 -35 0 -71 3 -40 0 -80 -8 -104 -10 -30 -10 -43
-1 -54 26 -31 95 -25 158 14 l33 19 -29 43 c-16 24 -39 52 -50 62 -12 11 -21
25 -21 33 0 7 -8 16 -17 20 -10 3 -27 14 -39 25 -11 10 -23 16 -26 13z"/>
<path d="M2045 2114 c-27 -20 -74 -51 -103 -71 -29 -20 -51 -41 -49 -47 4 -11
54 -21 157 -32 39 -4 78 0 133 14 43 11 81 22 83 24 2 3 -2 18 -8 35 -9 24 -9
38 -1 56 l11 24 -76 7 c-42 4 -81 11 -87 16 -6 5 -30 -6 -60 -26z"/>
<path d="M2510 558 c-14 -5 -55 -9 -91 -9 -75 1 -79 -2 -102 -69 -9 -25 -27
-72 -40 -105 -14 -32 -23 -65 -20 -72 4 -9 29 -13 86 -13 150 0 202 49 208
194 4 84 0 91 -41 74z"/>
</g>
</svg>
