<?xml version="1.0" standalone="no"?>
<!DOCTYPE svg PUBLIC "-//W3C//DTD SVG 20010904//EN"
 "http://www.w3.org/TR/2001/REC-SVG-20010904/DTD/svg10.dtd">
<svg version="1.0" xmlns="http://www.w3.org/2000/svg"
 width="498.000000pt" height="278.000000pt" viewBox="0 0 498.000000 278.000000"
 preserveAspectRatio="xMidYMid meet">
<metadata>
Created by potrace 1.16, written by Peter Selinger 2001-2019
</metadata>
<g transform="translate(0.000000,278.000000) scale(0.100000,-0.100000)"
fill="#000000" stroke="none">
<path d="M0 1390 l0 -1390 2490 0 2490 0 0 1390 0 1390 -2490 0 -2490 0 0
-1390z m2479 1094 c11 -14 37 -27 65 -34 58 -13 143 -57 156 -79 5 -10 12 -78
16 -152 l7 -135 -28 -22 c-15 -12 -39 -22 -54 -22 -46 0 -53 -11 -38 -55 16
-45 37 -54 126 -53 81 0 108 -13 113 -56 5 -41 -9 -57 -82 -94 -146 -74 -179
-125 -187 -296 -7 -159 13 -211 100 -256 34 -18 50 -20 102 -15 75 8 120 -9
164 -62 59 -71 66 -232 17 -353 -33 -81 -62 -118 -146 -186 -41 -33 -70 -64
-70 -75 0 -27 38 -96 57 -103 9 -4 25 2 38 14 34 32 62 26 74 -16 6 -21 6 -45
1 -59 -8 -21 -81 -65 -109 -65 -7 0 -11 -5 -9 -12 3 -8 32 -11 99 -10 304 7
368 3 421 -24 35 -18 40 -27 29 -56 -16 -43 -72 -48 -550 -48 -241 0 -441 3
-444 7 -9 9 -66 8 -95 -1 -33 -11 -331 -9 -488 2 -164 12 -209 34 -171 86 19
26 130 36 380 33 l217 -2 0 25 c0 28 -16 75 -45 132 -14 28 -33 45 -79 68 -34
16 -81 48 -106 70 -25 22 -48 40 -52 40 -22 0 -109 128 -147 216 -24 54 -58
131 -75 169 -71 154 -75 205 -16 205 40 0 46 19 21 66 -31 58 -29 81 20 163
48 83 89 93 89 21 0 -9 6 -23 14 -29 12 -10 18 -5 34 31 24 56 83 108 122 108
l30 0 0 -97 c0 -106 17 -160 60 -198 l22 -20 40 45 c53 59 64 89 72 197 7 91
7 92 -28 165 -50 102 -55 163 -22 254 14 39 26 77 26 83 0 14 -73 15 -98 2 -9
-6 -63 -31 -120 -57 -102 -47 -103 -47 -137 -31 -26 12 -35 23 -35 41 0 31 31
54 136 101 111 50 109 48 112 91 12 169 23 196 107 254 40 27 148 70 177 70 9
0 21 7 28 15 15 19 67 33 98 27 12 -2 31 -15 41 -28z"/>
<path d="M2395 2502 c-11 -3 -31 -13 -44 -23 -13 -11 -32 -19 -42 -19 -42 0
-153 -56 -207 -105 -39 -36 -46 -48 -53 -96 -4 -29 -8 -78 -8 -106 l-1 -53
-113 -54 c-63 -30 -119 -62 -126 -70 -17 -20 -8 -43 23 -57 20 -9 35 -6 97 24
152 71 173 78 221 75 l47 -3 -30 -85 c-38 -106 -34 -160 17 -266 35 -71 36
-75 30 -156 -10 -117 -24 -159 -72 -215 -42 -47 -43 -48 -70 -33 -51 28 -68
73 -73 193 -3 97 -5 107 -22 107 -28 0 -107 -76 -114 -110 -12 -54 -65 -45
-65 11 0 57 -29 39 -83 -53 -32 -55 -34 -83 -7 -123 35 -52 23 -85 -30 -85
-21 0 -46 -35 -31 -44 5 -3 12 -21 15 -39 4 -19 20 -60 36 -91 16 -32 34 -73
40 -92 60 -179 190 -336 346 -415 55 -28 63 -36 89 -92 28 -60 38 -131 25
-181 -5 -18 2 -24 50 -44 22 -10 21 -10 -10 -5 -49 8 -62 21 -55 55 l7 28
-269 -3 c-239 -2 -273 -4 -297 -20 -33 -22 -30 -35 12 -57 46 -25 387 -42 552
-28 47 4 100 7 118 7 19 0 32 5 32 13 0 8 5 6 11 -4 9 -17 41 -18 450 -18 456
0 520 5 539 41 8 14 4 22 -18 37 -46 33 -88 36 -425 30 -66 -1 -101 2 -106 10
-4 7 -20 13 -35 14 -21 2 -33 12 -46 38 -10 19 -36 55 -58 79 -31 34 -44 42
-58 36 -45 -18 -94 -28 -169 -34 -74 -6 -80 -8 -83 -30 -12 -80 30 -104 182
-102 61 1 130 3 153 5 23 2 40 0 38 -5 -3 -4 -62 -8 -133 -9 -166 -3 -162 -3
-205 15 -29 12 -37 22 -43 50 -3 19 -3 46 0 60 6 24 10 25 79 25 47 0 91 7
127 20 30 11 61 20 68 20 19 0 93 -79 108 -117 22 -50 51 -53 141 -12 49 22
63 43 56 82 -7 38 -29 44 -58 17 -36 -33 -69 -21 -95 35 -33 73 -29 84 57 156
128 107 168 188 168 344 0 108 -19 152 -85 203 -43 33 -46 34 -115 27 -62 -5
-77 -3 -112 15 -53 27 -68 45 -87 102 -29 84 -14 292 26 356 20 33 158 132
183 132 20 0 45 35 45 63 0 37 -24 46 -125 51 -48 2 -90 8 -94 12 -10 12 -33
95 -28 100 3 3 22 8 43 11 22 3 50 15 63 27 23 21 23 23 17 145 -4 69 -11 132
-16 142 -14 25 -74 57 -143 76 -36 10 -69 26 -79 39 -19 24 -43 32 -73 26z
m29 -61 c3 -5 31 -12 61 -16 57 -7 155 -45 174 -68 11 -15 19 -186 8 -203 -4
-8 -21 -8 -54 -1 -26 6 -137 12 -245 14 l-198 4 0 54 c0 46 5 60 37 101 20 27
47 60 60 74 32 34 143 64 157 41z m-204 -52 c0 -6 -16 -30 -36 -55 l-36 -44
-1 -105 c-1 -94 -3 -105 -19 -105 -10 0 -28 10 -39 21 -20 20 -21 28 -14 102
9 105 15 120 72 161 49 36 73 44 73 25z m299 -331 c23 -8 23 -11 19 -94 -4
-83 4 -118 16 -70 8 32 40 28 44 -5 2 -13 10 -45 19 -71 15 -42 15 -49 2 -65
-9 -10 -30 -42 -47 -70 -31 -52 -32 -55 -33 -195 -2 -139 7 -202 34 -237 6 -7
36 -29 66 -48 53 -34 58 -35 120 -29 136 12 187 -48 185 -218 -1 -48 -6 -98
-11 -110 -6 -11 -19 -42 -31 -67 -19 -44 -118 -144 -185 -187 -14 -9 -58 -39
-98 -67 l-72 -50 -126 -3 c-75 -3 -148 1 -181 8 -109 24 -264 120 -353 219
-19 21 -56 83 -82 137 -26 55 -56 115 -65 134 -24 47 -60 154 -60 180 0 15 7
20 28 20 15 0 38 7 50 16 20 14 21 18 10 33 -8 9 -24 36 -36 61 -21 46 -21 72
1 118 10 22 41 30 52 13 3 -6 19 -17 37 -25 38 -19 53 -10 61 39 6 34 47 100
47 75 0 -6 -9 -23 -20 -37 -11 -14 -20 -36 -20 -49 0 -19 -23 -54 -35 -54 -11
0 -62 26 -78 39 -17 14 -20 14 -30 -4 -28 -47 -26 -66 9 -131 l34 -64 -20 -20
c-11 -11 -33 -20 -51 -20 -31 0 -31 -1 -24 -37 13 -73 154 -361 203 -415 45
-50 144 -128 205 -162 96 -53 156 -66 295 -66 l129 0 78 52 c42 29 89 61 103
70 54 36 168 147 183 179 9 19 22 46 29 60 20 44 18 197 -3 245 -28 62 -76 85
-159 77 -61 -5 -70 -3 -120 25 -30 17 -61 39 -69 49 -31 37 -42 105 -40 253 2
141 2 146 32 200 17 30 38 63 47 73 14 16 14 21 -1 53 -9 19 -17 46 -17 59 0
16 -6 25 -15 25 -17 0 -19 -12 -4 -27 7 -7 2 -10 -18 -9 l-28 1 4 87 c3 80 2
87 -19 98 -23 12 -175 16 -233 5 -45 -9 -52 -18 -61 -74 -4 -24 -13 -56 -21
-72 -9 -17 -15 -56 -15 -102 0 -68 3 -78 33 -118 l32 -44 0 -127 c0 -69 -3
-124 -6 -122 -4 2 -10 -8 -14 -23 -3 -15 -18 -46 -32 -70 -67 -115 -177 -115
-217 1 -17 50 -36 154 -35 187 2 25 10 -12 24 -106 15 -94 73 -173 119 -159
43 13 83 54 114 115 27 56 33 78 38 172 l7 108 -34 47 c-31 43 -34 54 -38 129
-2 60 1 90 12 113 9 17 19 51 23 75 3 24 11 51 18 60 20 28 230 38 295 13z
m-179 -690 c56 -32 79 -91 41 -101 -12 -3 -23 3 -31 17 -14 25 -59 60 -67 52
-13 -12 -2 -122 15 -156 9 -20 16 -43 14 -51 -3 -19 -43 -39 -76 -39 -41 0
-37 -26 10 -68 34 -31 44 -48 44 -71 0 -20 -5 -31 -14 -31 -37 0 -29 -38 13
-63 37 -21 59 -22 83 0 22 19 31 13 31 -22 0 -64 -75 -70 -152 -14 -48 34 -60
69 -39 112 14 30 14 32 -12 54 -31 25 -60 80 -60 111 0 16 9 22 38 27 65 11
66 13 54 105 -10 80 -3 126 24 153 13 13 44 7 84 -15z m-56 -935 c3 -10 6 -41
7 -69 2 -61 17 -84 60 -93 18 -4 38 -17 47 -31 15 -24 15 -24 -2 -9 -15 14
-25 15 -53 7 -20 -5 -51 -7 -69 -3 -30 5 -34 10 -34 36 0 16 -9 55 -20 86 -29
84 -28 93 19 93 29 0 41 -5 45 -17z"/>
<path d="M2337 2426 c-37 -11 -49 -22 -120 -105 -31 -38 -37 -52 -37 -92 l0
-48 198 -5 c108 -2 215 -7 238 -11 50 -8 53 -2 45 109 -4 56 -10 81 -21 86 -8
4 -34 17 -58 28 -23 12 -69 24 -102 28 -33 4 -63 11 -66 15 -7 11 -29 10 -77
-5z"/>
<path d="M2247 1346 c-13 -28 -14 -46 -7 -98 17 -114 17 -114 -40 -128 -36 -9
-50 -17 -50 -29 0 -22 55 -100 75 -107 17 -7 15 -35 -4 -58 -21 -25 -5 -63 40
-95 57 -42 98 -49 120 -22 10 12 15 29 12 38 -5 14 -7 14 -15 -1 -17 -30 -101
-12 -130 29 -14 19 -8 44 12 50 32 10 24 43 -21 83 -59 55 -59 91 1 92 14 0
33 7 43 14 17 13 17 17 4 58 -13 38 -21 105 -18 161 2 28 35 20 74 -20 40 -39
54 -40 37 -2 -11 24 -78 69 -103 69 -7 0 -21 -15 -30 -34z"/>
</g>
</svg>
