<?xml version="1.0" standalone="no"?>
<!DOCTYPE svg PUBLIC "-//W3C//DTD SVG 20010904//EN"
 "http://www.w3.org/TR/2001/REC-SVG-20010904/DTD/svg10.dtd">
<svg version="1.0" xmlns="http://www.w3.org/2000/svg"
 width="498.000000pt" height="278.000000pt" viewBox="0 0 498.000000 278.000000"
 preserveAspectRatio="xMidYMid meet">
<metadata>
Created by potrace 1.16, written by Peter Selinger 2001-2019
</metadata>
<g transform="translate(0.000000,278.000000) scale(0.100000,-0.100000)"
fill="#000000" stroke="none">
<path d="M0 1390 l0 -1390 2490 0 2490 0 0 1390 0 1390 -2490 0 -2490 0 0
-1390z m2490 1125 c14 -8 33 -14 43 -15 25 0 137 -57 166 -83 13 -12 37 -42
53 -65 36 -52 46 -137 26 -216 -12 -46 -15 -49 -63 -65 l-50 -16 5 -50 c3 -27
5 -97 5 -155 0 -103 -1 -106 -45 -200 -40 -86 -44 -102 -45 -171 0 -86 10
-106 84 -177 55 -52 75 -61 163 -73 127 -16 201 -78 237 -199 57 -187 -13
-317 -250 -466 -63 -40 -128 -79 -145 -87 -40 -21 -89 -115 -87 -172 0 -29 -2
-35 -8 -20 -10 27 0 85 21 115 10 14 19 34 21 45 3 11 23 30 48 43 94 49 239
148 294 201 72 69 117 157 117 228 0 68 -34 163 -77 213 -41 48 -121 90 -170
90 -72 0 -122 23 -183 82 -51 51 -60 65 -71 116 -16 77 -2 147 52 264 l42 91
-6 123 c-3 68 -11 132 -16 143 -10 18 -6 22 45 38 30 9 60 25 65 36 19 35 21
154 3 192 -38 81 -161 176 -244 188 -14 2 -38 10 -53 17 -24 12 -38 11 -95 -3
-37 -9 -83 -19 -102 -23 -110 -21 -187 -109 -212 -241 l-11 -59 -84 -43 c-87
-45 -111 -69 -95 -98 11 -18 87 -41 142 -43 19 -1 58 -9 85 -18 59 -20 67 -41
36 -96 -12 -20 -21 -47 -21 -59 1 -37 24 -109 49 -157 13 -25 30 -56 37 -70
33 -61 10 -204 -43 -266 -30 -35 -100 -74 -156 -85 -29 -6 -68 -14 -87 -18
-99 -21 -165 -100 -190 -228 -14 -69 -3 -157 26 -218 22 -47 118 -134 186
-168 l56 -28 -10 -37 c-12 -45 -48 -102 -65 -102 -15 0 -68 36 -107 73 -51 48
-69 25 -37 -49 12 -25 21 -52 21 -59 0 -25 48 -56 101 -64 30 -5 59 -6 65 -2
6 3 39 39 74 79 34 41 69 76 76 79 8 3 39 -7 70 -22 31 -15 86 -31 123 -36 36
-5 86 -12 111 -17 l45 -7 3 -52 c4 -66 -7 -86 -53 -101 -43 -13 -41 -7 7 16
31 16 33 20 33 72 l0 55 -40 7 c-22 5 -69 12 -105 17 -62 8 -141 34 -167 53
-17 13 -24 7 -95 -75 -34 -40 -69 -75 -77 -78 -9 -4 -43 -2 -76 3 -66 10 -105
38 -105 74 0 13 -4 25 -9 28 -4 3 -14 26 -21 52 -11 39 -11 47 1 55 22 14 34
11 65 -18 33 -31 95 -76 99 -71 1 2 14 21 29 42 40 60 35 77 -30 109 -82 41
-159 117 -185 186 -45 117 -23 277 51 370 35 43 73 61 175 81 109 21 185 72
225 151 30 57 27 161 -5 214 -35 58 -51 94 -64 148 -15 65 -14 80 10 132 31
66 24 72 -121 94 -30 5 -62 11 -70 14 -8 3 -27 8 -41 11 -31 7 -45 45 -29 76
5 10 48 37 94 60 82 41 85 43 91 83 12 68 45 146 79 184 37 43 88 67 176 83
36 7 72 16 80 21 23 13 82 10 110 -6z m-49 -75 c30 0 39 -4 45 -22 12 -40 5
-301 -9 -310 -15 -9 -127 0 -257 21 -140 23 -150 31 -132 112 27 120 75 172
192 210 38 13 51 13 84 2 21 -7 56 -13 77 -13z m144 -376 c34 -13 47 -63 49
-183 1 -113 0 -117 -31 -171 -56 -98 -77 -255 -44 -332 42 -99 169 -188 267
-188 46 0 139 -44 162 -78 11 -15 30 -57 42 -95 27 -78 24 -138 -10 -213 -24
-51 -114 -144 -170 -175 -19 -11 -62 -37 -95 -59 -33 -21 -69 -39 -80 -40 -11
0 -51 -14 -90 -31 -63 -27 -80 -30 -169 -29 -133 0 -226 25 -294 76 -18 14
-81 50 -140 80 -144 73 -194 120 -221 208 -31 102 -25 171 27 272 34 66 70 86
207 114 58 12 143 58 177 96 9 10 28 42 42 70 21 42 26 66 26 128 0 70 -3 81
-34 129 -40 61 -61 144 -46 182 6 15 10 39 10 55 0 40 41 70 96 70 47 0 101
24 174 75 25 18 52 35 60 38 21 8 65 8 85 1z m-531 -1504 c37 -14 32 -36 -17
-89 -23 -25 -50 -57 -59 -70 -15 -21 -24 -24 -75 -22 -65 2 -80 12 -89 59 -8
39 3 40 54 4 50 -36 73 -25 116 58 21 38 39 70 41 70 2 0 15 -4 29 -10z m-44
-279 c-328 -5 -369 -8 -393 -24 -34 -22 -34 -30 0 -52 41 -27 204 -33 963 -34
678 0 719 2 748 38 13 15 13 14 10 -3 -7 -43 -49 -45 -793 -44 -895 2 -943 5
-961 62 -18 55 46 63 471 63 l320 -1 -365 -5z"/>
<path d="M2280 2440 c-108 -40 -151 -85 -180 -192 -15 -56 -9 -75 25 -88 30
-11 127 -28 205 -35 30 -3 71 -8 90 -10 57 -7 59 -2 61 140 3 160 -1 175 -45
175 -19 0 -51 6 -72 13 -34 12 -45 11 -84 -3z"/>
<path d="M2471 2030 c-79 -57 -152 -90 -201 -90 -52 0 -90 -29 -90 -67 0 -12
-4 -33 -10 -48 -14 -38 6 -117 46 -176 31 -47 34 -57 34 -126 0 -42 -5 -92
-11 -112 -31 -103 -122 -177 -253 -204 -123 -25 -153 -43 -193 -117 -49 -89
-54 -183 -13 -278 31 -71 117 -138 260 -202 30 -13 68 -35 84 -48 70 -56 156
-81 286 -83 84 -1 104 3 172 30 42 17 82 31 90 32 7 0 40 18 73 39 33 21 76
48 95 59 53 29 145 122 171 172 18 34 23 60 23 114 0 145 -86 245 -222 258
-167 15 -293 154 -279 308 8 92 27 162 60 224 31 57 32 65 30 167 -1 86 -5
115 -20 140 -27 47 -74 50 -132 8z m1 -717 c6 -16 14 -44 17 -63 l6 -35 57 3
c47 3 60 0 78 -18 18 -18 35 -23 88 -24 40 -2 67 -7 70 -14 2 -7 8 -10 12 -7
23 14 -45 -87 -94 -138 -41 -45 -59 -58 -77 -55 -27 3 -41 48 -16 48 18 0 119
108 112 120 -3 4 -35 -1 -71 -13 -56 -19 -66 -19 -74 -7 -5 8 -7 23 -4 33 8
25 -19 31 -55 13 -16 -9 -36 -16 -44 -16 -15 0 -37 61 -37 101 0 13 -5 31 -10
39 -9 12 -18 7 -55 -33 -34 -37 -50 -66 -67 -121 -18 -60 -25 -72 -40 -68 -22
5 -23 31 -3 96 32 106 88 170 155 179 19 2 36 5 38 5 1 1 8 -10 14 -25z"/>
<path d="M2356 1286 c-39 -36 -84 -124 -93 -181 -9 -54 13 -43 33 18 25 78 50
122 84 151 43 36 58 33 65 -11 7 -46 24 -113 29 -113 2 0 20 7 40 15 20 9 47
13 60 9 22 -5 24 -9 16 -30 -14 -35 4 -38 74 -14 60 20 76 19 76 -6 0 -16 -97
-119 -120 -126 -11 -4 -12 -9 -4 -17 6 -6 18 -9 26 -6 18 7 103 103 131 148
17 27 17 27 -8 37 -15 6 -48 9 -76 8 -41 -2 -52 1 -65 20 -11 17 -25 22 -57
22 -23 0 -49 -4 -57 -10 -18 -11 -30 5 -30 42 0 83 -60 105 -124 44z"/>
</g>
</svg>
