<?xml version="1.0" standalone="no"?>
<!DOCTYPE svg PUBLIC "-//W3C//DTD SVG 20010904//EN"
 "http://www.w3.org/TR/2001/REC-SVG-20010904/DTD/svg10.dtd">
<svg version="1.0" xmlns="http://www.w3.org/2000/svg"
 width="498.000000pt" height="278.000000pt" viewBox="0 0 498.000000 278.000000"
 preserveAspectRatio="xMidYMid meet">
<metadata>
Created by potrace 1.16, written by Peter Selinger 2001-2019
</metadata>
<g transform="translate(0.000000,278.000000) scale(0.100000,-0.100000)"
fill="#000000" stroke="none">
<path d="M0 1390 l0 -1390 2490 0 2490 0 0 1390 0 1390 -2490 0 -2490 0 0
-1390z m2557 1238 c69 -25 93 -40 157 -93 67 -56 77 -79 70 -162 -3 -37 -7
-80 -7 -95 -2 -22 12 -38 83 -95 76 -61 85 -72 88 -105 3 -30 -1 -40 -22 -53
-23 -15 -29 -15 -88 4 -69 21 -131 51 -158 76 -22 20 -35 5 -44 -51 -3 -23
-22 -76 -42 -118 -34 -71 -36 -82 -32 -149 4 -62 10 -80 39 -123 68 -101 170
-163 280 -171 56 -5 79 -1 159 27 105 37 152 34 158 -9 3 -21 8 -23 46 -19 44
5 103 29 149 60 40 29 70 20 79 -22 11 -53 0 -91 -41 -133 l-36 -38 63 7 62 7
0 -32 c0 -31 -15 -52 -60 -83 -19 -13 -21 -17 -8 -17 9 -1 19 3 23 9 11 17 35
-2 35 -27 0 -34 -51 -81 -165 -154 -49 -31 -106 -72 -126 -91 -89 -84 -111
-98 -189 -122 -45 -15 -101 -26 -125 -26 -25 0 -62 -6 -82 -14 -21 -7 -83 -26
-138 -41 -229 -63 -228 -62 -242 -111 -18 -64 -31 -126 -39 -182 -9 -72 -29
-82 -93 -48 l-48 25 -32 -20 c-42 -25 -50 -24 -114 11 -30 17 -66 30 -79 30
-16 0 -49 25 -106 81 -70 69 -80 83 -72 100 13 24 26 24 99 -1 110 -37 138
-40 165 -19 14 11 27 33 31 50 9 41 -14 65 -68 71 -81 9 -137 48 -230 159 -65
78 -77 111 -77 219 0 122 13 144 174 310 137 140 177 195 196 272 14 55 -1
148 -28 174 -9 9 -31 40 -48 68 l-30 51 -83 12 c-52 7 -105 23 -140 40 -49 25
-56 32 -59 61 -5 46 16 65 96 91 37 12 94 37 126 54 l60 32 1 75 c2 77 24 161
52 192 33 37 191 76 315 77 67 1 101 -4 145 -21z m700 -2349 c28 -5 64 -19 78
-31 23 -18 25 -22 12 -41 -30 -45 -59 -47 -800 -47 -384 0 -701 2 -705 4 -4 2
-50 6 -102 7 -109 2 -164 24 -158 63 7 50 18 51 663 54 330 1 603 4 607 5 23
6 361 -5 405 -14z"/>
<path d="M2285 2630 c-82 -20 -145 -42 -170 -62 -35 -27 -68 -139 -63 -215 l3
-58 -70 -35 c-38 -19 -95 -43 -126 -53 -155 -48 -94 -144 109 -171 l86 -11 30
-51 c17 -28 38 -58 47 -67 9 -8 22 -42 29 -75 15 -73 2 -140 -42 -215 -26 -45
-30 -75 -7 -61 16 9 77 137 82 172 7 46 -9 149 -27 175 -9 12 -25 33 -36 47
-12 14 -28 52 -36 84 -13 48 -13 67 -3 114 15 69 74 202 96 220 24 18 195 15
263 -4 30 -8 74 -20 98 -26 59 -14 66 -35 59 -178 -5 -106 -9 -121 -42 -192
-63 -131 -63 -217 -1 -323 38 -64 91 -112 168 -151 63 -32 74 -34 168 -34 80
0 111 4 149 21 27 11 64 19 82 17 33 -3 34 -4 33 -49 -2 -47 -30 -115 -58
-138 -28 -23 -18 -33 28 -30 24 2 42 1 39 -3 -2 -5 -24 -8 -49 -8 -36 0 -44 3
-44 18 0 11 9 27 19 36 25 23 63 112 59 139 -4 30 -42 33 -107 8 -40 -16 -74
-21 -153 -21 -93 0 -105 2 -172 34 -148 70 -235 209 -216 347 8 56 40 147 66
187 11 16 17 62 21 145 6 138 1 152 -57 167 -19 5 -60 16 -90 24 -60 17 -221
22 -248 7 -21 -11 -86 -148 -101 -215 -16 -67 2 -144 44 -194 41 -47 56 -95
58 -180 1 -59 -3 -77 -36 -146 -33 -69 -54 -95 -168 -208 -141 -140 -162 -173
-174 -271 -6 -51 -3 -65 19 -111 30 -61 134 -179 177 -202 16 -8 55 -19 87
-25 31 -6 64 -16 72 -23 18 -15 129 -36 189 -36 50 0 102 12 246 56 61 19 117
34 125 34 8 0 29 7 45 16 17 8 62 18 100 21 39 2 79 9 90 13 11 5 39 14 62 20
54 14 155 103 151 134 -3 18 -9 21 -52 18 -82 -4 -101 40 -34 78 49 27 99 98
92 131 l-5 24 11 -24 c14 -32 -27 -103 -80 -136 -21 -13 -41 -29 -44 -34 -10
-16 16 -26 68 -26 42 0 50 -3 58 -24 8 -22 2 -31 -49 -80 -49 -47 -70 -60
-133 -79 -41 -12 -93 -22 -115 -22 -37 0 -114 -19 -225 -57 -48 -16 -145 -43
-223 -62 -26 -6 -66 -11 -90 -11 -58 0 -176 24 -212 44 -16 9 -39 16 -51 16
-57 0 -115 33 -178 101 -86 93 -111 146 -109 226 3 119 21 152 161 290 85 82
123 126 116 133 -14 14 -254 -231 -283 -287 -16 -33 -21 -60 -21 -128 0 -98 9
-122 78 -205 89 -106 166 -160 231 -160 16 0 39 -8 51 -18 19 -16 21 -24 15
-59 -8 -47 -33 -75 -69 -76 -31 0 -158 33 -171 45 -13 11 -39 10 -52 -3 -15
-15 142 -169 172 -169 12 0 48 -14 81 -31 56 -28 61 -29 85 -15 43 25 71 25
111 -2 46 -30 63 -21 72 41 7 44 21 113 39 185 11 46 21 53 97 74 19 5 49 13
65 18 17 5 71 20 120 34 50 13 103 29 118 35 16 6 47 11 71 11 48 0 133 23
186 50 19 10 60 42 90 72 30 30 81 69 112 88 82 49 186 128 199 152 14 25 3
56 -13 40 -17 -17 -48 -15 -48 2 0 8 15 24 34 35 34 21 46 39 46 68 0 12 -10
14 -60 8 -71 -8 -78 4 -29 51 39 37 51 67 43 111 -8 44 -26 50 -63 24 -16 -12
-36 -21 -44 -21 -9 0 -17 -5 -19 -10 -3 -11 -128 -40 -140 -33 -5 2 -8 13 -8
24 0 11 -11 24 -24 30 -20 9 -42 5 -121 -21 -83 -27 -108 -32 -164 -28 -117 9
-220 70 -291 172 -34 50 -35 54 -34 146 0 88 2 100 33 160 19 36 36 84 39 108
6 52 28 68 62 45 40 -28 104 -59 158 -77 51 -17 54 -17 73 0 37 33 21 63 -71
137 -93 75 -88 62 -77 191 4 49 2 76 -8 95 -20 38 -105 107 -177 144 -57 29
-73 32 -163 34 -55 1 -118 -2 -140 -7z m105 -17 c-19 -2 -44 -8 -55 -13 -11
-4 -39 -11 -63 -13 -63 -7 -92 -30 -92 -72 0 -18 -4 -37 -10 -40 -5 -3 -10
-10 -10 -16 0 -12 47 -12 55 1 8 13 178 13 219 1 17 -5 51 -15 76 -22 25 -6
67 -22 94 -35 27 -14 50 -23 52 -21 2 2 7 32 10 66 8 70 6 73 -81 115 -60 29
-102 44 -135 49 -19 3 -16 5 11 6 19 0 39 -3 45 -7 5 -4 27 -14 49 -21 22 -8
60 -27 84 -44 l44 -30 -7 -71 c-7 -75 -21 -103 -37 -74 -5 9 -23 19 -39 23
-17 4 -30 11 -30 16 0 5 -13 9 -29 9 -17 0 -32 4 -35 9 -13 20 -261 40 -279
22 -6 -6 -26 -11 -44 -11 -26 0 -33 4 -33 19 0 11 5 23 10 26 16 10 12 65 -5
65 -17 0 -20 -16 -4 -25 7 -5 5 -15 -5 -31 -9 -13 -16 -35 -16 -49 0 -27 -21
-31 -31 -5 -14 35 25 120 56 120 6 0 30 9 53 20 22 11 56 20 74 20 18 0 40 5
48 10 8 5 33 9 55 8 40 -1 40 -1 5 -5z m-321 -381 c7 -13 6 -36 -4 -73 -8 -30
-15 -64 -15 -76 0 -20 -5 -23 -39 -23 -22 0 -42 4 -45 9 -3 4 -23 8 -45 8 -56
0 -116 33 -116 64 0 22 8 26 96 49 52 14 106 33 120 42 31 22 36 22 48 0z
m698 -24 c109 -80 143 -110 143 -128 0 -24 -27 -26 -88 -5 -53 19 -80 34 -114
64 -31 28 -32 30 -18 65 12 32 36 33 77 4z m-365 -1504 c3 -3 1 -22 -4 -42 -5
-20 -11 -46 -13 -57 -1 -11 -8 -48 -15 -82 -13 -64 -26 -77 -50 -48 -7 9 -29
15 -51 15 -32 0 -39 4 -39 19 0 39 10 52 32 40 29 -15 37 -2 44 70 4 34 13 69
21 77 14 14 64 19 75 8z"/>
<path d="M2025 2219 c-16 -11 -35 -19 -42 -19 -6 0 -24 -5 -40 -11 -15 -6 -42
-13 -60 -15 -37 -3 -73 -20 -73 -34 0 -20 73 -53 116 -52 24 0 46 -4 50 -9 3
-5 18 -9 35 -9 23 0 29 4 29 23 0 12 7 44 15 71 19 63 10 79 -30 55z"/>
<path d="M2856 283 c-2 -2 -241 -3 -532 -3 -596 0 -685 -4 -717 -31 l-22 -18
29 -24 c25 -21 41 -24 124 -26 53 -1 99 -4 103 -7 5 -2 323 -4 707 -4 713 0
743 2 785 38 17 15 16 17 -19 38 -21 13 -61 26 -88 29 -52 5 -366 12 -370 8z"/>
</g>
</svg>
