<?xml version="1.0" standalone="no"?>
<!DOCTYPE svg PUBLIC "-//W3C//DTD SVG 20010904//EN"
 "http://www.w3.org/TR/2001/REC-SVG-20010904/DTD/svg10.dtd">
<svg version="1.0" xmlns="http://www.w3.org/2000/svg"
 width="498.000000pt" height="278.000000pt" viewBox="0 0 498.000000 278.000000"
 preserveAspectRatio="xMidYMid meet">
<metadata>
Created by potrace 1.16, written by Peter Selinger 2001-2019
</metadata>
<g transform="translate(0.000000,278.000000) scale(0.100000,-0.100000)"
fill="#000000" stroke="none">
<path d="M0 1390 l0 -1390 2490 0 2490 0 0 1390 0 1390 -2490 0 -2490 0 0
-1390z m2495 1300 c6 -4 27 -10 48 -14 20 -4 64 -21 97 -38 79 -40 101 -76
106 -171 2 -40 6 -95 9 -124 3 -28 1 -63 -5 -77 -12 -32 2 -41 80 -50 72 -9
80 -15 87 -63 l5 -39 -105 -54 c-79 -39 -109 -60 -116 -79 -6 -14 -31 -64 -56
-111 -40 -76 -45 -92 -45 -150 0 -101 21 -135 126 -207 169 -116 199 -164 197
-318 -2 -120 -46 -241 -115 -316 -43 -47 -169 -149 -185 -149 -20 0 -30 -30
-38 -105 -6 -64 -4 -74 18 -114 28 -49 26 -71 -7 -71 -11 0 -39 -7 -61 -14
-22 -8 -57 -17 -79 -21 -38 -8 -39 -8 -34 21 3 16 14 50 24 76 16 42 17 53 5
100 -20 79 -34 99 -76 114 -32 11 -47 11 -94 -2 -30 -8 -65 -14 -76 -14 -18 0
-23 -9 -32 -62 -6 -37 -7 -73 -2 -86 5 -13 9 -34 9 -47 0 -18 14 -33 55 -60
61 -41 68 -62 33 -96 -21 -19 -30 -20 -102 -15 -44 4 -83 9 -88 12 -4 3 -8 43
-8 89 0 70 -5 96 -31 162 -17 43 -36 92 -43 108 -17 45 -37 70 -71 88 -58 30
-121 96 -170 179 -36 62 -60 91 -87 107 -40 23 -88 88 -88 119 0 11 12 22 31
29 l30 12 -17 33 c-9 18 -19 63 -22 100 -4 64 -3 68 18 76 17 6 28 4 42 -10
20 -20 43 -24 53 -8 3 6 14 10 24 10 10 0 27 16 39 38 11 20 40 56 64 79 66
64 119 77 131 31 l6 -20 29 21 c44 31 120 119 152 175 34 58 44 117 29 171 -6
22 -14 57 -19 78 -14 68 -26 72 -104 38 -66 -30 -67 -30 -109 -14 -23 9 -61
31 -84 50 -50 40 -57 77 -20 111 28 26 125 72 153 72 37 0 51 30 61 130 5 52
17 111 27 131 20 42 94 89 181 115 33 10 67 23 75 30 36 28 116 36 145 14z
m739 -2404 c50 -7 117 -37 115 -53 -2 -28 -20 -47 -55 -59 -56 -19 -1218 -24
-1520 -6 -149 8 -194 23 -194 61 0 52 73 59 604 60 236 1 430 2 432 4 5 5 569
-1 618 -7z"/>
<path d="M2393 2683 c-15 -7 -35 -17 -43 -22 -8 -5 -39 -16 -69 -24 -29 -9
-77 -31 -107 -49 -70 -42 -90 -83 -100 -202 -7 -94 -23 -126 -64 -126 -21 0
-120 -48 -152 -73 -10 -8 -18 -24 -18 -35 0 -23 64 -78 122 -105 37 -16 38
-16 97 13 33 17 66 30 74 30 22 0 36 -22 46 -71 6 -24 15 -64 21 -87 13 -53 5
-100 -26 -168 -27 -57 -125 -169 -172 -196 l-30 -18 -11 30 c-5 17 -13 30 -16
30 -32 0 -126 -87 -161 -147 -10 -18 -26 -33 -36 -33 -9 0 -20 -4 -23 -10 -9
-14 -35 -12 -69 5 -15 8 -32 12 -37 9 -16 -9 -10 -92 11 -146 11 -29 20 -54
20 -56 0 -2 -13 -8 -30 -13 -16 -6 -30 -15 -30 -20 0 -23 53 -90 88 -110 27
-16 51 -45 87 -107 51 -86 114 -152 173 -180 24 -12 40 -32 62 -79 58 -122 80
-201 80 -284 0 -43 4 -80 9 -83 5 -3 39 -8 77 -12 62 -5 71 -4 92 15 12 12 22
26 22 32 0 5 -23 24 -50 41 -34 21 -52 40 -56 57 -2 14 -8 40 -13 56 -4 17 -3
60 3 98 9 63 12 67 36 67 14 0 50 6 80 14 43 11 64 12 96 3 49 -12 65 -35 84
-121 13 -55 12 -63 -8 -120 -12 -33 -22 -65 -22 -70 0 -10 20 -6 177 40 8 2 4
18 -13 49 -24 42 -25 52 -19 118 9 83 19 117 37 117 17 0 143 102 186 149 76
84 115 194 115 321 -1 136 -29 178 -193 291 -54 37 -97 74 -107 93 -9 17 -18
65 -21 110 l-5 78 59 118 59 119 103 52 c102 52 112 62 96 103 -6 17 -48 30
-126 41 -44 6 -46 7 -41 33 7 36 7 71 3 177 -4 125 -25 161 -121 209 -40 20
-84 36 -100 36 -15 0 -30 4 -33 9 -10 15 -64 18 -93 4z m202 -64 c36 -18 72
-40 81 -50 20 -22 35 -82 41 -168 6 -78 -6 -91 -78 -91 -25 0 -63 -7 -84 -16
-20 -8 -42 -13 -48 -11 -7 2 -23 0 -37 -5 -23 -9 -68 -18 -172 -34 l-38 -6 0
114 c1 98 4 119 24 161 22 45 21 72 -3 44 -31 -38 -41 -89 -41 -206 0 -104 -2
-122 -17 -129 -24 -13 -52 -1 -91 39 -36 37 -40 67 -22 172 13 81 29 107 80
134 25 13 54 30 65 37 11 7 36 16 55 20 l35 6 -34 -13 c-19 -8 -30 -16 -25
-20 5 -3 16 -2 24 4 28 17 35 9 10 -11 -21 -16 -22 -20 -7 -20 10 0 30 12 45
27 17 18 39 28 61 30 18 1 38 6 44 12 19 19 66 12 132 -20z m115 -349 c-6 -11
-12 -20 -13 -20 -1 -1 -27 -3 -57 -6 -49 -4 -130 -17 -185 -31 -126 -30 -185
-32 -185 -5 0 4 62 20 138 35 75 15 148 32 162 36 14 5 53 9 88 10 60 1 62 0
52 -19z m-592 -22 c-2 -7 18 -26 44 -42 40 -27 72 -61 50 -53 -4 1 -28 -8 -52
-20 -148 -71 -150 -72 -195 -56 -50 16 -100 65 -92 87 9 23 118 70 197 85 25
5 46 9 48 10 1 1 1 -4 0 -11z m557 -133 c0 -108 7 -89 -92 -275 -22 -40 -24
-56 -21 -136 4 -106 20 -138 99 -194 27 -19 76 -54 109 -77 35 -25 70 -61 86
-88 23 -40 26 -56 26 -133 0 -91 -28 -196 -71 -266 -42 -68 -170 -171 -238
-191 -53 -16 -169 -20 -177 -6 -11 16 -58 19 -117 5 -68 -16 -171 -12 -214 7
-66 30 -172 99 -201 131 -17 18 -54 69 -82 113 -34 53 -65 88 -92 105 -41 25
-65 70 -41 78 28 9 32 41 11 101 -26 78 -26 101 1 101 38 0 59 -19 59 -53 0
-55 20 -107 43 -117 l22 -9 -23 0 c-26 -1 -39 26 -49 98 -7 54 -18 71 -45 71
-18 0 -19 -4 -13 -37 4 -21 13 -50 21 -65 19 -37 18 -64 -6 -88 -25 -25 -19
-40 31 -70 27 -17 59 -54 98 -115 32 -49 72 -102 87 -116 34 -31 166 -111 209
-126 42 -15 118 -14 185 1 56 13 116 11 126 -5 8 -14 118 -10 164 6 65 23 181
119 230 190 45 67 74 168 73 262 -1 77 -3 86 -34 129 -20 27 -69 71 -119 105
-158 109 -175 139 -168 290 3 72 9 93 33 135 75 127 86 158 83 244 -3 89 -21
109 -26 30 -2 -41 -6 -50 -21 -50 -15 0 -20 11 -25 50 l-7 50 -42 -5 c-23 -4
-80 -15 -127 -25 -47 -11 -111 -24 -143 -30 -32 -7 -61 -18 -63 -25 -3 -8 4
-51 15 -96 12 -46 21 -97 21 -114 0 -41 -26 -128 -56 -188 -26 -50 -25 -53 26
-59 33 -4 36 -29 11 -81 -11 -23 -23 -61 -27 -84 -5 -33 -11 -43 -25 -43 -15
0 -19 8 -19 38 0 20 5 54 11 75 6 22 8 41 5 45 -13 13 -86 -21 -144 -68 -34
-27 -68 -50 -75 -50 -15 0 -37 41 -37 68 1 9 8 1 16 -18 8 -19 16 -36 18 -38
2 -2 33 19 67 47 59 48 109 71 153 71 15 0 17 -5 12 -32 -14 -75 -18 -128 -9
-128 5 0 15 24 22 53 6 28 18 65 27 81 19 39 12 56 -26 56 -17 0 -33 6 -36 14
-3 7 8 40 25 72 57 112 60 151 25 307 -20 91 -20 90 66 107 30 6 93 20 140 30
47 11 106 22 131 25 l47 6 7 -51 c9 -64 25 -65 25 -2 0 53 6 64 30 60 12 -3
15 -21 15 -103z m-345 -780 c0 -16 -31 -35 -75 -45 l-30 -7 43 -42 c57 -55 60
-93 10 -135 l-35 -30 39 -37 c29 -28 38 -43 34 -57 -12 -37 84 -82 173 -82 34
0 41 -3 41 -19 0 -39 -67 -41 -172 -6 -81 27 -128 66 -107 91 15 18 -2 39 -53
65 -21 11 -38 25 -38 31 0 6 23 32 51 57 l50 46 -28 29 c-44 46 -63 79 -63
107 0 29 27 47 44 29 8 -8 6 -9 -5 -5 -40 15 -35 -44 6 -89 14 -15 33 -39 43
-53 16 -26 16 -26 -36 -73 -55 -49 -56 -59 -4 -75 31 -9 58 -51 43 -68 -33
-41 175 -127 243 -101 31 12 15 21 -42 26 -63 6 -165 45 -156 59 3 5 0 9 -7 9
-8 0 -8 4 2 16 11 13 7 21 -29 56 -23 22 -42 42 -42 44 0 3 18 22 40 43 47 45
46 57 -12 112 -46 43 -50 69 -10 69 15 0 39 8 52 18 l25 17 -55 6 -55 6 58 1
c44 2 57 -1 57 -13z m214 -715 c-4 -60 -3 -89 5 -94 6 -4 11 -17 11 -30 0 -16
-9 -25 -33 -34 -47 -17 -50 -16 -43 21 16 78 16 95 -2 148 -10 30 -17 60 -15
66 2 6 22 10 44 10 l40 0 -7 -87z"/>
<path d="M2468 2630 c-1 -5 -20 -11 -41 -13 -21 -2 -43 -12 -50 -21 -7 -9 -23
-22 -36 -29 -14 -7 -35 -32 -47 -57 -20 -39 -23 -60 -24 -154 l0 -108 33 7
c17 4 55 11 82 15 28 4 64 12 82 18 17 6 34 8 37 5 3 -3 23 2 46 11 22 9 59
16 81 16 67 0 79 12 79 80 0 32 -4 62 -10 65 -5 3 -10 21 -10 39 0 39 -32 73
-107 110 -53 26 -108 34 -115 16z"/>
<path d="M2214 2566 c-73 -40 -91 -72 -100 -181 l-6 -80 33 -33 c40 -40 61
-53 76 -44 7 4 12 59 15 142 3 134 8 154 46 202 24 30 -3 27 -64 -6z"/>
<path d="M1983 2212 c-40 -15 -79 -34 -88 -42 -14 -14 -12 -19 17 -47 38 -35
86 -54 108 -42 8 4 38 17 65 29 28 12 57 26 65 31 8 5 23 12 32 15 14 5 6 15
-37 45 -31 22 -64 39 -73 38 -9 0 -49 -13 -89 -27z"/>
<path d="M2616 283 c-1 -1 -217 -3 -481 -5 -399 -3 -485 -6 -509 -18 -41 -21
-43 -36 -7 -58 46 -28 214 -33 966 -32 667 1 726 4 745 41 14 25 -32 56 -96
64 -44 6 -612 13 -618 8z"/>
</g>
</svg>
