<?xml version="1.0" standalone="no"?>
<!DOCTYPE svg PUBLIC "-//W3C//DTD SVG 20010904//EN"
 "http://www.w3.org/TR/2001/REC-SVG-20010904/DTD/svg10.dtd">
<svg version="1.0" xmlns="http://www.w3.org/2000/svg"
 width="498.000000pt" height="278.000000pt" viewBox="0 0 498.000000 278.000000"
 preserveAspectRatio="xMidYMid meet">
<metadata>
Created by potrace 1.16, written by Peter Selinger 2001-2019
</metadata>
<g transform="translate(0.000000,278.000000) scale(0.100000,-0.100000)"
fill="#000000" stroke="none">
<path d="M0 1390 l0 -1390 2490 0 2490 0 0 1390 0 1390 -2490 0 -2490 0 0
-1390z m2610 1052 c55 -31 147 -117 166 -155 11 -20 14 -59 13 -141 -2 -103 0
-117 20 -144 54 -76 84 -177 62 -211 -10 -15 -82 -37 -184 -56 -37 -7 -69 -14
-71 -16 -1 -2 -12 -17 -24 -33 -19 -24 -22 -42 -22 -116 0 -56 6 -101 15 -124
15 -35 85 -96 111 -96 7 0 31 -9 52 -20 35 -19 42 -19 102 -6 36 8 86 22 112
30 44 14 48 14 73 -6 23 -18 32 -19 60 -10 25 7 39 7 51 -3 15 -11 16 -18 5
-61 -7 -27 -23 -69 -37 -93 -13 -24 -24 -45 -24 -47 0 -3 56 -19 103 -29 47
-9 31 -60 -46 -142 l-29 -31 30 -16 c54 -28 27 -88 -81 -180 -92 -78 -328
-186 -407 -186 -30 0 -32 -17 -14 -105 31 -151 37 -132 -47 -142 -41 -4 -93
-8 -116 -8 -24 0 -43 -3 -43 -7 0 -5 -45 -8 -101 -8 l-101 0 4 116 c2 93 6
118 19 128 10 7 60 13 122 14 l105 3 23 -32 c14 -20 24 -52 27 -85 4 -52 4
-52 -36 -78 -65 -40 -64 -50 4 -42 166 18 156 15 149 45 -19 75 -35 176 -29
193 3 11 15 18 31 18 45 0 129 30 238 85 112 57 191 117 245 185 26 33 29 43
20 60 -6 11 -17 20 -26 20 -29 0 -27 31 3 63 73 78 89 127 42 127 -39 0 -99
23 -99 38 0 7 9 26 19 41 11 14 27 50 36 79 14 41 15 55 5 67 -9 11 -17 12
-30 5 -29 -16 -65 -12 -84 9 -18 20 -45 17 -101 -8 -11 -4 -46 -13 -78 -19
-54 -10 -63 -9 -130 18 -133 53 -157 91 -157 246 0 72 4 91 22 117 12 18 22
33 23 35 1 1 31 7 66 13 61 9 99 19 162 42 16 5 30 19 33 33 7 28 -18 98 -59
162 -29 45 -30 50 -28 159 2 132 -3 146 -81 219 -86 81 -138 107 -216 107 -63
0 -156 -21 -212 -47 -96 -46 -129 -68 -157 -104 -27 -36 -32 -52 -38 -124 -4
-52 -3 -93 4 -111 17 -45 13 -55 -28 -77 -55 -28 -63 -67 -25 -121 15 -22 40
-50 55 -62 31 -25 99 -190 99 -241 0 -18 -9 -63 -21 -100 -22 -70 -17 -65
-213 -235 -68 -60 -95 -89 -122 -131 -53 -82 -59 -99 -59 -185 0 -73 4 -89 34
-148 48 -97 119 -157 243 -206 30 -11 56 -59 82 -150 32 -109 18 -141 -64
-147 -29 -2 -55 -6 -58 -8 -11 -12 10 -38 42 -51 19 -8 37 -19 41 -25 3 -5 37
-10 74 -10 63 0 70 2 86 26 9 14 14 32 11 40 -3 8 -2 14 3 14 21 0 17 -39 -6
-64 -21 -23 -31 -26 -92 -26 -47 0 -72 4 -80 14 -7 8 -26 18 -43 21 -21 5 -34
16 -41 36 -11 28 -14 29 -77 30 -116 2 -254 -1 -282 -7 -31 -6 -50 -25 -40
-39 26 -36 47 -40 261 -51 119 -6 178 -11 131 -12 -47 0 -146 3 -221 7 -141 8
-180 20 -185 58 -7 48 32 55 302 55 263 0 269 4 224 150 -29 94 -55 128 -113
145 -74 21 -164 104 -207 189 -32 63 -35 77 -35 154 0 51 6 99 14 120 21 50
68 120 106 155 61 57 168 150 195 170 52 37 100 137 100 208 0 60 -65 202
-115 252 -54 53 -68 85 -59 132 5 27 15 38 46 54 34 17 39 24 33 42 -14 43
-17 106 -6 173 12 76 43 124 101 155 186 98 338 119 440 61z m-253 -58 c24 -9
43 -21 43 -27 0 -5 -24 -35 -54 -67 -29 -32 -68 -88 -87 -125 -47 -95 -58 -97
-113 -27 -51 63 -55 85 -26 141 20 40 65 73 135 102 52 22 52 22 102 3z m297
-77 c17 -12 46 -35 64 -51 35 -33 38 -53 26 -175 l-7 -61 -83 -42 c-82 -40
-86 -41 -206 -45 l-123 -4 -49 36 c-46 35 -48 39 -42 73 10 63 74 179 131 237
51 53 55 55 107 55 29 0 59 4 67 9 18 11 76 -5 115 -32z m113 -304 c-4 -3 -1
-13 7 -22 27 -30 56 -91 62 -130 8 -50 -10 -61 -100 -61 -36 0 -67 -4 -70 -8
-6 -11 -258 -25 -280 -16 -9 3 -16 11 -16 16 0 6 -16 28 -35 49 -33 36 -45 68
-27 70 4 0 61 2 127 4 109 2 127 5 194 34 41 17 82 38 90 45 20 17 63 34 48
19z m-587 -14 c0 -4 13 -16 29 -25 18 -11 40 -40 57 -78 31 -65 31 -65 69
-112 28 -36 102 -64 159 -62 20 1 39 -2 42 -5 10 -9 -95 -1 -141 11 -24 7 -51
24 -68 44 -38 46 -39 46 -70 113 -19 39 -40 68 -62 83 -34 21 -35 22 -45 2
-20 -37 -14 -132 13 -195 48 -117 60 -165 53 -219 -14 -123 -48 -172 -211
-306 -112 -92 -126 -107 -168 -182 -32 -58 -37 -75 -37 -133 0 -56 5 -77 32
-127 59 -110 149 -176 273 -198 39 -7 81 -16 95 -20 35 -10 204 -2 274 12 49
11 70 22 120 68 34 30 79 70 101 87 22 18 34 33 28 33 -17 0 -93 78 -93 95 0
8 5 17 10 20 11 7 50 79 50 93 0 5 -19 14 -42 21 -55 17 -88 39 -88 60 0 9 23
38 50 65 28 27 50 52 50 56 0 4 -15 10 -32 14 -18 3 -67 13 -108 22 -41 8 -90
18 -107 21 -24 4 -33 11 -33 24 0 15 7 19 38 19 21 0 62 -6 92 -14 48 -12 73
-17 160 -29 52 -8 54 -57 5 -121 -19 -26 -35 -50 -35 -55 0 -5 21 -14 46 -21
30 -9 48 -20 53 -34 8 -21 -13 -101 -30 -112 -29 -18 25 -86 76 -95 35 -7 29
-42 -12 -69 -43 -27 -156 -128 -162 -143 -6 -15 178 32 203 52 6 5 36 19 66
31 63 25 108 56 185 130 44 41 53 55 44 66 -6 7 -14 13 -17 12 -4 -1 -15 2
-24 6 -32 14 -20 49 37 105 31 30 53 56 50 60 -3 3 -34 12 -68 21 -67 16 -75
27 -48 70 34 57 59 113 55 125 -4 10 -13 11 -37 3 -47 -14 -245 -19 -291 -7
-42 10 -77 25 -155 63 -56 27 -78 75 -91 202 -8 75 -7 99 5 126 8 18 14 27 15
20 0 -7 -4 -22 -10 -32 -14 -27 4 -189 28 -243 17 -38 28 -47 93 -79 41 -20
92 -41 115 -47 46 -12 243 -7 291 8 27 8 34 7 42 -7 11 -19 -11 -82 -45 -128
-30 -41 -19 -55 53 -69 37 -7 59 -17 61 -27 2 -8 -22 -39 -52 -69 -31 -30 -56
-59 -56 -65 0 -6 16 -18 35 -27 19 -9 35 -23 35 -31 0 -16 -138 -147 -173
-163 -12 -6 -51 -24 -87 -41 -83 -39 -172 -68 -233 -77 -44 -7 -47 -6 -40 12
9 23 111 117 165 153 45 30 47 37 12 50 -47 18 -84 50 -84 73 0 12 11 44 25
71 31 61 22 80 -43 99 -56 17 -57 28 -6 93 55 73 45 95 -51 109 -27 4 -75 13
-105 21 -61 16 -120 18 -120 5 0 -5 12 -11 28 -14 15 -3 61 -13 102 -22 41 -8
92 -18 113 -21 51 -9 48 -30 -15 -93 l-52 -53 24 -19 c14 -11 44 -25 68 -31
23 -7 42 -18 42 -26 0 -18 -29 -82 -47 -103 -12 -15 -9 -22 27 -58 22 -22 45
-41 51 -41 23 0 0 -30 -69 -91 -107 -94 -124 -105 -189 -118 -76 -15 -227 -20
-278 -10 -22 5 -74 16 -115 25 -126 26 -207 89 -260 200 -44 94 -43 172 5 265
37 74 59 98 175 193 157 129 195 181 206 293 6 52 2 69 -35 168 -45 116 -53
184 -31 250 9 27 40 46 40 24z m580 -1703 c115 3 152 3 190 3 19 0 75 0 123 0
145 2 242 -14 266 -43 9 -10 9 -20 0 -38 -20 -45 -67 -48 -602 -46 l-492 2
515 6 c283 3 524 9 535 14 12 4 26 16 33 27 11 17 8 22 -20 39 -18 11 -46 20
-63 21 -16 0 -39 2 -50 4 -11 3 -63 4 -115 4 -52 0 -111 0 -130 0 -38 0 -77 0
-190 -3 -83 -1 -100 1 -100 16 0 6 5 7 13 2 6 -5 46 -8 87 -8z"/>
<path d="M2264 506 c-10 -14 -14 -51 -14 -118 l0 -98 88 0 c86 0 89 1 110 30
13 16 29 30 36 30 23 0 46 35 46 71 0 20 -10 50 -26 72 l-26 38 -100 -3 c-87
-2 -102 -5 -114 -22z"/>
<path d="M2286 2381 c-4 -6 -17 -11 -30 -11 -13 0 -31 -9 -41 -20 -10 -11 -23
-20 -30 -20 -22 0 -75 -75 -75 -105 0 -9 19 -43 42 -75 39 -56 43 -59 59 -44
10 9 32 44 48 78 17 33 47 79 68 102 69 73 69 72 39 84 -49 18 -74 22 -80 11z"/>
<path d="M2481 2323 c-50 -4 -58 -8 -107 -58 -52 -54 -134 -198 -134 -236 0
-11 20 -34 48 -54 l47 -36 115 4 c104 4 121 7 180 36 100 48 99 46 106 145 7
82 6 88 -17 112 -43 46 -124 94 -155 92 -16 -1 -53 -3 -83 -5z"/>
<path d="M2715 1972 c-11 -10 -40 -26 -65 -36 -25 -10 -54 -23 -65 -29 -11 -6
-75 -11 -142 -12 -68 -1 -126 -5 -130 -8 -4 -4 9 -24 29 -45 19 -20 38 -45 41
-55 6 -17 17 -17 134 -11 71 4 136 11 145 15 9 5 45 9 80 9 82 0 93 7 84 55
-8 40 -26 75 -60 113 -24 27 -26 27 -51 4z"/>
</g>
</svg>
